<?xml version="1.0" encoding="utf-8"?>
<svg version="1.1" xmlns="http://www.w3.org/2000/svg" height="1000" viewBox="-9000 -9000 18000 18000" xmlns:bx="https://boxy-svg.com">
  <defs>
    <bx:export>
      <bx:file format="png" path="no-dog-juggling.png" width="125" height="125">
        <bx:variant scale="2" suffix="@2x"/>
        <bx:variant scale="4" suffix="@4x"/>
        <bx:variant scale="8" suffix="@8x"/>
        <bx:variant scale="16" suffix="@16x"/>
      </bx:file>
    </bx:export>
  </defs>
  <ellipse style="stroke: rgb(255, 0, 0); stroke-width: 1500; fill: rgb(255, 255, 255);" rx="8136.24" ry="8136.24" transform="matrix(0.990268, -0.139173, 0.139173, 0.990268, 0, 0)"/>
  <path d="M -3582.8 3094.74 C -3257.3 3186.23 -3257.3 3186.23 -3158.9 3323.19 C -3083.6 3502.42 -3122.8 3701.51 -3190.6 3877.6 C -3148.5 3883.93 -2883.461 3926.998 -2799.9 4040.73 C -2728.815 4137.481 -2725.841 4286.525 -2766.8 4399.38 C -2798.358 4486.332 -2842.351 4588.837 -2963.6 4595.03 C -3011.3 4598.36 -4264.4 4604.87 -4300.5 4604.87 C -4592.9 4604.87 -4625.165 4603.853 -4724.7 4497.2 C -4807.601 4408.371 -4832.61 4252.262 -4789.8 4138.55 C -4744.21 4017.454 -4646.4 3936.3 -4485.8 3897.16 C -4443.9 3890.54 -4404.7 3883.93 -4365.8 3877.6 C -4365.8 3845.09 -4368.8 3815.74 -4371.6 3786.1 C -4365.8 3681.95 -4365.8 3681.95 -4322.5 3629.59 C -4064.491 3438.115 -3909.433 3544.466 -3648.1 3388.49 C -3632 3326.35 -3632 3326.35 -3627.6 3257.88 C -3619 3130.7 -3619 3130.7 -3582.8 3094.74 Z" fill="#000000" style="stroke-width: 1;"/>
  <path d="M -3432.3 -632.55 C -2931.146 -1649.914 -1901.498 -2478.225 -816.419 -2808.058 C 189.881 -3113.944 830.368 -3029.418 2321.968 -2481.9 L 2315.432 -1570.286 L 3296.602 -1532.51 L 3876.682 -2544.06 L 3690.5 -2546.8 L 3208.361 -1673.6 L 2483.57 -1699 C 2493.89 -2302.662 2483.57 -3655.6 2515.53 -3688.8 C 2701.96 -3675.9 2865.63 -3636.8 3040.62 -3571.8 C 3066.81 -3564.3 4962.47 -2905.9 5027.51 -2874.1 C 5027.51 -2853.9 5043.58 -2292.3 5043.58 -2263.6 C 5053.71 -2185.3 5053.71 -2185.3 5118.75 -2136.1 C 5186.85 -2094.1 6198.135 -1565.406 6312.74 -1503.7 C 6398.278 -1457.645 6307.834 -1260.065 6201.35 -1308.3 C 6193.079 -1064.16 5845.17 -587.65 5829.35 -557.15 C 5767.18 -479.18 5745.33 -476.3 5646.96 -460.19 C 5566.09 -457.32 3308.46 -444.37 3285.16 -444.37 C 3100.14 -440.05 2998.86 -387.98 2868.52 -257.63 C 2832.3 -218.51 2147.375 526.979 2127.235 547.129 C 2066.535 596.319 1327.751 1648.66 1327.751 1648.66 C 1327.751 1648.66 1292.47 3782.94 1292.47 3822.07 C 1289.59 4079.57 1273.76 4255.93 1099.99 4458 C 930.808 4598.36 774.578 4608.07 558.803 4604.87 C 370.64 4585.2 233.125 4503.71 103.08 4366.82 C 35.49 4430.288 -99.656 4536.589 -224.05 4562.47 C -481.201 4615.972 -745.08 4582 -1005.5 4461.3 C -1085.2 4425.43 -2084.9 3975.42 -2151.7 3946.07 C -2594.5 3743.81 -2594.5 3743.81 -2682.7 3554.79 C -2732 3375.26 -2721.946 3203.769 -2659.5 3045.84 C -2630.591 2972.727 -2573.18 2867.934 -2441.2 2866.59 C -2441.2 2843.57 -2441.2 2824.88 -2441.2 2801.57 C -2474.6 2801.57 -2506.2 2801.57 -2539.5 2804.44 C -3458.5 2824.88 -4228.4 2580.03 -4920 1953.69 C -5271.6 1610.45 -5539.4 1134.58 -5659.4 661.304 C -5743.7 369.674 -5778.8 131.636 -5646.5 -75.23 C -5513.1 -283.87 -5050.3 -300.01 -4899.9 -199.81 C -4731.5 -87.608 -4675.4 133.07 -4633.5 345.69 C -4522.1 824.721 -4286.2 1372.94 -3517.8 1594.63 C -3866.6 623.046 -3760.602 33.917 -3432.3 -632.55 Z M 92.863 882.59 C 166.563 918.79 -255.98 518.02 -255.98 583.042 C -883.2 481.468 -1423.9 655.546 -1952 811.776 C -1925.8 808.902 -1442.5 801.706 -1377.5 801.706 C -979.58 798.822 -572.74 831.917 -271.81 1118.47 C -112.69 1295.12 -70.693 1483.28 -73.577 1714.89 C -154.71 2172.06 -503.41 2593.26 -807.23 2922.11 C -888.36 3009.87 -963.5 3098.2 -1038.9 3192.56 C -1015.6 3199.18 -76.452 3616.65 4.684 3649.16 C 4.684 3623.27 1.801 1989.65 1.801 1943.33 C -1.073 1082.51 -11.291 1054.935 92.863 882.59 Z" style="stroke-width: 36px;"/>
  <path style="stroke-width: 1500; stroke: rgb(255, 0, 0); fill: rgb(255, 255, 255); transform-box: fill-box; transform-origin: 50% 50%;" d="M -6000 6000 L 6000 -6000" transform="matrix(0.139173, 0.990268, -0.990268, 0.139173, 0, 0)"/>
</svg>