<?xml version="1.0" encoding="utf-8"?>
<svg version="1.1" xmlns="http://www.w3.org/2000/svg" height="1000" viewBox="-9000 -9000 18000 18000" xmlns:bx="https://boxy-svg.com">
  <defs>
    <bx:export>
      <bx:file format="png" path="no-dog-trumpet.png" width="125" height="125">
        <bx:variant scale="2" suffix="@2x"/>
        <bx:variant scale="4" suffix="@4x"/>
        <bx:variant scale="8" suffix="@8x"/>
        <bx:variant scale="16" suffix="@16x"/>
      </bx:file>
      <bx:file format="png" href="#object-0" path="no-dog-trumpet.png" width="125" height="125">
        <bx:variant scale="2" suffix="@2x"/>
        <bx:variant scale="4" suffix="@4x"/>
        <bx:variant scale="8" suffix="@8x"/>
        <bx:variant scale="16" suffix="@16x"/>
      </bx:file>
    </bx:export>
  </defs>
  <ellipse style="stroke: rgb(255, 0, 0); stroke-width: 1500; fill: rgb(255, 255, 255);" rx="8136.24" ry="8136.24" transform="matrix(0.990268, -0.139173, 0.139173, 0.990268, 0, 0)" id="object-0"/>
  <path d="M -1681.3 5705.66 C -1627.2 5689.78 -1600.7 5634.25 -1575 5587.41 C -1543.9 5527.88 -1521.4 5468.35 -1504.2 5403 C -1491 5352.73 -1474.4 5303.83 -1458 5254.24 C -1444 5214.6 -1431.5 5174.95 -1420.3 5135.31 C -1409.1 5094.29 -1394.4 5055.33 -1379.3 5015.68 C -1372.1 4997.17 -1367.4 4978.66 -1362.8 4959.47 C -1357.4 4939.59 -1350.2 4920.51 -1342.9 4900.63 C -1329.1 4861.67 -1317.1 4822.02 -1305.9 4781.69 C -1298 4755.18 -1289.5 4730.16 -1279.5 4705.02 C -1270.2 4679.2 -1261.7 4653.5 -1253 4627.68 C -1244.4 4602.54 -1235.9 4578.09 -1225.9 4552.95 C -1220 4534.44 -1215.4 4515.36 -1210.7 4496.17 C -1204.1 4472.4 -1196.2 4448.53 -1188.2 4425.45 C -1186.3 4420.19 -1185 4414.82 -1183 4409.57 C -1175.1 4385.8 -1166.5 4361.35 -1158.5 4337.47 C -1142.1 4288.57 -1126.7 4239.1 -1113.6 4189.51 C -1102.3 4148.5 -1089.8 4108.85 -1075.9 4069.2 C -1059.4 4020.3 -1044.2 3971.4 -1032.3 3921.13 C -1025.7 3897.37 -1019.1 3874.17 -1011.8 3851.09 C -1001.2 3814.73 -991.3 3778.39 -982.05 3741.95 C -980.06 3733.38 -980.06 3733.38 -978.09 3724.12 C -973.46 3704.36 -968.17 3684.48 -963.54 3664.03 C -950.99 3611.13 -937.77 3558.23 -924.55 3506.01 C -903.4 3421.47 -886.88 3336.8 -873 3250.89 C -867.04 3216.49 -861.1 3182.22 -853.16 3148.51 C -835.33 3075.73 -825.41 3001.13 -816.82 2927.09 C -796.33 2757.88 -754.02 2576.1 -679.34 2422.09 C -672.73 2409.52 -667.44 2396.95 -662.15 2384.39 C -612.59 2270.13 -552.45 2155.08 -479.08 2053.96 C -466.53 2036.83 -466.53 2036.83 -455.95 2018.32 C -447.36 2003.12 -447.36 2003.12 -434.8 1991.81 C -422.24 1979.24 -412.99 1967.36 -402.41 1952.85 C -377.96 1919.14 -349.53 1888.75 -321.12 1858.36 C -315.17 1851.73 -309.22 1844.42 -303.27 1837.8 C -272.87 1804.09 -241.8 1771.76 -206.77 1742.05 C -195.54 1732.8 -195.54 1732.8 -179.68 1716.23 C -159.19 1696.35 -136.71 1678.53 -114.25 1660.7 C -102.34 1651.45 -91.114 1642.19 -79.216 1632.94 C -50.135 1609.17 -21.71 1587.35 10.67 1568.84 C 22.564 1560.96 22.564 1560.96 35.12 1548.39 C 56.28 1526.57 81.393 1510.69 106.506 1493.55 C 111.796 1489.55 116.423 1485.55 121.713 1481.55 C 121.713 1476.98 121.713 1472.3 121.713 1468.41 C 125.678 1466.36 129.642 1464.41 133.607 1462.47 C 156.081 1450.59 175.241 1434.71 195.727 1418.83 C 199.703 1415.51 204.318 1412.89 208.294 1408.89 C 212.259 1406.26 216.224 1402.95 220.851 1399.63 C 224.153 1397 228.117 1393.69 231.419 1391.06 C 240.674 1382.49 240.674 1382.49 247.289 1362.61 C 255.881 1358.04 264.473 1353.36 273.716 1349.36 C 286.935 1338.16 299.503 1326.97 311.397 1315.09 C 318.001 1309.14 324.616 1302.52 331.22 1296.58 C 334.522 1293.26 338.498 1289.95 341.8 1286.63 C 353.694 1276.01 365.587 1265.5 377.493 1255.56 C 409.21 1227.8 439.612 1197.4 469.353 1167.7 C 478.607 1157.76 488.524 1148.5 497.779 1139.25 C 539.413 1097.55 577.756 1055.96 614.763 1011.06 C 629.959 992.546 629.959 992.546 645.829 977.351 C 667.64 954.843 686.137 930.393 704.647 905.257 C 722.493 881.492 741.665 861.041 762.813 840.475 C 771.405 829.278 779.997 817.396 788.589 806.085 C 795.193 796.259 795.193 796.259 801.808 787.004 C 818.329 763.811 834.85 740.046 850.72 716.852 C 858.649 705.656 866.578 695.716 875.17 685.204 C 887.727 668.637 898.965 652.185 910.196 634.247 C 925.403 609.797 941.261 586.032 957.782 562.953 C 978.931 533.133 996.777 502.742 1015.29 471.094 C 1027.84 449.272 1040.4 428.02 1053.62 406.883 C 1092.61 344.158 1126.32 279.376 1157.38 212.652 C 1171.92 180.89 1187.79 149.813 1204.97 119.421 C 1215.54 100.227 1223.47 80.461 1232.06 60.581 C 1234.05 54.64 1236.69 49.384 1239.34 43.443 C 1257.85 0.483 1274.37 -43.836 1290.23 -88.109 C 1297.49 -107.28 1304.77 -124.47 1314.68 -141.65 C 1325.92 -160.16 1331.21 -177.34 1337.15 -197.16 C 1345.74 -226.9 1355.66 -255.99 1366.89 -285.07 C 1382.1 -324.08 1394.65 -363.07 1405.88 -403.38 C 1412.5 -427.83 1420.43 -451.64 1430.35 -474.77 C 1432.99 -488.65 1436.29 -501.87 1438.94 -515.69 C 1443.57 -534.2 1448.86 -552.71 1454.8 -571.22 C 1475.29 -639.31 1490.49 -708.78 1505.03 -779.5 C 1512.3 -811.84 1519.57 -843.6 1527.5 -875.93 C 1536.75 -918.21 1546.01 -959.91 1552.62 -1002.9 C 1557.25 -1031.3 1563.19 -1059.7 1568.48 -1088.1 C 1601.52 -1250 1601.52 -1250 1612.1 -1332 C 1615.4 -1353.2 1620.03 -1372.9 1625.32 -1392.8 C 1630.61 -1416.6 1634.58 -1440.3 1637.88 -1464.2 C 1638.54 -1469.5 1639.87 -1474.7 1640.52 -1480.7 C 1643.17 -1497.9 1645.81 -1515.1 1648.46 -1532.2 C 1649.11 -1538.1 1649.77 -1544.2 1651.1 -1550.1 C 1660.35 -1614.8 1669.61 -1679.6 1676.87 -1745.1 C 1679.52 -1770.9 1683.49 -1796 1688.11 -1821 C 1707.94 -1935.4 1711.24 -2053.8 1719.17 -2168.7 C 1721.16 -2192.5 1723.13 -2216.4 1725.12 -2240.1 C 1745.61 -2508.5 1737.68 -2778.1 1714.54 -3045.8 C 1713.88 -3053 1713.88 -3053 1713.23 -3060.3 C 1700.01 -3217 1665.64 -3355.8 1594.92 -3496.6 C 1587.65 -3511.1 1581.7 -3525.6 1575.75 -3540.2 C 1567.15 -3564 1557.25 -3586.5 1546.01 -3609.6 C 1530.15 -3645.2 1516.93 -3681.7 1503.71 -3718.7 C 1497.76 -3735.1 1491.82 -3751 1485.2 -3766.9 C 1456.79 -3842.9 1462.08 -3925.5 1464.71 -4004.8 C 1465.38 -4087.4 1450.83 -4145.6 1397.29 -4209.1 C 1215.54 -4392.8 900.941 -4346.5 663.675 -4349.1 C 653.095 -4349.8 643.178 -4349.8 632.61 -4349.8 C 627.982 -4349.8 622.692 -4349.8 617.402 -4349.8 C 596.254 -4350.5 575.106 -4350.5 553.957 -4350.5 C 543.378 -4351.2 532.809 -4351.2 522.229 -4351.2 C 343.776 -4353.1 165.986 -4358.4 -11.804 -4365.7 C -70.624 -4368.3 -129.45 -4369 -187.61 -4370.3 C -302.61 -4373 -416.29 -4380.2 -530.63 -4388.2 C -536.58 -4388.8 -542.53 -4389.5 -548.48 -4389.5 C -556.41 -4390.1 -556.41 -4390.1 -565 -4390.8 C -614.57 -4394.7 -664.14 -4396.8 -714.37 -4398.7 C -756.01 -4400.1 -797.64 -4404 -839.29 -4408 C -959.58 -4419.2 -1090.4 -4426.5 -1200.2 -4367.6 C -1200.2 -4363.8 -1200.2 -4359.1 -1200.2 -4354.5 C -1205.5 -4353.1 -1210 -4351.8 -1215.4 -4349.8 C -1253.7 -4332 -1278.1 -4288.3 -1294 -4250.1 C -1313.2 -4186.5 -1313.2 -4125.1 -1286.1 -4063.6 C -1274.8 -4044.4 -1261.7 -4028 -1246.4 -4010.7 C -1243.2 -4006.8 -1239.2 -4002.1 -1235.9 -3997.6 C -1138.1 -3889.1 -954.95 -3849.5 -815.49 -3839.6 C -787.73 -3838.9 -759.31 -3838.3 -730.9 -3838.9 C -730.9 -3835 -730.9 -3830.3 -730.9 -3825.7 C -742.13 -3821.7 -752.71 -3817.2 -763.94 -3812.5 C -763.94 -3808.5 -763.94 -3803.9 -763.94 -3799.2 C -768.57 -3798 -773.86 -3795.9 -778.49 -3794 C -797.64 -3786.1 -810.86 -3776.8 -826.73 -3764.3 C -831.36 -3760.3 -1158.655 -3345.752 -1258.626 -3149.509 C -1448.077 -2777.617 -1573.646 -2362.418 -1555.8 -2010.1 C -1553.451 -1963.721 -1549.1 -1917.6 -1549.1 -1871.3 C -1549.1 -1864 -1549.1 -1857.4 -1549.1 -1849.5 C -1548.5 -1835 -1548.5 -1819.8 -1548.5 -1805.3 C -1548.5 -1790 -1548.5 -1774.8 -1548.5 -1759.6 C -1547.2 -1669.1 -1550.4 -1587.2 -1576.9 -1499.2 C -1579.5 -1491.3 -1581.5 -1483.3 -1584.2 -1475.4 C -1604.7 -1401.4 -1636.4 -1333.3 -1670.7 -1264.6 C -1680.7 -1246.7 -1689.2 -1228.9 -1696.5 -1209.1 C -1698.5 -1204.4 -1700.5 -1199.8 -1702.5 -1195.2 C -1709.1 -1193.2 -1715.7 -1191.2 -1722.4 -1188.5 C -1733.6 -1178.7 -1733.6 -1178.7 -1742.1 -1168.8 C -1752.7 -1217.7 -1762 -1265.9 -1768.5 -1314.8 C -1778.5 -1388.8 -1796.3 -1458.9 -1816.8 -1530.3 C -1820.7 -1544.2 -1824.7 -1558 -1828 -1571.9 C -1836 -1605 -1845.9 -1636.6 -1855.8 -1669.1 C -1857.7 -1675.7 -1859.8 -1682.3 -1861.7 -1689.5 C -1880.9 -1750.3 -1900.7 -1810.5 -1921.3 -1870.6 C -1927.9 -1891.2 -1934.4 -1911 -1941 -1930.8 C -1944.4 -1941.3 -1944.4 -1941.3 -1948.3 -1952.7 C -1952.3 -1965.8 -1956.9 -1979.1 -1961.6 -1992.9 C -1974.7 -2033.9 -1989.9 -2074.2 -2006.5 -2113.9 C -2029 -2170.7 -2050.2 -2228.2 -2069.9 -2286.4 C -2077.2 -2306.2 -2084.5 -2326.7 -2092.4 -2347.2 C -2122.1 -2430.5 -2150.6 -2514.4 -2173.1 -2600.4 C -2181 -2627.4 -2189 -2655.2 -2197.5 -2682.3 C -2212 -2725.9 -2222.7 -2769.6 -2231.2 -2814.5 C -2247.1 -2897.1 -2270.9 -2975.8 -2303.9 -3052.5 C -2307.2 -3059.7 -2309.8 -3066.3 -2313.2 -3073.6 C -2352.1 -3165.5 -2395.1 -3256.6 -2448.7 -3341.2 C -2463.2 -3361.8 -2463.2 -3361.8 -2469.1 -3382.9 C -2473.8 -3382.9 -2477.8 -3382.9 -2482.4 -3382.9 C -2483.7 -3388.1 -2485 -3393.4 -2486.4 -3398.1 C -2499.5 -3432.5 -2518 -3463.6 -2536 -3495.2 C -2543.8 -3508.5 -2551.7 -3522.4 -2559.7 -3536.2 C -2565 -3546.2 -2565 -3546.2 -2570.9 -3556.1 C -2592.7 -3595.1 -2613.9 -3634 -2634.4 -3673.7 C -2637.1 -3679 -2639.7 -3683.6 -2642.3 -3688.9 C -2663.5 -3728.5 -2678.7 -3770.9 -2693.9 -3812.5 C -2696.5 -3819.1 -2698.5 -3825.7 -2701.2 -3832.4 C -2713.7 -3866.6 -2713.7 -3866.6 -2724.9 -3901 C -2742.8 -3960.6 -2777.8 -4011.4 -2826 -4050.5 C -2845.9 -4060.3 -2845.9 -4060.3 -2859.1 -4063.6 C -2859.1 -4068.3 -2859.1 -4072.2 -2859.1 -4076.9 C -3048.2 -4176 -3278.8 -4253.3 -3493.6 -4195.8 C -3553 -4173.4 -3609.9 -4136.4 -3645.6 -4083.5 C -3674.7 -4012.8 -3657.5 -3932.8 -3630.4 -3864 C -3602.6 -3804.6 -3571 -3762.9 -3509.5 -3738.4 C -3488.3 -3731.8 -3466.6 -3727.2 -3444.7 -3723.2 C -3375.9 -3710 -3314.5 -3682.2 -3255 -3647.3 C -3242.5 -3640.6 -3242.5 -3640.6 -3229.2 -3640.6 C -3229.2 -3636.6 -3229.2 -3632.1 -3229.2 -3627.4 C -3220 -3620.2 -3220 -3620.2 -3206.7 -3610.9 C -3155.9 -3574.6 -3097.7 -3516.3 -3077.2 -3455.6 C -3073.3 -3455.6 -3068.6 -3455.6 -3064 -3455.6 C -3062 -3446.3 -3062 -3446.3 -3059.4 -3437 C -3053.4 -3415.9 -3045.5 -3397.4 -3034.9 -3378.2 C -2999.9 -3308.9 -2981.4 -3236.2 -2962.9 -3161.5 C -2958.2 -3144.3 -2953.7 -3127.1 -2949 -3110.6 C -2937.1 -3068.9 -2926.5 -3026.6 -2916 -2984.9 C -2903.4 -2935.5 -2890.1 -2886.6 -2877 -2837.6 C -2869 -2807.2 -2861.8 -2777.5 -2856.4 -2746.4 C -2846.5 -2700.8 -2834 -2655.2 -2822.7 -2609.6 C -2819.4 -2595.7 -2816.1 -2582.5 -2812.8 -2569.3 C -2809.6 -2557.4 -2809.6 -2557.4 -2806.3 -2545.5 C -2800.9 -2521.6 -2795.7 -2497.9 -2790.4 -2474.1 C -2777.8 -2415.3 -2763.9 -2357.8 -2750.1 -2299.6 C -2739.4 -2254.6 -2730.9 -2211 -2723.6 -2165.4 C -2718.3 -2135.7 -2711.1 -2106 -2704.5 -2076.2 C -2686 -1996.2 -2670.1 -1915.6 -2658.2 -1834.3 C -2653.5 -1803.2 -2647.6 -1772.1 -2641.6 -1741.1 C -2641 -1735.1 -2639.7 -1728.5 -2638.3 -1722.6 C -2632.4 -1690.2 -2626.4 -1658.5 -2620.5 -1626.1 C -2619.8 -1620.2 -2618.6 -1614.2 -2617.2 -1607.6 C -2615.2 -1595.7 -2612.6 -1583.8 -2610.6 -1572.5 C -2602.7 -1530.3 -2597.4 -1488 -2591.5 -1445.7 C -2588.2 -1421.8 -2584.9 -1398.1 -2580.9 -1375 C -2553.1 -1193.2 -2534.6 -981.73 -2594.7 -805.21 C -2597.4 -794.7 -2599.4 -784.07 -2601.3 -773.45 C -2620.5 -671.76 -2658.2 -575.9 -2700.5 -481.37 C -2702.4 -477.4 -2704.5 -472.79 -2706.4 -468.16 C -2730.9 -413.95 -2757.4 -360.42 -2784.5 -308.22 C -2793 -289.7 -2793 -289.7 -2793 -276.48 C -2797.6 -276.48 -2801.6 -276.48 -2806.3 -276.48 C -2810.2 -268.55 -2813.5 -261.27 -2817.5 -252.68 C -2822.7 -242.11 -2827.4 -231.53 -2832.7 -220.3 C -2836.7 -211.71 -2836.7 -211.71 -2840.6 -203.12 C -2857.8 -167.42 -2875.6 -131.07 -2894.1 -96.038 C -2913.3 -57.043 -2929.8 -18.711 -2944.4 22.306 C -2950.9 40.815 -2950.9 40.815 -2961.6 56.011 C -2974.1 78.404 -2980.7 101.598 -2987.9 125.363 C -2989.3 130.618 -2990.7 135.303 -2991.9 140.558 C -2994.6 151.184 -2997.9 161.01 -3000.5 171.635 C -3004.5 184.203 -3007.8 197.457 -3011.8 210.596 C -3083.8 467.781 -3091.8 741.988 -3045.5 1004.43 C -3015.1 1180.84 -3002.6 1362.61 -2989.3 1541.08 C -2986.7 1581.41 -2982.7 1622.43 -2978.1 1662.64 C -2972.7 1710.97 -2968.9 1759.87 -2965.6 1808.09 C -2954.9 1956.16 -2942.4 2103.55 -2928.5 2250.94 C -2927.2 2258.82 -2926.5 2266.82 -2925.9 2274.7 C -2921.2 2319.03 -2915.3 2363.25 -2908.7 2406.89 C -2904.8 2432.03 -2902 2457.85 -2899.4 2482.87 C -2892.8 2543.08 -2884.2 2601.92 -2874.9 2661.34 C -2872.3 2677.22 -2870.4 2693.78 -2867.7 2709.67 C -2859.8 2762.45 -2850.5 2814.66 -2840 2866.31 C -2838.6 2871.56 -2837.2 2876.82 -2836.7 2882.07 C -2831.3 2907.9 -2825.4 2933.03 -2818.7 2958.17 C -2795 3048.66 -2775.2 3158.34 -2819.4 3244.94 C -2872.3 3332.92 -2950.4 3378.51 -3047.5 3404.21 C -3070 3409.58 -3092.4 3414.84 -3114.9 3419.41 C -3141.3 3425.35 -3167.1 3431.41 -3192.9 3437.35 C -3223.3 3444.55 -3253 3451.17 -3283.4 3457.8 C -3311.9 3464.43 -3339.6 3471.05 -3368.1 3477.56 C -3372.6 3478.25 -3377.3 3479.62 -3382.6 3480.88 C -3483.7 3504.76 -3483.7 3504.76 -3530 3527.15 C -3534.5 3529.78 -3539.2 3531.84 -3543.8 3533.78 C -3611.9 3568.17 -3685.2 3613.76 -3738.1 3669.28 C -3738.1 3673.28 -3738.1 3677.85 -3738.1 3682.53 C -3742.1 3683.79 -3746.1 3685.85 -3750 3687.79 C -3765.2 3695.68 -3773.2 3703.67 -3784.4 3717.5 C -3795.6 3732.12 -3807.6 3744.69 -3820.7 3757.14 C -3839.9 3777.71 -3853.8 3798.85 -3868.4 3821.93 C -3876.3 3835.21 -3876.3 3835.21 -3890.2 3841.15 C -3896.1 3851.09 -3896.1 3851.09 -3902.8 3864.35 C -3904.7 3869.6 -3907.3 3874.17 -3909.3 3878.86 C -3912 3884.11 -3914.7 3888.8 -3916.6 3894.05 C -3921.3 3902.62 -3925.2 3910.62 -3929.9 3919.19 C -3985.4 4026.93 -4042.2 4165.63 -4011.1 4289.26 C -3995.9 4330.96 -3975.4 4369.23 -3935.1 4391.06 C -3918 4397.68 -3900.7 4403.62 -3883.6 4409.57 C -3878.2 4410.94 -3873 4412.88 -3867.7 4414.82 C -3830 4427.39 -3793 4433.33 -3753.3 4438.7 C -3717.7 4443.27 -3681.3 4449.21 -3645.6 4455.84 C -3596 4463.72 -3547.1 4471.72 -3497.5 4478.92 C -3466.6 4482.92 -3436 4487.6 -3405.1 4492.17 C -3399.7 4492.86 -3394.5 4493.54 -3388.5 4494.11 C -3354.8 4499.48 -3321.8 4506.68 -3288.7 4515.36 C -3276.2 4517.31 -3263.6 4519.25 -3251.1 4521.31 C -3157.8 4536.5 -3073.9 4565.52 -2989.3 4606.54 C -2971.5 4614.42 -2971.5 4614.42 -2958.2 4614.42 C -2958.2 4618.42 -2958.2 4623.11 -2958.2 4627.68 C -2947.7 4634.3 -2937.1 4640.93 -2925.9 4647.56 C -2879.6 4675.32 -2842.6 4711.65 -2815.5 4758.5 C -2812.2 4763.18 -2809.6 4767.75 -2806.3 4773.12 C -2802.3 4773.12 -2797.6 4773.12 -2793 4773.12 C -2792.3 4776.43 -2791.7 4780.32 -2791.1 4784.32 C -2786.4 4800.2 -2779.8 4811.4 -2771.2 4825.34 C -2768.6 4829.9 -2765.9 4833.9 -2763.3 4838.47 C -2708.4 4917.19 -2619.1 4936.96 -2529.3 4956.84 C -2446 4977.29 -2370.6 5015 -2310.5 5077.15 C -2300.6 5080.46 -2300.6 5080.46 -2290.7 5083.78 C -2284.1 5094.97 -2284.1 5094.97 -2277.5 5110.17 C -2269.5 5122.74 -2260.9 5135.31 -2253.1 5147.87 C -2206.1 5222.48 -2182.3 5301.77 -2167.7 5388.38 C -2158.5 5440.59 -2136.8 5485.61 -2112.9 5533.14 C -2110.2 5537.14 -2108.3 5541.7 -2106.4 5546.39 C -2091.7 5575.41 -2075.9 5603.86 -2059.4 5632.31 C -2055.4 5632.31 -2050.8 5632.31 -2046.2 5632.31 C -2044.2 5637.56 -2044.2 5637.56 -2041.6 5643.51 C -2030.3 5663.39 -2019.8 5673.32 -1999.9 5685.21 C -1980.1 5681.21 -1980.1 5681.21 -1960.2 5671.95 C -1949 5654.82 -1949 5654.82 -1940.5 5633.56 C -1935.1 5621.68 -1935.1 5621.68 -1930.5 5609.8 C -1918.6 5580.09 -1906.6 5549.7 -1895.5 5519.31 C -1886.2 5495.43 -1874.3 5474.98 -1861.1 5453.84 C -1854.4 5453.84 -1847.9 5453.84 -1841.3 5453.84 C -1812.2 5489.49 -1798.3 5533.14 -1782.5 5576.1 C -1733.6 5703.72 -1733.6 5703.72 -1681.3 5705.66 Z" fill="#000000" style="stroke-width: 1; transform-box: fill-box; transform-origin: 50% 50%;" transform="matrix(-1, 0, 0, -1, -0.000488, 0.000244)"/>
  <path style="stroke: rgb(0, 0, 0);" d="M 454.473 -264.989 C 1634.015 -305.141 1591.439 -516.689 1669.25 -653.091 C 1773.26 -888.627 2066.659 -1336.582 2151.268 -1460.329 C 2378.718 -1792.991 2465.133 -2062.072 2577.444 -2248.773 C 2893.604 -2774.345 3031.787 -2724.457 3306.352 -2646.561 C 3406.418 -2618.172 3158.116 -2333.636 2994.565 -2079.791 C 2855.29 -1863.622 2630.089 -1487.806 2491.891 -1162.085 C 2061.625 -147.986 2081.662 -147.326 1901.981 57.059 C 1776.679 199.589 1495.115 290.347 409.61 200.08"/>
  <path style="stroke-width: 1500; stroke: rgb(255, 0, 0); fill: rgb(255, 255, 255); transform-box: fill-box; transform-origin: 50% 50%;" d="M -6000 6000 L 6000 -6000" transform="matrix(0.139173, 0.990268, -0.990268, 0.139173, 0, 0)"/>
  <path d="M 3878.49 -2647.6 C 4066.36 -2647.9 4066.36 -2647.9 4145.31 -2647.9 C 4163.38 -2647.9 4181.45 -2647.9 4199.5 -2647.9 C 4201.78 -2647.9 4204.04 -2647.9 4206.36 -2647.9 C 4242.73 -2647.9 4279.08 -2647.9 4315.44 -2647.9 C 4352.85 -2648.1 4390.27 -2648.1 4427.7 -2648.1 C 4450.72 -2648.1 4473.73 -2648.1 4496.76 -2648.1 C 4512.62 -2648.1 4528.48 -2648.1 4544.36 -2648.1 C 4553.47 -2648.1 4562.56 -2648.1 4571.65 -2648.1 C 4618.08 -2648.2 4664.31 -2647 4710.68 -2644.9 C 4728.92 -2643.9 4747.18 -2643.4 4765.44 -2642.8 C 4767.51 -2642.8 4769.57 -2642.8 4771.69 -2642.5 C 4776.33 -2642.4 4780.95 -2642.4 4785.58 -2642.2 C 4789 -2642 4792.43 -2642 4795.85 -2641.8 C 4797.56 -2641.8 4799.28 -2641.8 4801.06 -2641.7 C 4810.26 -2641.5 4819.45 -2641.2 4828.67 -2641 C 4851.88 -2640.3 4875.12 -2639.6 4898.35 -2638.8 C 4923.47 -2638.2 4948.58 -2637.2 4973.7 -2636.6 C 4982.73 -2636.4 4991.79 -2636.1 5000.84 -2635.6 C 5019.19 -2635.1 5037.52 -2634.6 5055.87 -2634.1 C 5066.74 -2633.7 5077.62 -2633.4 5088.51 -2633 C 5096.24 -2632.9 5103.99 -2632.7 5111.73 -2632.4 C 5115.42 -2632.1 5119.11 -2632.1 5122.8 -2631.9 C 5142.64 -2631.6 5159.45 -2631.1 5177.12 -2621.2 C 5178.48 -2620.5 5179.86 -2619.8 5181.27 -2619.1 C 5184.82 -2617.2 5188.24 -2615.2 5191.68 -2613.1 C 5192.93 -2612.4 5194.18 -2611.7 5195.48 -2610.8 C 5215.9 -2598.5 5238.3 -2583.4 5253.77 -2565.1 C 5256.86 -2561.4 5260.05 -2557.7 5263.32 -2554.1 C 5314.77 -2499.3 5330.89 -2425.9 5328.87 -2353 C 5325.77 -2283.3 5287.66 -2218.9 5237.89 -2172.5 C 5209.89 -2147.8 5178.57 -2130.9 5143.6 -2118.3 C 5141.57 -2117.6 5139.54 -2116.8 5137.44 -2116 C 5105.93 -2105.5 5073.69 -2105.1 5040.81 -2105.3 C 5034.59 -2105.3 5028.38 -2105.3 5022.17 -2105.3 C 5011.32 -2105.3 5000.47 -2105.3 4989.62 -2105.3 C 4973.49 -2105.3 4957.35 -2105.3 4941.22 -2105.3 C 4914.06 -2105.3 4886.91 -2105.3 4859.75 -2105.5 C 4832.9 -2105.5 4806.02 -2105.5 4779.16 -2105.5 C 4776.65 -2105.5 4776.65 -2105.5 4774.09 -2105.5 C 4765.59 -2105.5 4757.1 -2105.5 4748.59 -2105.5 C 4688.47 -2105.5 4628.35 -2105.5 4568.21 -2105.6 C 4509.83 -2105.6 4451.43 -2105.6 4393.04 -2105.6 C 4389.37 -2105.6 4385.68 -2105.6 4382.02 -2105.6 C 4352.16 -2105.6 4322.29 -2105.6 4292.43 -2105.6 C 4154.45 -2105.8 4016.47 -2105.8 3878.49 -2106 C 3878.49 -2284.7 3878.49 -2463.5 3878.49 -2647.6 Z M 2328.84 -2647.9 C 2330.47 -2647.9 2332.11 -2647.9 2333.8 -2647.9 C 2339.29 -2647.9 2344.76 -2647.9 2350.25 -2647.9 C 2354.22 -2647.9 2358.19 -2647.9 2362.16 -2647.9 C 2373.06 -2647.9 2383.98 -2647.9 2394.86 -2647.9 C 2405.44 -2647.9 2415.97 -2647.9 2426.54 -2647.9 C 2448.12 -2647.9 2469.71 -2647.9 2491.32 -2647.9 C 2512.66 -2647.9 2534.04 -2647.9 2555.41 -2647.9 C 2556.74 -2647.9 2558.08 -2647.9 2559.42 -2647.9 C 2566.18 -2647.9 2572.94 -2647.9 2579.69 -2647.9 C 2627.49 -2647.9 2675.29 -2647.9 2723.11 -2647.9 C 2769.53 -2647.6 2815.97 -2647.6 2862.39 -2647.6 C 2865.32 -2647.6 2868.25 -2647.6 2871.18 -2647.6 C 2894.89 -2647.6 2918.62 -2647.6 2942.36 -2647.6 C 3052.1 -2647.6 3161.82 -2647.6 3271.53 -2647.6 C 3271.53 -2469 3271.53 -2290.2 3271.53 -2106 C 3029.88 -2105.8 3029.88 -2105.8 2937.22 -2105.6 C 2913.03 -2105.6 2888.78 -2105.6 2864.58 -2105.6 C 2861.63 -2105.6 2858.7 -2105.6 2855.78 -2105.6 C 2809.12 -2105.6 2762.45 -2105.6 2715.78 -2105.6 C 2667.78 -2105.5 2619.82 -2105.5 2571.83 -2105.5 C 2565.05 -2105.5 2558.24 -2105.5 2551.46 -2105.5 C 2550.14 -2105.5 2548.8 -2105.5 2547.42 -2105.5 C 2525.97 -2105.5 2504.51 -2105.5 2483.07 -2105.5 C 2461.48 -2105.3 2439.86 -2105.3 2418.3 -2105.3 C 2406.58 -2105.3 2394.92 -2105.3 2383.21 -2105.3 C 2372.51 -2105.3 2361.79 -2105.3 2351.05 -2105.3 C 2347.21 -2105.3 2343.33 -2105.3 2339.46 -2105.3 C 2267 -2105 2200.57 -2128 2147.56 -2178.3 C 2146.68 -2179.2 2145.8 -2179.9 2144.9 -2180.8 C 2113.59 -2210.3 2091.51 -2245.5 2076.99 -2286 C 2076.33 -2287.8 2075.67 -2289.5 2075 -2291.4 C 2064.66 -2320.7 2062.57 -2349.5 2062.57 -2380.2 C 2062.52 -2382.5 2062.5 -2384.9 2062.5 -2387.2 C 2062.45 -2411 2066.39 -2432.6 2073.46 -2455.4 C 2074.11 -2457.5 2074.74 -2459.6 2075.38 -2461.7 C 2086.16 -2496.3 2104.5 -2526.8 2128.16 -2554.1 C 2129.46 -2555.6 2130.77 -2557.2 2132.09 -2558.8 C 2169.85 -2601.8 2221.9 -2630.9 2277.84 -2642.8 C 2279.15 -2643.1 2280.5 -2643.4 2281.89 -2643.6 C 2297.47 -2646.8 2312.96 -2647.9 2328.84 -2647.9 Z M 3657.94 -2383 C 3672.5 -2383 3687.05 -2383 3702.05 -2383 C 3702.05 -2291.6 3702.05 -2200.2 3702.05 -2106 C 3687.5 -2106 3672.94 -2106 3657.94 -2106 C 3657.94 -2197.4 3657.94 -2288.8 3657.94 -2383 Z M 3447.97 -2383 C 3459.62 -2383 3471.27 -2383 3483.26 -2383 C 3483.26 -2291.6 3483.26 -2200.2 3483.26 -2106 C 3471.62 -2106 3459.97 -2106 3447.97 -2106 C 3447.97 -2197.4 3447.97 -2288.8 3447.97 -2383 Z M 3657.94 -2647.6 C 3672.5 -2647.6 3687.05 -2647.6 3702.05 -2647.6 C 3702.05 -2575.5 3702.05 -2503.2 3702.05 -2428.9 C 3687.5 -2428.9 3672.94 -2428.9 3657.94 -2428.9 C 3657.94 -2501 3657.94 -2573.2 3657.94 -2647.6 Z M 3447.97 -2647.6 C 3459.62 -2647.6 3471.27 -2647.6 3483.26 -2647.6 C 3483.26 -2575.5 3483.26 -2503.2 3483.26 -2428.9 C 3471.62 -2428.9 3459.97 -2428.9 3447.97 -2428.9 C 3447.97 -2501 3447.97 -2573.2 3447.97 -2647.6 Z M 6310.75 -3286.4 C 6312.1 -3286.3 6313.35 -3286.3 6314.7 -3286.1 C 6320.91 -3283.7 6323.51 -3281.1 6327.54 -3275.8 C 6328.8 -3269.6 6328.63 -3263.7 6328.46 -3257.5 C 6328.46 -3255.7 6328.46 -3253.8 6328.46 -3251.8 C 6328.38 -3245.3 6328.29 -3238.7 6328.21 -3232.2 C 6328.13 -3227.7 6328.13 -3222.9 6328.13 -3218.1 C 6328.04 -3207.4 6327.88 -3196.8 6327.79 -3186 C 6327.54 -3168.5 6327.37 -3151 6327.2 -3133.4 C 6326.78 -3088.8 6326.36 -3044.1 6325.86 -2999.7 C 6325.52 -2972.7 6325.27 -2945.8 6324.94 -2919.1 C 6324.85 -2910.1 6324.77 -2901 6324.69 -2892 C 6323.85 -2817.4 6323.76 -2742.8 6324.69 -2667.9 C 6324.85 -2659.5 6324.94 -2651.2 6325.02 -2642.8 C 6325.36 -2616.1 6325.61 -2589.5 6325.94 -2562.6 C 6326.53 -2514.4 6327.12 -2466.3 6327.45 -2418.1 C 6327.54 -2413 6327.62 -2407.9 6327.62 -2402.7 C 6327.79 -2384.6 6327.96 -2366.4 6328.04 -2348.3 C 6328.04 -2340.5 6328.13 -2332.9 6328.21 -2325.4 C 6328.21 -2318.5 6328.29 -2311.3 6328.29 -2304.3 C 6328.29 -2301.9 6328.29 -2299.2 6328.29 -2296.7 C 6328.38 -2293.2 6328.38 -2289.9 6328.38 -2286.3 C 6328.38 -2284.4 6328.38 -2282.5 6328.38 -2280.5 C 6327.12 -2273.1 6323.26 -2268.7 6317.38 -2264.1 C 6311.01 -2262.3 6305.47 -2262.7 6299.34 -2264.8 C 6290.02 -2271.6 6284.57 -2283.6 6278.69 -2293.5 C 6265.77 -2314.5 6250.91 -2333.7 6234.55 -2352.1 C 6231.52 -2355.7 6228.59 -2359 6225.65 -2362.5 C 6219.35 -2369.6 6212.56 -2376.3 6205.76 -2383 C 6201.48 -2387.2 6197.2 -2391.7 6192.92 -2395.9 C 6182.51 -2406.7 6171.6 -2416 6159.93 -2425.4 C 6158 -2426.9 6156.16 -2428.5 6154.23 -2430.1 C 6123.59 -2455.4 6090.78 -2477 6055.78 -2495.9 C 6053.34 -2497.2 6053.34 -2497.2 6050.91 -2498.6 C 5962.78 -2546.1 5868.11 -2576.2 5770 -2594.8 C 5768.74 -2594.9 5767.4 -2595.3 5766.06 -2595.4 C 5734.58 -2601.3 5703.03 -2606 5671.13 -2609.2 C 5669.88 -2609.4 5668.53 -2609.5 5667.19 -2609.7 C 5599.12 -2616.6 5530.47 -2617.3 5462.15 -2619.4 C 5444.44 -2619.9 5426.65 -2620.5 5408.94 -2621 C 5400.72 -2621.2 5392.49 -2621.5 5384.27 -2621.7 C 5379.98 -2621.9 5375.7 -2622.1 5371.43 -2622.1 C 5369.49 -2622.3 5367.65 -2622.3 5365.63 -2622.3 C 5354.47 -2622.6 5343.48 -2623.5 5332.4 -2624.7 C 5333.66 -2623.1 5334.92 -2621.4 5336.26 -2619.8 C 5340.71 -2614.2 5345.07 -2608.7 5349.44 -2603.1 C 5351.28 -2600.7 5353.04 -2598.5 5354.81 -2596.2 C 5385.78 -2556.7 5406.51 -2508.1 5418.34 -2459.6 C 5418.68 -2458.2 5419.01 -2456.8 5419.35 -2455.2 C 5424.97 -2431.4 5426.48 -2408.3 5426.31 -2383.9 C 5426.31 -2381.6 5426.31 -2381.6 5426.31 -2379.3 C 5426.06 -2326.9 5418.43 -2279.8 5397.69 -2231.3 C 5397.11 -2229.8 5396.44 -2228.4 5395.85 -2226.8 C 5378.48 -2186.8 5353.8 -2151.5 5323.59 -2120.1 C 5322.24 -2118.7 5322.24 -2118.7 5320.9 -2117.3 C 5283.3 -2077.8 5237.08 -2048.8 5186.16 -2029.8 C 5183.06 -2028.5 5179.97 -2027.3 5176.88 -2026.1 C 5131.36 -2008.6 5081.85 -2006.1 5033.62 -2006.3 C 5028.59 -2006.3 5023.57 -2006.3 5018.56 -2006.3 C 5007.74 -2006.3 4996.92 -2006.3 4986.11 -2006.3 C 4970.01 -2006.3 4953.94 -2006.3 4937.85 -2006.3 C 4910.78 -2006.3 4883.72 -2006.3 4856.65 -2006.5 C 4829.87 -2006.5 4803.1 -2006.5 4776.33 -2006.5 C 4774.66 -2006.5 4773 -2006.5 4771.27 -2006.5 C 4762.8 -2006.5 4754.31 -2006.5 4745.82 -2006.5 C 4685.89 -2006.5 4625.95 -2006.5 4566.01 -2006.7 C 4507.82 -2006.7 4449.61 -2006.7 4391.42 -2006.8 C 4389.62 -2006.8 4387.82 -2006.8 4385.97 -2006.8 C 4367.93 -2006.8 4349.89 -2006.8 4331.84 -2006.8 C 4295.08 -2006.8 4258.33 -2006.8 4221.6 -2006.8 C 4219.9 -2006.8 4218.2 -2006.8 4216.46 -2006.8 C 4103.82 -2007 3991.16 -2007 3878.49 -2007.2 C 3878.48 -1982.8 3878.53 -1958.5 3878.64 -1934 C 3878.69 -1922.7 3878.73 -1911.3 3878.7 -1900.1 C 3878.69 -1889.2 3878.75 -1878.2 3878.81 -1867.3 C 3878.83 -1863.2 3878.83 -1859 3878.81 -1854.8 C 3878.8 -1848.9 3878.83 -1843.1 3878.91 -1837.3 C 3878.86 -1835.5 3878.85 -1834 3878.83 -1832.2 C 3879.02 -1821.2 3881.23 -1815.4 3888.42 -1807.3 C 3895.01 -1799.1 3893.46 -1787.5 3892.61 -1777.8 C 3889.54 -1766.1 3881.31 -1757.8 3871.44 -1751.4 C 3863.14 -1748 3855.59 -1747.3 3846.75 -1747.3 C 3844.69 -1747.3 3844.69 -1747.3 3842.59 -1747.3 C 3838.07 -1747.3 3833.58 -1747.3 3829.06 -1747.1 C 3825.9 -1747.1 3822.74 -1747.1 3819.59 -1747.1 C 3812.98 -1747.1 3806.37 -1747.1 3799.77 -1747.1 C 3791.34 -1747.1 3782.88 -1747.1 3774.45 -1747.1 C 3767.94 -1746.9 3761.41 -1746.9 3754.9 -1746.9 C 3751.79 -1746.9 3748.69 -1746.9 3745.56 -1746.9 C 3741.2 -1746.9 3736.85 -1746.9 3732.49 -1746.9 C 3731.22 -1746.9 3729.95 -1746.9 3728.64 -1746.9 C 3717.37 -1746.9 3708.34 -1750.8 3699.86 -1758.2 C 3698.91 -1759.4 3697.96 -1760.7 3696.97 -1761.8 C 3696 -1762.9 3695.03 -1764 3694.03 -1765.3 C 3686.75 -1775.9 3686.59 -1786.6 3687.93 -1799 C 3690 -1805.3 3692.56 -1811 3697.73 -1815.4 C 3701.01 -1819.3 3700.96 -1821.2 3700.99 -1826.1 C 3701.03 -1828.7 3701.03 -1828.7 3701.06 -1830.9 C 3701.05 -1833.5 3701.05 -1833.5 3701.05 -1836.2 C 3701.09 -1839.1 3701.09 -1839.1 3701.1 -1841.8 C 3701.15 -1848.1 3701.17 -1854 3701.19 -1860.2 C 3701.22 -1864.4 3701.26 -1868.7 3701.3 -1872.9 C 3701.36 -1884.1 3701.41 -1895.1 3701.47 -1906.3 C 3701.52 -1917.5 3701.62 -1929 3701.68 -1940.3 C 3701.84 -1962.5 3701.94 -1984.9 3702.05 -2007.2 C 3687.5 -2007.2 3672.94 -2007.2 3657.94 -2007.2 C 3657.94 -1982.8 3657.98 -1958.3 3658.08 -1934 C 3658.13 -1922.7 3658.17 -1911.3 3658.15 -1899.9 C 3658.13 -1889 3658.19 -1878 3658.26 -1867.1 C 3658.28 -1863 3658.28 -1858.8 3658.26 -1854.6 C 3658.24 -1848.7 3658.28 -1842.9 3658.35 -1837.1 C 3658.32 -1835.3 3658.29 -1833.7 3658.28 -1831.8 C 3658.47 -1821.4 3660.21 -1815.9 3667.78 -1808.5 C 3673.35 -1802.9 3673.74 -1796.4 3674.49 -1788.7 C 3674.2 -1778.1 3669.16 -1769.5 3663.91 -1760.5 C 3648.35 -1745.9 3630.21 -1746.6 3610.09 -1746.7 C 3606.99 -1746.7 3603.88 -1746.7 3600.79 -1746.6 C 3594.31 -1746.6 3587.86 -1746.7 3581.4 -1746.7 C 3573.15 -1746.7 3564.91 -1746.7 3556.66 -1746.7 C 3550.26 -1746.7 3543.87 -1746.7 3537.49 -1746.7 C 3534.45 -1746.7 3531.42 -1746.7 3528.38 -1746.7 C 3492.62 -1746.7 3492.62 -1746.7 3479.93 -1757.7 C 3471.39 -1766.6 3467.26 -1777.1 3466.61 -1789.3 C 3466.93 -1797.8 3469.66 -1804.4 3474.44 -1811.3 C 3475.62 -1812.2 3476.82 -1813.1 3478.04 -1814 C 3483.46 -1820.9 3482.5 -1827.9 3482.47 -1836.6 C 3482.49 -1838.3 3482.5 -1840.1 3482.52 -1842 C 3482.57 -1848.2 3482.57 -1854.2 3482.57 -1860.4 C 3482.6 -1864.6 3482.63 -1868.9 3482.66 -1873.1 C 3482.73 -1884.2 3482.77 -1895.3 3482.81 -1906.5 C 3482.84 -1917.7 3482.91 -1929 3482.98 -1940.3 C 3483.13 -1962.7 3483.19 -1984.9 3483.26 -2007.2 C 3471.62 -2007.2 3459.97 -2007.2 3447.97 -2007.2 C 3448.01 -1982.7 3448.08 -1958.3 3448.2 -1933.7 C 3448.28 -1922.5 3448.31 -1911.2 3448.33 -1899.9 C 3448.33 -1888.8 3448.38 -1877.8 3448.45 -1866.9 C 3448.49 -1862.8 3448.49 -1858.6 3448.49 -1854.3 C 3448.47 -1848.6 3448.52 -1842.8 3448.57 -1836.9 C 3448.55 -1835.1 3448.54 -1833.4 3448.52 -1831.6 C 3448.71 -1820.5 3450.53 -1815.6 3458.56 -1807.8 C 3464.37 -1798.8 3463.22 -1788 3462.09 -1777.8 C 3458.81 -1766.9 3453.74 -1759.1 3444.16 -1753 C 3435.36 -1748.5 3428.02 -1747.3 3418.17 -1747.3 C 3416.8 -1747.3 3415.42 -1747.3 3414.01 -1747.3 C 3409.48 -1747.3 3404.94 -1747.3 3400.41 -1747.3 C 3397.25 -1747.3 3394.07 -1747.3 3390.91 -1747.3 C 3384.3 -1747.3 3377.66 -1747.3 3371.05 -1747.3 C 3362.58 -1747.3 3354.11 -1747.3 3345.63 -1747.1 C 3339.11 -1747.1 3332.58 -1747.1 3326.05 -1747.1 C 3322.93 -1747.1 3319.81 -1747.1 3316.68 -1747.1 C 3312.3 -1747.1 3307.93 -1747.1 3303.55 -1747.1 C 3302.28 -1747.1 3301 -1747.1 3299.69 -1747.1 C 3286.63 -1747.3 3276.79 -1751.9 3267.26 -1760.7 C 3258.19 -1770.6 3256.18 -1780.5 3256.6 -1793.7 C 3258.12 -1803.6 3262.8 -1811.3 3269.77 -1818.4 C 3270.32 -1821.9 3270.32 -1821.9 3270.26 -1826 C 3270.3 -1828.2 3270.3 -1828.2 3270.32 -1830.8 C 3270.33 -1833.4 3270.33 -1833.4 3270.33 -1836 C 3270.35 -1838.8 3270.35 -1838.8 3270.38 -1841.7 C 3270.43 -1847.9 3270.47 -1853.8 3270.49 -1860.1 C 3270.53 -1864.2 3270.56 -1868.5 3270.59 -1872.7 C 3270.68 -1883.9 3270.75 -1895 3270.83 -1906 C 3270.89 -1917.5 3270.99 -1928.9 3271.07 -1940.1 C 3271.25 -1962.5 3271.39 -1984.8 3271.53 -2007.2 C 3268.48 -2007.2 3268.48 -2007.2 3265.37 -2007.2 C 3175.83 -2007 3086.26 -2007 2996.7 -2007 C 2994.67 -2007 2994.67 -2007 2992.59 -2007 C 2963.09 -2006.8 2933.57 -2006.8 2904.07 -2006.8 C 2889.6 -2006.8 2875.11 -2006.8 2860.64 -2006.8 C 2859.22 -2006.8 2857.76 -2006.8 2856.29 -2006.8 C 2809.67 -2006.8 2763.05 -2006.8 2716.44 -2006.8 C 2668.51 -2006.7 2620.57 -2006.7 2572.65 -2006.7 C 2565.88 -2006.7 2559.09 -2006.7 2552.31 -2006.7 C 2550.96 -2006.7 2549.65 -2006.7 2548.27 -2006.7 C 2526.85 -2006.7 2505.43 -2006.7 2484.01 -2006.7 C 2462.43 -2006.5 2440.87 -2006.5 2419.29 -2006.5 C 2407.61 -2006.5 2395.95 -2006.5 2384.26 -2006.5 C 2373.56 -2006.5 2362.85 -2006.5 2352.14 -2006.5 C 2348.28 -2006.5 2344.44 -2006.5 2340.58 -2006.5 C 2308.02 -2006.3 2275.13 -2008.3 2243.64 -2017.3 C 2241.98 -2017.6 2240.32 -2018.1 2238.62 -2018.5 C 2181.18 -2034.7 2130.56 -2061.9 2086.48 -2102.1 C 2082.79 -2105.5 2079.03 -2108.6 2075.24 -2112 C 2012.03 -2167.4 1973.12 -2256.1 1965.85 -2338.9 C 1965.55 -2344.7 1965.44 -2350.5 1965.37 -2356.6 C 1965.34 -2358.2 1965.32 -2359.7 1965.3 -2361.4 C 1964.89 -2397.6 1964.81 -2432.6 1974.67 -2467.7 C 1975.21 -2469.6 1975.74 -2471.6 1976.31 -2473.5 C 1998.29 -2549.8 2043.18 -2620.7 2107 -2668.9 C 2108.55 -2670 2108.55 -2670 2110.12 -2671.1 C 2174.8 -2720 2174.8 -2720 2202.28 -2720 C 2202.28 -2721.1 2202.28 -2722.3 2202.28 -2723.5 C 2199.37 -2723.5 2199.37 -2723.5 2196.39 -2723.5 C 2188.98 -2723.5 2181.57 -2723.3 2174.16 -2723.3 C 2170.99 -2723.3 2167.82 -2723.3 2164.64 -2723.3 C 2146.49 -2723.3 2128.4 -2723.5 2110.26 -2724.6 C 2095.32 -2725.3 2080.36 -2725.7 2065.41 -2726 C 2064.07 -2726.2 2062.75 -2726.2 2061.39 -2726.2 C 2052.96 -2726.4 2044.52 -2726.5 2036.09 -2726.9 C 2022.48 -2727.3 2008.88 -2727.5 1995.27 -2727.8 C 1993.74 -2728 1992.23 -2728 1990.66 -2728 C 1969 -2728.5 1947.35 -2729.2 1925.72 -2729.9 C 1924.42 -2729.9 1923.09 -2729.9 1921.75 -2729.9 C 1910.53 -2730.2 1899.31 -2730.6 1888.07 -2731 C 1863.82 -2731.8 1839.59 -2732.6 1815.32 -2732.7 C 1813.31 -2732.7 1811.28 -2732.9 1809.19 -2732.9 C 1791.27 -2732.9 1778.65 -2728.6 1763.71 -2719.1 C 1721.89 -2693.7 1675.38 -2678.2 1628.29 -2665.9 C 1625.77 -2665.2 1625.77 -2665.2 1623.19 -2664.4 C 1613.67 -2662.2 1602.91 -2659.5 1593.55 -2663.6 C 1586.49 -2669.9 1584.17 -2674 1583.61 -2683.5 C 1583.58 -2687.3 1583.58 -2691.1 1583.61 -2695 C 1583.6 -2698.2 1583.6 -2698.2 1583.58 -2701.4 C 1583.54 -2707 1583.56 -2712.6 1583.6 -2718.4 C 1583.63 -2724.4 1583.61 -2730.2 1583.6 -2736.3 C 1583.6 -2746.3 1583.63 -2756.3 1583.67 -2766.4 C 1583.74 -2778.1 1583.74 -2789.6 1583.7 -2801.1 C 1583.67 -2812.3 1583.69 -2823.4 1583.72 -2834.7 C 1583.72 -2839.5 1583.72 -2844.2 1583.7 -2848.8 C 1583.7 -2855.5 1583.74 -2862.2 1583.79 -2868.8 C 1583.77 -2870.7 1583.75 -2872.7 1583.75 -2874.7 C 1583.91 -2888 1583.91 -2888 1588.09 -2894.9 C 1592.86 -2899.1 1596.13 -2901.6 1602.6 -2901.9 C 1660.76 -2895.1 1719.37 -2871.4 1769.11 -2841.3 C 1770.42 -2840.3 1771.74 -2839.7 1773.1 -2838.7 C 1774.81 -2837.7 1774.81 -2837.7 1776.57 -2836.6 C 1786.68 -2831.7 1796.48 -2830.7 1807.58 -2830.7 C 1808.98 -2830.7 1810.39 -2830.7 1811.86 -2830.7 C 1816.57 -2830.7 1821.31 -2830.7 1826.01 -2830.7 C 1828.5 -2830.7 1828.5 -2830.7 1831.06 -2830.7 C 1861.18 -2830.9 1891.24 -2831.9 1921.35 -2833.1 C 1960.87 -2834.9 2000.41 -2836 2039.95 -2836.8 C 2046.69 -2837 2053.43 -2837.1 2060.18 -2837.3 C 2062.13 -2837.3 2062.13 -2837.3 2064.13 -2837.6 C 2080.64 -2837.9 2097.14 -2838.6 2113.65 -2839.3 C 2131.81 -2840.2 2149.98 -2840.7 2168.16 -2841.1 C 2216.15 -2842.3 2264.14 -2843.7 2312.12 -2845.5 C 2374.12 -2847.6 2436.14 -2849.7 2498.16 -2851.5 C 2499.99 -2851.5 2501.85 -2851.5 2503.75 -2851.7 C 2533.96 -2852.5 2564.17 -2853.4 2594.37 -2854.3 C 2622.66 -2855 2650.94 -2855.9 2679.22 -2856.8 C 2681.98 -2856.8 2681.98 -2856.8 2684.8 -2857 C 2750.02 -2858.9 2815.21 -2861 2880.41 -2863.3 C 2881.87 -2863.3 2883.34 -2863.3 2884.86 -2863.5 C 2887.76 -2863.5 2890.66 -2863.7 2893.55 -2863.7 C 2920.95 -2864.7 2948.36 -2865.6 2975.78 -2866.3 C 2977.2 -2866.3 2978.63 -2866.4 2980.12 -2866.4 C 2985.67 -2866.6 2991.23 -2866.9 2996.79 -2867 C 3025.67 -2867.9 3054.53 -2868.8 3083.42 -2869.6 C 3092.35 -2870 3101.28 -2870.1 3110.2 -2870.6 C 3112.11 -2870.6 3112.11 -2870.6 3114.07 -2870.6 C 3120.58 -2870.9 3127.09 -2871.1 3133.6 -2871.2 C 3147.79 -2871.6 3161.97 -2872.1 3176.16 -2872.7 C 3186.04 -2872.8 3195.92 -2873.2 3205.81 -2873.5 C 3211.57 -2873.7 3217.32 -2873.9 3223.1 -2874.1 C 3256.92 -2875.1 3290.58 -2875.3 3324.47 -2875.3 C 3324.47 -2920.7 3324.47 -2966.1 3324.47 -3012.9 C 3318.06 -3012.9 3311.65 -3012.9 3305.05 -3012.9 C 3293.87 -3018.4 3285.62 -3024.9 3280.16 -3036.4 C 3277.05 -3045.7 3276.84 -3056.7 3279.73 -3066 C 3285.43 -3076.9 3295.28 -3084.9 3306.82 -3088.8 C 3312.32 -3089.4 3312.32 -3089.4 3318.55 -3089.4 C 3319.7 -3089.4 3320.85 -3089.4 3322.01 -3089.4 C 3325.78 -3089.4 3329.54 -3089.4 3333.3 -3089.5 C 3335.95 -3089.5 3338.58 -3089.5 3341.21 -3089.5 C 3346.73 -3089.5 3352.26 -3089.5 3357.78 -3089.5 C 3364.82 -3089.5 3371.84 -3089.7 3378.88 -3089.7 C 3384.33 -3089.7 3389.76 -3089.7 3395.22 -3089.7 C 3397.81 -3089.7 3400.39 -3089.9 3402.98 -3089.9 C 3419.69 -3090 3434.37 -3088.9 3447.34 -3077.4 C 3455.79 -3068 3457.71 -3058.5 3457.47 -3046 C 3456.06 -3035.5 3450.6 -3027 3442.68 -3019.9 C 3431.44 -3012.4 3427.68 -3012.9 3412.68 -3012.9 C 3412.68 -2968.7 3412.68 -2924.4 3412.68 -2878.8 C 3433.78 -2879.9 3433.78 -2879.9 3454.86 -2881.1 C 3480.31 -2882.6 3505.28 -2882.4 3530.91 -2882.4 C 3530.91 -2925.4 3530.91 -2968.4 3530.91 -3012.9 C 3526.83 -3012.9 3522.75 -3012.9 3518.55 -3012.9 C 3507.75 -3015.9 3499.9 -3023 3493.85 -3032.3 C 3488.97 -3042.5 3488.34 -3053.7 3491.47 -3064.6 C 3496.03 -3074.7 3503.57 -3082.2 3513.59 -3087 C 3519.47 -3089.1 3524.32 -3089.4 3530.49 -3089.4 C 3532.26 -3089.4 3532.26 -3089.4 3534.04 -3089.4 C 3537.87 -3089.4 3541.72 -3089.4 3545.55 -3089.4 C 3548.23 -3089.4 3550.91 -3089.4 3553.59 -3089.4 C 3559.22 -3089.5 3564.83 -3089.5 3570.46 -3089.5 C 3577.63 -3089.5 3584.8 -3089.5 3591.97 -3089.5 C 3597.51 -3089.5 3603.05 -3089.5 3608.61 -3089.5 C 3611.23 -3089.5 3613.89 -3089.7 3616.53 -3089.7 C 3632.57 -3089.9 3645.36 -3089.7 3657.98 -3078.5 C 3659.16 -3077.1 3659.16 -3077.1 3660.37 -3075.6 C 3661.19 -3074.5 3662 -3073.6 3662.83 -3072.6 C 3669.78 -3062.3 3669.75 -3053.2 3668.53 -3041.2 C 3665.49 -3030.2 3658.51 -3022.6 3649.12 -3016.4 C 3640.3 -3012.9 3640.3 -3012.9 3619.12 -3012.9 C 3619.12 -2970.9 3619.12 -2929.1 3619.12 -2885.9 C 3646.83 -2886.9 3646.83 -2886.9 3674.55 -2888.2 C 3678.12 -2888.3 3681.71 -2888.5 3685.29 -2888.5 C 3687.02 -2888.7 3688.75 -2888.7 3690.51 -2888.8 C 3710.86 -2889.6 3731.04 -2889.4 3751.46 -2889.4 C 3751.46 -2930.1 3751.46 -2970.9 3751.46 -3012.9 C 3743.89 -3012.9 3736.32 -3012.9 3728.52 -3012.9 C 3717.1 -3017.3 3707.57 -3026.5 3702.05 -3037.7 C 3701.73 -3041.8 3701.57 -3046 3701.51 -3050.3 C 3701.44 -3052.6 3701.36 -3054.9 3701.3 -3057.4 C 3702.44 -3067.4 3707.52 -3074 3715.18 -3080.3 C 3716.15 -3081.2 3717.14 -3082.1 3718.14 -3083 C 3725.89 -3088.3 3732.79 -3089.1 3742.07 -3089.4 C 3743.8 -3089.4 3743.8 -3089.4 3745.56 -3089.4 C 3749.34 -3089.4 3753.11 -3089.4 3756.89 -3089.4 C 3759.53 -3089.4 3762.19 -3089.4 3764.83 -3089.4 C 3770.35 -3089.5 3775.89 -3089.5 3781.43 -3089.5 C 3788.51 -3089.5 3795.57 -3089.5 3802.62 -3089.5 C 3808.1 -3089.5 3813.55 -3089.5 3819.01 -3089.5 C 3821.61 -3089.5 3824.23 -3089.7 3826.82 -3089.7 C 3843.86 -3089.9 3855.62 -3088.8 3869.23 -3077.7 C 3877.33 -3067.8 3881.73 -3058.8 3881.18 -3045.7 C 3879.04 -3035.1 3872.8 -3026.7 3865.27 -3019.1 C 3856.3 -3013.7 3850.29 -3012.9 3839.68 -3012.9 C 3839.68 -2973.2 3839.68 -2933.7 3839.68 -2893 C 3858.74 -2893.5 3877.77 -2894.1 3897.41 -2894.7 C 3909.64 -2895.2 3921.85 -2895.6 3934.07 -2895.9 C 3953.38 -2896.7 3972.7 -2897.2 3992 -2897.9 C 4006.08 -2898.2 4020.17 -2898.8 4034.24 -2899.1 C 4041.65 -2899.4 4049.08 -2899.7 4056.49 -2900 C 4064.88 -2900.2 4073.28 -2900.5 4081.65 -2900.7 C 4083.01 -2900.7 4084.36 -2900.9 4085.75 -2900.9 C 4101.74 -2901.4 4117.72 -2901.8 4133.69 -2902.1 C 4136.06 -2902.3 4136.06 -2902.3 4138.46 -2902.3 C 4145.98 -2902.4 4153.5 -2902.6 4161.03 -2902.8 C 4176.11 -2903.2 4191.12 -2903.7 4206.17 -2904.5 C 4216.85 -2905.3 4227.5 -2905.6 4238.2 -2906 C 4240.97 -2906 4240.97 -2906 4243.79 -2906 C 4247.72 -2906.1 4251.66 -2906.3 4255.6 -2906.3 C 4261.87 -2906.6 4268.14 -2906.7 4274.4 -2906.9 C 4289.95 -2907.2 4305.51 -2907.7 4321.05 -2908.1 C 4334.25 -2908.5 4347.45 -2908.8 4360.63 -2909.2 C 4366.75 -2909.3 4372.88 -2909.5 4378.98 -2909.5 C 4396.89 -2910.1 4414.75 -2910.6 4432.62 -2911.6 C 4442.96 -2912.3 4453.28 -2912.7 4463.62 -2912.9 C 4465.38 -2912.9 4467.15 -2912.9 4468.97 -2912.9 C 4476.31 -2913 4483.63 -2913.2 4490.97 -2913.2 C 4516.84 -2913.8 4516.84 -2913.8 4542.68 -2915 C 4557.17 -2915.9 4571.65 -2916.2 4586.16 -2916.5 C 4587.4 -2916.5 4588.63 -2916.5 4589.9 -2916.7 C 4596.46 -2917 4603.04 -2917.1 4609.63 -2917.1 C 4661.98 -2918.5 4714.33 -2920.1 4766.68 -2921.8 C 4824.08 -2924 4881.49 -2925.8 4938.92 -2927.4 C 4940.83 -2927.5 4942.73 -2927.5 4944.69 -2927.5 C 4954.15 -2927.9 4963.62 -2928.2 4973.08 -2928.4 C 4974.92 -2928.4 4976.75 -2928.5 4978.64 -2928.5 C 4982.3 -2928.7 4985.97 -2928.7 4989.62 -2929 C 5023.71 -2930 5057.81 -2931.1 5091.9 -2932.1 C 5117.73 -2932.8 5143.57 -2933.7 5169.38 -2934.4 C 5172.04 -2934.4 5174.7 -2934.6 5177.37 -2934.6 C 5181.38 -2934.8 5185.4 -2934.8 5189.41 -2934.9 C 5193.4 -2935.1 5197.4 -2935.1 5201.39 -2935.3 C 5202.69 -2935.3 5204 -2935.3 5205.34 -2935.3 C 5244.33 -2936.5 5283.3 -2937.8 5322.24 -2939.4 C 5325.6 -2939.5 5328.96 -2939.5 5332.31 -2939.7 C 5333.99 -2939.9 5335.67 -2939.9 5337.35 -2939.9 C 5349.44 -2940.4 5361.52 -2940.7 5373.61 -2941.1 C 5403.99 -2942 5434.29 -2943.4 5464.67 -2945.3 C 5468.53 -2945.5 5472.48 -2945.7 5476.34 -2946 C 5519.89 -2948.5 5563.37 -2951.7 5606.76 -2955.9 C 5611.13 -2956.4 5615.4 -2956.8 5619.77 -2957.2 C 5739.7 -2968.2 5858.21 -2991.4 5972.27 -3030.4 C 5979.74 -3032.9 5987.21 -3035.3 5994.76 -3037.8 C 6000.97 -3039.9 6007.02 -3042.8 6012.98 -3045.5 C 6017.42 -3047.5 6021.95 -3049.7 6026.49 -3051.6 C 6086.92 -3078.4 6145.58 -3109.9 6194.34 -3155.3 C 6198.2 -3158.8 6202.07 -3162.2 6206.01 -3165.6 C 6220.45 -3178.2 6232.78 -3192 6244.62 -3207 C 6246.21 -3209 6247.72 -3210.9 6249.32 -3212.6 C 6263 -3229.6 6274.66 -3247.2 6285.15 -3266.3 C 6286.25 -3268 6287.34 -3270 6288.34 -3271.9 C 6289.27 -3273.5 6290.19 -3275.3 6291.03 -3276.8 C 6296.23 -3284.1 6301.94 -3287.4 6310.75 -3286.4 Z" style="paint-order: fill; fill-rule: evenodd; stroke-width: 1; transform-box: fill-box; transform-origin: 1.4312% 34.6908%;" transform="matrix(0.988202, 0.153155, -0.153155, 0.988202, 0.000001, 0.000051)"/>
</svg>