<?xml version="1.0" encoding="utf-8"?>
<svg version="1.1" xmlns="http://www.w3.org/2000/svg" height="1000" viewBox="-9000 -9000 18000 18000" xmlns:bx="https://boxy-svg.com">
  <defs>
    <bx:export>
      <bx:file format="png" path="no-dog-juggling.png" width="125" height="125">
        <bx:variant scale="2" suffix="@2x"/>
        <bx:variant scale="4" suffix="@4x"/>
        <bx:variant scale="8" suffix="@8x"/>
        <bx:variant scale="16" suffix="@16x"/>
      </bx:file>
    </bx:export>
  </defs>
  <ellipse style="stroke: rgb(255, 0, 0); stroke-width: 1500; fill: rgb(255, 255, 255);" rx="8136.24" ry="8136.24" transform="matrix(0.990268, -0.139173, 0.139173, 0.990268, 0, 0)"/>
  <path d="M -1344.4 -1187 L -1249.9 -1045.4 C -1249.9 -1045.4 -1203.9 -969.98 -1379.1 -781.98 C -1608.2 -536.18 -1974 -362.18 -2327.1 -299.18 C -2390.3 -287.88 -2386.9 -285.08 -2442.8 -254.18 L -3167.2 207.72 C -3167.2 207.72 -3204.9 232.52 -3201.3 257.22 C -3197.5 282.82 -3226.1 303.12 -3250.8 310.52 C -3276 318.02 -3306 299.22 -3334.3 256.92 C -3361.6 216.12 -3379.4 173.12 -3350.1 153.22 C -3318.8 131.92 -3297.1 127.42 -3281.5 137.52 C -3261.4 150.32 -3222.9 124.62 -3222.9 124.62 C -3218.4 121.12 -2520.3 -370.78 -2520.3 -370.78 C -2506.3 -380.58 -2460.8 -433.48 -2438.7 -470.28 C -2251.4 -780.58 -1944.7 -1037 -1633.7 -1157.8 C -1393.1 -1251.3 -1344.4 -1187 -1344.4 -1187 Z" fill="#010101" style="stroke-width: 1; transform-box: fill-box; transform-origin: 50% 50%;" transform="matrix(-0.43151, -0.902108, 0.902108, -0.43151, 0.000208, -0.000114)"/>
  <path d="M -355.79 -6935.2 L -261.32 -6793.6 C -261.32 -6793.6 -215.29 -6718.2 -390.49 -6530.2 C -619.53 -6284.4 -985.36 -6110.4 -1338.4 -6047.4 C -1401.7 -6036.1 -1398.3 -6033.3 -1454.1 -6002.4 L -2178.4 -5540.6 C -2178.4 -5540.6 -2216.2 -5515.8 -2212.6 -5491 C -2208.8 -5465.5 -2237.3 -5445.1 -2262.1 -5437.8 C -2287.3 -5430.3 -2317.3 -5449.1 -2345.7 -5491.3 C -2372.9 -5532.2 -2390.7 -5575.2 -2361.4 -5595.1 C -2330.2 -5616.4 -2308.3 -5620.8 -2292.8 -5610.8 C -2272.7 -5598 -2234.2 -5623.6 -2234.2 -5623.6 C -2229.7 -5627.2 -1531.7 -6119 -1531.7 -6119 C -1517.7 -6128.8 -1472.2 -6181.7 -1450 -6218.5 C -1262.6 -6528.9 -956.09 -6785.2 -645.03 -6906.1 C -404.44 -6999.6 -355.79 -6935.2 -355.79 -6935.2 Z" fill="#010101" style="stroke-width: 1; transform-origin: -1316.2px -6196.39px;" transform="matrix(0.959462, 0.281838, -0.281838, 0.959462, 0.000025, -0.000199)"/>
  <path d="M 733.797 -4278.6 L 828.267 -4137 C 828.267 -4137 874.297 -4061.6 699.087 -3873.6 C 470.056 -3627.8 104.226 -3453.8 -248.89 -3390.8 C -312.11 -3379.5 -308.72 -3376.7 -364.57 -3345.8 L -1089 -2883.9 C -1089 -2883.9 -1126.7 -2859.1 -1123.1 -2834.3 C -1119.3 -2808.8 -1147.9 -2788.4 -1172.6 -2781.1 C -1197.8 -2773.6 -1227.8 -2792.4 -1256.1 -2834.6 C -1283.4 -2875.5 -1301.2 -2918.5 -1271.9 -2938.4 C -1240.6 -2959.7 -1218.9 -2964.1 -1203.3 -2954.1 C -1183.2 -2941.3 -1144.7 -2966.9 -1144.7 -2966.9 C -1140.2 -2970.5 -442.11 -3462.4 -442.11 -3462.4 C -428.12 -3472.2 -382.6 -3525.1 -360.45 -3561.9 C -173.17 -3872.3 133.506 -4128.6 444.546 -4249.5 C 685.137 -4343 733.797 -4278.6 733.797 -4278.6 Z" fill="#010101" style="stroke-width: 1; transform-origin: -226.624px -3539.73px;" transform="matrix(-0.745936, 0.666018, -0.666018, -0.745936, 0.000335, -0.000631)"/>
  <path d="M 1758.52 -1498.1 C 1999.781 -1396.445 2209.923 -1225.868 2402.58 -1048.6 C 2503.445 -955.792 2523.95 -513.581 2524.14 -484.41 C 2525.687 -247.166 2426.152 -298.193 2399.54 -284.9 C 2398.935 -284.598 2399.451 -283.549 2399.35 -282.88 C 2394.778 -252.724 2157.869 574.944 2158.75 577.691 C 2168.629 608.483 2253.784 669.355 2228.95 852.332 C 2166.929 1309.309 2239.513 1873.548 2312.16 2138.02 C 2354.382 2291.73 2957.142 4053.7 2979.51 4069.68 C 3034.308 4108.83 3090.601 4174.705 3157.33 4165.6 C 3418.841 4129.916 3996.2 4053.554 4236.29 3554.49 C 4247.476 3531.237 4280.367 3494.302 4300.2 3510.81 C 4346.057 3548.981 4367.805 3626.788 4364.81 3639.25 C 4194.362 4348.361 3185.113 4519.331 3060.53 4524.03 C 3020.378 4525.545 2934.264 4525.961 2932.52 4527.88 C 2930.249 4530.378 2877.23 5046.524 2876.77 5050.91 C 2863.783 5174.851 2817.921 5300.436 2840.46 5423 C 2866.971 5567.167 3151.286 6003.247 3172.56 6108.68 C 3183.076 6160.799 2921.628 6724.276 2912.55 6730.12 C 2901.236 6737.404 2336.497 6776.709 2319.43 6763.37 C 2304.597 6751.776 2331.578 6523.585 2370.28 6474.72 C 2398.329 6439.306 2465.032 6467.754 2501.61 6441.24 C 2566.343 6394.317 2681.22 6219.065 2684.72 6214.61 C 2727.793 6159.784 2768.098 6120.758 2627.25 5993.15 C 2618.692 5985.396 2002.139 5362.821 1999.02 5366.32 C 1938.739 5433.948 1954.894 5451.878 2015.04 5560.7 C 2116.03 5743.422 2283.05 5889.873 2358.18 6084.66 C 2374.784 6127.707 2289.3 6146.563 2250.84 6172.05 C 2213.624 6196.712 1504.212 6586.991 1399.14 6622.52 C 1368.666 6632.825 891.232 6576.881 888.225 6575.38 C 887.531 6575.034 841.87 6567.157 840.509 6540.88 C 840.44 6539.544 902.881 6394.609 966.321 6360.46 C 1036.963 6322.434 1126.222 6341.454 1203.65 6320.45 C 1307.685 6292.229 1703.363 6128.796 1709.58 6109.71 C 1723.391 6067.308 1720.259 6020.743 1718.12 5976.2 C 1717.606 5965.505 1647.645 5863.919 1630.54 5852.3 C 1603.917 5834.216 1516.571 5806.063 1505.57 5798.9 C 1470.184 5775.859 1127.36 5497.618 1108.78 5438.91 C 1096.572 5400.335 1020.944 4971.896 1035.68 4921.35 C 1077.83 4776.769 1335.568 4445.639 1204.22 4063.4 C 1195.882 4039.136 105.521 2259.426 97.678 1544.61 C 97.58 1535.71 -230.164 1037.342 -326.19 887.868 C -665.147 857.898 -1163.633 801.967 -1213 753.232 C -1252.445 714.291 -1241.381 516.718 -1203.9 502.012 C -1094.328 459.021 114.537 413.13 247.822 419.477 C 297.362 421.836 457.123 499.671 458.835 499.089 C 460.891 498.39 1042.468 91.667 1048.44 88.944 C 1057.139 84.977 1127.68 9.575 1135.8 -15.294 C 1146.806 -49.003 1148.995 -152.526 1145.96 -167.7 C 1137.418 -210.405 1129.392 -255.119 1106.78 -292.34 C 1085.163 -327.922 618.488 -618.758 562.448 -672.57 C 532.544 -701.284 516.573 -742.082 499.675 -779.94 C 461.597 -865.251 420.02 -950.319 397.956 -1041.1 C 389.66 -1075.234 351.383 -1313.113 406.256 -1334.7 C 549.082 -1390.887 713.178 -1345.233 866.632 -1342.4 C 903.232 -1341.724 1148.438 -1326.762 1233.82 -1340.4 C 1249.613 -1342.923 1340.003 -1461.384 1391.3 -1474.7 C 1510.02 -1505.518 1645.489 -1545.725 1758.52 -1498.1 Z" fill="#000000" style=""/>
  <path style="stroke-width: 1500; stroke: rgb(255, 0, 0); fill: rgb(255, 255, 255); transform-box: fill-box; transform-origin: 50% 50%;" d="M -6000 6000 L 6000 -6000" transform="matrix(0.139173, 0.990268, -0.990268, 0.139173, 0, 0)"/>
</svg>