<?xml version="1.0" encoding="utf-8"?>
<svg version="1.1" xmlns="http://www.w3.org/2000/svg" height="1000" viewBox="-9000 -9000 18000 18000" xmlns:bx="https://boxy-svg.com">
  <defs>
    <bx:export>
      <bx:file format="png" path="no-dog-portal.png" width="125" height="125">
        <bx:variant scale="2" suffix="@2x"/>
        <bx:variant scale="4" suffix="@4x"/>
        <bx:variant scale="8" suffix="@8x"/>
        <bx:variant scale="16" suffix="@16x"/>
      </bx:file>
    </bx:export>
  </defs>
  <ellipse style="stroke: rgb(255, 0, 0); stroke-width: 1500; fill: rgb(255, 255, 255);" rx="8136.24" ry="8136.24" transform="matrix(0.990268, -0.139173, 0.139173, 0.990268, 0, 0)"/>
  <path d="M 4899.8 -4609 C 6338.97 -3237.5 6305.61 -152.74 4904.3 2571.38 C 4268.63 3807.09 2774.35 4875.35 1833.85 4780.35 C -499.58 4544.63 -1342.5 -710.62 1338.07 -4234.2 C 1066.15 -3649.6 850.832 -2971.8 660.342 -2485.6 C 2074.95 -5446.1 3759.37 -5695.9 4899.8 -4609 Z M 4632.7 -299.53 C 5343.62 -7214.7 938.696 -3299.2 557.717 246.397 C 290.024 2738.14 1500.56 4442.12 2856.71 3870.64 C 2148.64 3952.36 1078.22 3616.65 953.102 1799.35 C 3356.72 6137.22 5554.86 139.437 4970.31 -3120.6 C 4990.51 -2833.3 5000.82 -1703.8 4632.7 -299.53 Z" style="stroke-width: 1; transform-box: fill-box; transform-origin: 50% 50%; stroke: rgb(0, 0, 0); fill: rgb(33, 103, 217);" transform="matrix(0.99447, -0.105023, 0.105023, 0.99447, -0.000009, 0.000095)"/>
  <path d="M -4399.8 5106.42 C -4319.6 5097.18 -4240.9 5078.69 -4161.5 5064.27 C -3954.7 5022.11 -3770.5 4994.39 -3560.8 5012.87 C -3530 5045.78 -3499.1 5073.51 -3467.4 5106.42 C -3211.1 5148.69 -2983.2 5148.69 -2768.3 4994.39 C -2738.9 4971.62 -2710 4948.06 -2679.2 4929.58 C -2558.6 4859.58 -2469.4 4859.58 -2331.1 4854.4 C -2036 4840.99 -1840.1 4714.41 -1602.8 4546.7 C -1618.7 4485.95 -1634.1 4425.31 -1649.4 4360.5 C -1742.3 4346.18 -1834.4 4332.78 -1929.2 4314.18 C -1852.3 4286.44 -1775.3 4253.43 -1696.1 4220.51 C -1696.1 4192.79 -1696.1 4159.88 -1696.1 4127.98 C -1804.2 4113.66 -1911.5 4099.12 -2022.4 4080.64 C -2033.7 3857.35 -2033.7 3857.35 -1929.2 3660.91 C -1906.4 3507.51 -1890.5 3353.21 -1877.3 3199.93 C -1848.1 2919.95 -1779 2719.33 -1576.8 2518.59 C -1353.4 2295.42 -1350.7 2043.28 -1326.5 1740.78 C -1296.6 1418.76 -1253.7 1120.53 -1136.7 818.015 C -1105.9 818.015 -1075.1 818.015 -1043.5 818.015 C -1027.2 775.749 -1009.4 733.483 -992.63 687.271 C -870.46 388.908 -752 118.287 -545.13 -132.83 C -484 -207.78 -484 -207.78 -411.37 -333.34 C -327.93 -469.13 -226.27 -561.67 -111.15 -673.93 C 116.764 -893.07 116.764 -893.07 168.51 -1046.4 C 388.071 -1228.5 642.106 -1312.8 908.801 -1405.4 C 1054.3 -1466.2 1054.3 -1466.2 1165.62 -1541.3 C 1329.73 -1629.9 1484.48 -1624.7 1665.36 -1629.9 C 1991.21 -1639 2282.09 -1685.3 2592.49 -1792.4 C 2592.49 -1821.3 2592.49 -1853 2592.49 -1886.1 C 2618.64 -1886.1 2643.84 -1890.1 2670.9 -1890.1 C 2838.2 -1955.8 2910.95 -2068.1 3012.09 -2212.1 C 3012.09 -2272.9 3012.09 -2333.5 3012.09 -2398.3 C 2931.01 -2407.7 2931.01 -2407.7 2848.91 -2416.9 C 2814.43 -2422 2780.38 -2426.2 2745.41 -2431.2 C 2677.39 -2440.6 2607.94 -2449.8 2538.9 -2454.9 C 2368.3 -2477.6 2200.49 -2501.2 2033.19 -2538.3 C 1999.54 -2543.4 1966.52 -2552.7 1932.04 -2562 C 1726.9 -2604.1 1726.9 -2604.1 1525.02 -2659.7 C 1158.21 -2734.8 793.16 -2650.5 476.253 -2459.1 C 401.663 -2398.3 401.663 -2398.3 355.046 -2258.5 C 323.769 -2258.5 292.999 -2258.5 261.732 -2258.5 C 261.732 -2226.6 261.732 -2197.7 261.732 -2165.8 C 199.787 -2165.8 138.258 -2165.8 75.298 -2165.8 C 1.214 -2249.2 1.214 -2249.2 -59.391 -2361.4 C -182.45 -2556.8 -299.01 -2674.1 -484 -2818.2 C -524.66 -2860.3 -565.2 -2902.5 -606.14 -2943.7 C -705.02 -3037.3 -778.71 -3092.8 -903.59 -3144.4 C -888.26 -3377.9 -888.26 -3377.9 -763.72 -3564.1 C -736.71 -3689.7 -736.71 -3689.7 -763.72 -3844 C -864.93 -3969.5 -985.19 -4067.2 -1108.3 -4170.1 C -1396.8 -4402.7 -1396.8 -4402.7 -1556.3 -4729.9 C -1587.4 -4729.9 -1618.2 -4729.9 -1649.4 -4729.9 C -1660.7 -4757.6 -1670.5 -4785.4 -1681.6 -4813.1 C -1761.3 -4943.9 -1836.5 -4990.2 -1975.7 -5056 C -2107.3 -5065.3 -2107.3 -5065.3 -2208.8 -5056 C -2241 -4949 -2241 -4949 -2255.6 -4822.4 C -2200.5 -4729.9 -2200.5 -4729.9 -2115.6 -4641.4 C -2070.9 -4594 -2070.9 -4594 -2025.2 -4542.5 C -1963.7 -4481.9 -1900.8 -4422.2 -1836.5 -4365.6 C -1682.1 -4221.5 -1610.8 -4155.7 -1559.5 -3945.8 C -1557.5 -3862.4 -1556.3 -3783.2 -1556.3 -3704.1 C -1772.5 -3844 -1894.7 -3941.7 -2022.4 -4170.1 C -2217.3 -4374.8 -2404.1 -4389.2 -2675 -4402.7 C -2705.4 -4319.3 -2705.4 -4319.3 -2721.5 -4216.5 C -2586.5 -3956.1 -2312.3 -3787.4 -2072.8 -3634.1 C -1971.2 -3568.3 -1971.2 -3568.3 -1929.2 -3470.4 C -1911.1 -3228.7 -1939.4 -3111.4 -2069.1 -2911.8 C -2165.1 -2645.3 -2176.7 -2403.5 -2174 -2118.6 C -2174.3 -2062.9 -2174.3 -2062.9 -2174.9 -2002.3 C -2174.3 -1746.1 -2140.8 -1526.9 -2069.1 -1279.9 C -2100.3 -1279.9 -2131 -1279.9 -2162.3 -1279.9 C -2255.6 -1140 -2255.6 -1140 -2255.6 -1000 C -2286.6 -1000 -2317.5 -1000 -2348.8 -1000 C -2348.8 -967.12 -2348.8 -939.4 -2348.8 -907.5 C -2395.3 -893.07 -2441.6 -874.59 -2488.7 -860.27 C -2488.7 -813.8 -2488.7 -767.48 -2488.7 -720.25 C -2519.9 -720.25 -2550.7 -720.25 -2581.8 -720.25 C -2581.8 -688.24 -2581.8 -659.39 -2581.8 -627.49 C -2612.1 -618.25 -2641.4 -609.12 -2671.8 -603.94 C -2710.4 -589.4 -2749 -580.27 -2788.7 -566.85 C -2826.9 -557.5 -2865.7 -548.37 -2904.9 -533.94 C -3001.3 -487.73 -3001.3 -487.73 -3038.1 -390.01 C -3041.3 -361.19 -3044.7 -329.17 -3048.1 -301.45 C -3079.2 -301.45 -3109.9 -301.45 -3141.2 -301.45 C -3172.4 -231.45 -3203.6 -165.74 -3234.4 -95.75 C -3251.5 -58.668 -3269.4 -21.598 -3286.5 20.556 C -3327.7 118.287 -3327.7 118.287 -3327.7 211.952 C -3358.9 211.952 -3389.7 211.952 -3420.9 211.952 C -3627 598.673 -3627 598.673 -3653.9 818.015 C -3685.3 818.015 -3716 818.015 -3747.2 818.015 C -3815.7 943.462 -3840.5 999.028 -3840.5 1144.09 C -3873.2 1153.33 -3906.2 1167.76 -3939.3 1177.11 C -4259 1321.04 -4418.8 1521.67 -4539.5 1843.68 C -4555.4 1903.52 -4570.4 1969.23 -4583.4 2029.88 C -4643.6 2300.61 -4775.9 2528.95 -5005.7 2682.24 C -5138.2 2700.83 -5138.2 2700.83 -5282.8 2706.02 C -5462.1 2715.16 -5600.2 2724.5 -5751.6 2822.23 C -5844.8 2962.22 -5844.8 2962.22 -5833.2 3059.93 C -5798.2 3148.41 -5798.2 3148.41 -5705.1 3194.74 C -5334 3242.08 -4968 3172.07 -4632.9 3008.43 C -4522.9 2910.82 -4434.7 2807.91 -4343.3 2687.42 C -4224.5 2547.45 -4099.6 2481.72 -3933.6 2402.39 C -3956.9 2682.24 -3956.9 2682.24 -3980.3 2962.22 C -4026.9 2975.63 -4073 2995.12 -4120.2 3008.43 C -4127.7 3054.74 -4127.7 3054.74 -4135 3102.19 C -4145.4 3129.93 -4156 3162.84 -4166.7 3194.74 C -4299.6 3246.14 -4299.6 3246.14 -4446.3 3288.4 C -4556.9 3349.03 -4556.9 3349.03 -4632.9 3428.38 C -4644.6 3577.5 -4644.6 3577.5 -4632.9 3708.14 C -4206.8 3717.48 -4009.1 3516.75 -3700.6 3242.08 C -3654.4 3218.41 -3654.4 3218.41 -3607.3 3194.74 C -3630.8 3334.73 -3630.8 3334.73 -3653.9 3474.59 C -3700.6 3489.03 -3746.7 3507.51 -3793.9 3521.93 C -3817.2 3684.58 -3817.2 3684.58 -3840.5 3848.12 C -3873.2 3861.42 -3906.2 3870.76 -3939.3 3885.2 C -4142 3968.5 -4358.8 4089.89 -4493 4266.84 C -4493 4454.16 -4493 4454.16 -4446.3 4594.04 C -4462.2 4607.34 -4477.7 4625.94 -4493 4640.36 C -4489.3 4733.01 -4489.3 4733.01 -4475.3 4850.23 C -4471 4887.31 -4467 4924.39 -4462.8 4966.43 C -4446.3 5060.1 -4446.3 5060.1 -4399.8 5106.42 Z" fill="#121212" style="stroke-width: 1; transform-origin: -1413.16px 33.777px;" transform="matrix(-0.638737, -0.769425, 0.769425, -0.638737, -0.000625, -0.000954)"/>
  <path style="stroke-width: 1500; stroke: rgb(255, 0, 0); fill: rgb(255, 255, 255); transform-box: fill-box; transform-origin: 50% 50%;" d="M -6000 6000 L 6000 -6000" transform="matrix(0.139173, 0.990268, -0.990268, 0.139173, 0, 0)"/>
</svg>