<?xml version="1.0" encoding="utf-8"?>
<svg version="1.1" xmlns="http://www.w3.org/2000/svg" height="1000" viewBox="-9000 -9000 18000 18000" xmlns:bx="https://boxy-svg.com">
  <defs>
    <bx:export>
      <bx:file format="png" path="no-dog-juggling.png" width="125" height="125">
        <bx:variant scale="2" suffix="@2x"/>
        <bx:variant scale="4" suffix="@4x"/>
        <bx:variant scale="8" suffix="@8x"/>
        <bx:variant scale="16" suffix="@16x"/>
      </bx:file>
    </bx:export>
  </defs>
  <ellipse style="stroke: rgb(255, 0, 0); stroke-width: 1500; fill: rgb(255, 255, 255);" rx="8136.24" ry="8136.24" transform="matrix(0.990268, -0.139173, 0.139173, 0.990268, 0, 0)"/>
  <path d="M 1630.54 -1516.3 C 1647.44 -1516.3 1664.36 -1516.3 1681.81 -1516.3 C 1681.81 -1515.6 1681.81 -1514.8 1681.81 -1514.2 C 1682.74 -1514.2 1683.73 -1514.3 1684.73 -1514.3 C 1690.67 -1514.3 1696.45 -1513 1702.29 -1512 C 1704.18 -1511.6 1704.18 -1511.6 1706.09 -1511.3 C 1723.79 -1507.9 1741.31 -1503.5 1758.52 -1498.1 C 1763.86 -1496.5 1769.26 -1495 1774.64 -1493.6 C 1791.91 -1488.8 1808.94 -1483.5 1825.78 -1477.2 C 1829.44 -1476 1833.17 -1474.8 1836.89 -1473.8 C 1843.82 -1471.6 1850.66 -1469.3 1857.5 -1466.9 C 1858.69 -1466.5 1859.87 -1466 1861.1 -1465.6 C 1869.79 -1462.6 1878.39 -1459.4 1886.93 -1456.1 C 1891.75 -1454.3 1896.61 -1452.5 1901.51 -1450.9 C 1905.89 -1449.5 1910.16 -1447.8 1914.43 -1446.2 C 1915.4 -1445.7 1916.38 -1445.4 1917.37 -1445 C 1930.79 -1439.8 1944.19 -1434.5 1957.47 -1429 C 1960.18 -1427.8 1962.89 -1426.8 1965.64 -1425.7 C 1970.98 -1423.6 1976.23 -1421.2 1981.46 -1418.9 C 1982.38 -1418.4 1983.31 -1418 1984.24 -1417.6 C 1987.05 -1416.4 1989.83 -1415.1 1992.61 -1413.8 C 1993.44 -1413.4 1994.28 -1413.1 1995.12 -1412.6 C 2008.59 -1406.5 2021.58 -1399.8 2034.25 -1392 C 2040.64 -1388.2 2047.14 -1384.3 2053.62 -1380.6 C 2058.76 -1377.7 2063.88 -1374.8 2068.95 -1371.6 C 2071.62 -1370.1 2074.29 -1368.4 2076.93 -1366.9 C 2093.74 -1356.7 2093.74 -1356.7 2101.6 -1351.8 C 2106 -1348.9 2110.45 -1346.1 2114.9 -1343.3 C 2139.22 -1328 2163.4 -1312.4 2186.84 -1295.8 C 2189.85 -1293.7 2192.88 -1291.6 2195.9 -1289.4 C 2199.7 -1286.7 2203.51 -1284 2207.3 -1281.4 C 2208.07 -1280.7 2208.85 -1280.2 2209.65 -1279.7 C 2220.4 -1272 2230.93 -1264.1 2241.29 -1256 C 2244.1 -1253.8 2246.91 -1251.6 2249.81 -1249.6 C 2250.71 -1248.8 2250.71 -1248.8 2251.63 -1248.2 C 2253.24 -1247 2254.85 -1245.8 2256.44 -1244.6 C 2257.14 -1244.1 2257.82 -1243.5 2258.55 -1242.9 C 2258.55 -1242.2 2258.55 -1241.5 2258.55 -1240.8 C 2259.16 -1240.5 2259.73 -1240.3 2260.37 -1239.9 C 2268.7 -1235.5 2275.81 -1228 2282.8 -1221.7 C 2284.91 -1219.8 2287.05 -1217.8 2289.2 -1216 C 2304.42 -1202.8 2319.71 -1188.8 2332.25 -1173 C 2334.3 -1170.4 2336.45 -1167.9 2338.66 -1165.5 C 2353.51 -1148.9 2364.7 -1130.2 2373.52 -1109.8 C 2374.65 -1107.3 2375.76 -1104.7 2376.89 -1102.3 C 2377.45 -1100.8 2378.02 -1099.5 2378.62 -1098.4 C 2386.08 -1081.4 2393.83 -1064.9 2402.58 -1048.6 C 2403.8 -1046.4 2404.97 -1044.1 2406.15 -1042 C 2409.24 -1036.1 2412.39 -1030.4 2415.56 -1024.5 C 2418.04 -1020 2420.33 -1015.5 2422.58 -1010.9 C 2426.28 -1003.5 2430.25 -996.13 2434.26 -988.69 C 2439.32 -979.4 2444.16 -970.12 2448.77 -960.75 C 2450.05 -958.17 2451.38 -955.6 2452.68 -953.02 C 2459.57 -939.51 2465.82 -925.63 2472.18 -911.84 C 2472.93 -910.1 2472.93 -910.1 2473.71 -908.53 C 2476.72 -901.92 2479.47 -895.3 2481.99 -888.4 C 2482.63 -886.84 2483.26 -885.1 2483.92 -883.44 C 2498.24 -845.94 2506.54 -807.88 2501.32 -767.8 C 2493.14 -703 2501.68 -635.25 2512.74 -571.18 C 2514.02 -563.74 2515 -556.2 2515.96 -548.67 C 2516.97 -540.94 2517.99 -533.13 2519.28 -525.41 C 2521.05 -514.56 2522.31 -503.81 2523.31 -492.87 C 2523.58 -490.11 2523.84 -487.26 2524.14 -484.41 C 2526.7 -457.39 2529.25 -429.26 2524.5 -402.37 C 2524.39 -401.55 2524.27 -400.81 2524.14 -399.98 C 2519.4 -371.3 2506.14 -343.73 2482.86 -325.44 C 2481.94 -324.7 2481.05 -323.96 2480.13 -323.23 C 2458.89 -306.68 2434.54 -296.48 2409.16 -288.12 C 2407.35 -287.47 2405.53 -286.83 2403.73 -286.28 C 2402.33 -285.82 2400.94 -285.36 2399.54 -284.9 C 2399.44 -283.89 2399.44 -283.89 2399.35 -282.88 C 2396.13 -252.45 2390.77 -222.48 2385.52 -192.43 C 2385.19 -190.4 2385.19 -190.4 2384.84 -188.38 C 2380.34 -162.64 2380.34 -162.64 2377.74 -150.97 C 2376.89 -147.11 2376.23 -143.25 2375.59 -139.3 C 2374.4 -132.31 2372.91 -125.42 2371.23 -118.61 C 2370 -113.56 2368.94 -108.41 2368.04 -103.26 C 2366.84 -96.552 2365.34 -89.934 2363.75 -83.315 C 2362.56 -78.352 2361.51 -73.48 2360.56 -68.424 C 2359.29 -61.898 2357.64 -55.463 2355.81 -48.937 C 2354.43 -43.881 2353.41 -38.734 2352.32 -33.494 C 2346.12 -4.631 2338.47 24.14 2330.17 52.544 C 2329.07 56.22 2328.03 59.897 2327.07 63.666 C 2324.35 74.145 2321 84.44 2317.37 94.735 C 2313.31 106.225 2309.56 117.807 2306.17 129.573 C 2304.46 135.456 2302.63 141.247 2300.82 147.13 C 2300.19 149.06 2300.19 149.06 2299.58 151.175 C 2297.03 159.264 2294.4 167.353 2291.69 175.35 C 2290.02 180.313 2288.5 185.277 2287.06 190.241 C 2283.59 202.347 2279.65 214.278 2275.78 226.228 C 2271.72 238.729 2267.74 251.24 2263.92 263.787 C 2260.12 276.113 2256.18 288.394 2252.26 300.684 C 2250.32 306.787 2248.39 312.909 2246.46 319.031 C 2245.2 322.938 2243.95 326.854 2242.73 330.769 C 2242.12 332.727 2241.51 334.676 2240.89 336.634 C 2238.02 345.798 2235.12 354.908 2231.77 363.907 C 2230.24 368.218 2228.95 372.584 2227.62 376.969 C 2225.76 383.008 2223.74 389.01 2221.71 395.013 C 2221.01 397.109 2220.31 399.186 2219.62 401.273 C 2219.13 402.734 2218.65 404.205 2218.15 405.666 C 2216.28 411.259 2214.41 416.857 2212.56 422.464 C 2202.76 452.017 2202.76 452.017 2198.01 465.409 C 2196.09 470.805 2194.26 476.219 2192.47 481.67 C 2189.56 490.495 2186.39 499.218 2183.24 507.96 C 2179.96 516.995 2176.92 526.086 2173.91 535.214 C 2172.14 540.555 2170.32 545.849 2168.24 551.089 C 2165.83 557.174 2163.68 563.314 2161.57 569.51 C 2161.08 570.962 2161.08 570.962 2160.55 572.433 C 2160.23 573.352 2159.92 574.271 2159.6 575.218 C 2159.32 576.036 2159.04 576.854 2158.75 577.691 C 2157.46 583.188 2157.94 587.039 2160.65 591.957 C 2161.18 592.94 2161.73 593.924 2162.26 594.935 C 2162.86 595.974 2163.43 597.022 2164.03 598.088 C 2169.53 608.273 2174.29 618.559 2178.62 629.304 C 2179.48 631.391 2180.36 633.477 2181.28 635.555 C 2184.84 643.589 2187.79 651.696 2190.47 660.07 C 2191.38 662.828 2192.33 665.595 2193.28 668.352 C 2197.92 681.901 2202.01 695.478 2205.42 709.395 C 2205.98 711.656 2206.53 713.899 2207.09 716.142 C 2218.05 760.034 2224.38 804.404 2228.66 849.427 C 2228.73 850.383 2228.85 851.348 2228.95 852.332 C 2229.86 862.213 2230.07 872.086 2230.3 881.995 C 2230.31 882.941 2230.34 883.888 2230.35 884.853 C 2230.81 904.506 2231.02 924.149 2231.16 943.802 C 2231.48 980.35 2231.94 1016.89 2232.8 1053.42 C 2232.82 1054.38 2232.83 1055.32 2232.86 1056.3 C 2233.7 1092.73 2234.85 1129.16 2236.09 1165.57 C 2236.19 1169.51 2236.34 1173.43 2236.46 1177.36 C 2236.5 1178.81 2236.5 1178.81 2236.57 1180.31 C 2236.93 1190.96 2237.24 1201.6 2237.42 1212.26 C 2238.02 1245.67 2239.47 1279.01 2241.08 1312.37 C 2241.65 1324.39 2242.23 1336.4 2242.78 1348.41 C 2242.95 1352.1 2243.14 1355.77 2243.32 1359.45 C 2244.17 1377.4 2244.97 1395.34 2245.66 1413.29 C 2246.57 1436.55 2247.83 1459.76 2249.3 1482.97 C 2249.83 1491.13 2250.34 1499.29 2250.85 1507.44 C 2250.91 1508.32 2250.96 1509.2 2251.02 1510.11 C 2251.82 1522.85 2252.55 1535.61 2253.24 1548.38 C 2253.33 1550.14 2253.44 1551.88 2253.52 1553.62 C 2254.02 1562.42 2254.39 1571.19 2254.29 1579.99 C 2253.58 1579.99 2252.89 1579.99 2252.14 1579.99 C 2252.55 1584.07 2252.95 1588.14 2253.35 1592.22 C 2253.55 1594.24 2253.75 1596.27 2253.94 1598.29 C 2254.69 1605.88 2255.52 1613.44 2256.47 1621.01 C 2258.55 1637.84 2260.1 1654.71 2261.56 1671.62 C 2261.76 1674.04 2261.99 1676.43 2262.19 1678.83 C 2263.89 1698.25 2265.5 1717.67 2266.82 1737.12 C 2267.99 1754.28 2269.79 1771.35 2271.62 1788.47 C 2272.77 1799.18 2273.87 1809.88 2274.57 1820.64 C 2275.54 1834.81 2277.29 1848.91 2278.96 1863 C 2280.29 1874.15 2281.56 1885.3 2282.65 1896.47 C 2283.85 1908.3 2285.35 1920.05 2286.95 1931.83 C 2287.96 1939.07 2288.81 1946.28 2289.47 1953.56 C 2290.69 1967.22 2292.93 1980.76 2294.98 1994.32 C 2296.08 2001.67 2297.07 2009.04 2298.05 2016.4 C 2298.71 2021.33 2299.46 2026.23 2300.28 2031.13 C 2302.41 2043.76 2303.7 2056.47 2305.05 2069.19 C 2305.22 2070.9 2305.39 2072.64 2305.57 2074.35 C 2305.66 2075.2 2305.75 2076.05 2305.85 2076.91 C 2306.63 2084.09 2307.46 2091.25 2308.36 2098.42 C 2309.38 2106.72 2310.2 2115.03 2310.89 2123.37 C 2311.16 2126.41 2311.43 2129.48 2311.72 2132.51 C 2311.88 2134.35 2312.03 2136.18 2312.16 2138.02 C 2313.55 2155.76 2319.5 2171.97 2325.33 2188.64 C 2328.18 2196.79 2330.89 2204.98 2333.61 2213.16 C 2338.31 2227.4 2343.13 2241.56 2348.01 2255.72 C 2353.8 2272.52 2359.4 2289.38 2365.01 2306.25 C 2367.04 2312.36 2369.09 2318.47 2371.11 2324.56 C 2371.8 2326.6 2372.47 2328.62 2373.13 2330.64 C 2373.44 2331.57 2373.76 2332.51 2374.07 2333.47 C 2389.11 2378.56 2389.11 2378.56 2404.13 2423.64 C 2404.49 2424.72 2404.49 2424.72 2404.87 2425.84 C 2405.38 2427.38 2405.89 2428.92 2406.4 2430.45 C 2407.76 2434.54 2409.14 2438.62 2410.5 2442.7 C 2412.99 2450.22 2415.5 2457.73 2417.99 2465.25 C 2423.51 2481.9 2429.1 2498.52 2434.79 2515.08 C 2440.48 2531.66 2446.07 2548.26 2451.59 2564.89 C 2453.55 2570.81 2455.5 2576.69 2457.49 2582.61 C 2458.36 2585.17 2459.2 2587.74 2460.07 2590.32 C 2460.6 2591.93 2461.15 2593.55 2461.69 2595.16 C 2464.91 2604.73 2467.99 2614.31 2470.95 2623.97 C 2472.15 2627.68 2473.49 2631.28 2474.92 2634.91 C 2477.04 2640.33 2478.83 2645.75 2480.49 2651.33 C 2482.16 2656.85 2484 2662.33 2485.85 2667.83 C 2486.41 2669.5 2486.41 2669.5 2486.99 2671.23 C 2487.75 2673.47 2488.5 2675.72 2489.26 2677.99 C 2490.78 2682.52 2492.29 2687.04 2493.8 2691.6 C 2494.4 2693.42 2495.04 2695.28 2495.65 2697.11 C 2496.82 2700.64 2498.01 2704.17 2499.18 2707.71 C 2499.43 2708.44 2499.68 2709.17 2499.93 2709.91 C 2500.44 2711.45 2500.95 2713 2501.46 2714.54 C 2502.81 2718.64 2504.18 2722.72 2505.55 2726.82 C 2508.03 2734.34 2510.56 2741.84 2513.05 2749.36 C 2518.84 2766.79 2524.67 2784.16 2530.65 2801.51 C 2536.46 2818.38 2542.09 2835.28 2547.7 2852.21 C 2549.53 2857.65 2551.31 2863.11 2553.14 2868.56 C 2553.72 2870.28 2554.31 2871.99 2554.9 2873.73 C 2555.15 2874.55 2555.42 2875.38 2555.7 2876.23 C 2558.41 2884.31 2558.41 2884.31 2559.33 2887.15 C 2559.99 2889.03 2560.59 2890.92 2561.23 2892.79 C 2562.77 2897.47 2564.36 2902.16 2565.9 2906.85 C 2569.24 2916.94 2572.64 2927.02 2576.24 2937.04 C 2578.11 2942.34 2579.84 2947.68 2581.49 2953.07 C 2584.31 2962.09 2587.26 2971.03 2590.26 2979.97 C 2590.82 2981.65 2591.37 2983.32 2591.96 2985 C 2592.82 2987.59 2593.7 2990.18 2594.55 2992.8 C 2596.49 2998.58 2598.41 3004.37 2600.34 3010.15 C 2605.77 3026.55 2611.29 3042.93 2616.9 3059.27 C 2623.05 3077.22 2629.09 3095.21 2635.05 3113.2 C 2637.52 3120.61 2639.96 3128 2642.45 3135.4 C 2643.78 3139.41 2645.13 3143.42 2646.47 3147.42 C 2646.99 3148.96 2647.5 3150.5 2648.01 3152.03 C 2656.76 3178.39 2665.55 3204.74 2674.35 3231.1 C 2674.59 3231.83 2674.83 3232.55 2675.08 3233.31 C 2675.61 3234.85 2676.11 3236.38 2676.63 3237.92 C 2677.99 3242 2679.37 3246.09 2680.73 3250.17 C 2683.21 3257.69 2685.73 3265.2 2688.22 3272.72 C 2693.74 3289.37 2699.32 3305.99 2705.02 3322.55 C 2711 3339.95 2716.83 3357.37 2722.63 3374.83 C 2725.09 3382.26 2727.55 3389.67 2730.02 3397.07 C 2731.36 3401.08 2732.73 3405.09 2734.06 3409.11 C 2734.56 3410.65 2735.08 3412.18 2735.6 3413.72 C 2746.54 3446.61 2757.51 3479.5 2768.47 3512.41 C 2768.72 3513.13 2768.97 3513.86 2769.2 3514.6 C 2769.7 3516.08 2770.19 3517.56 2770.68 3519.02 C 2772.01 3522.99 2773.33 3526.94 2774.63 3530.9 C 2777.15 3538.45 2779.68 3545.99 2782.18 3553.57 C 2788.17 3571.59 2794.24 3589.62 2800.41 3607.6 C 2806.37 3624.94 2812.18 3642.33 2817.95 3659.73 C 2819.75 3665.16 2821.58 3670.59 2823.37 3676.03 C 2823.95 3677.75 2824.54 3679.46 2825.1 3681.18 C 2825.51 3682.41 2825.51 3682.41 2825.93 3683.67 C 2835.95 3713.81 2846.02 3743.95 2856.07 3774.08 C 2856.31 3774.8 2856.55 3775.53 2856.79 3776.29 C 2857.28 3777.75 2857.78 3779.23 2858.27 3780.71 C 2859.6 3784.67 2860.91 3788.61 2862.22 3792.57 C 2864.73 3800.12 2867.25 3807.67 2869.77 3815.24 C 2875.74 3833.28 2881.82 3851.3 2887.98 3869.28 C 2893.95 3886.61 2899.76 3904 2905.53 3921.4 C 2907.33 3926.85 2909.15 3932.26 2910.95 3937.7 C 2911.52 3939.42 2912.11 3941.14 2912.67 3942.87 C 2913.08 3944.08 2913.08 3944.08 2913.51 3945.36 C 2914.42 3948.09 2915.34 3950.83 2916.25 3953.58 C 2916.56 3954.53 2916.87 3955.48 2917.2 3956.46 C 2917.85 3958.35 2918.47 3960.24 2919.09 3962.15 C 2920.58 3966.63 2922.1 3971.15 2923.62 3975.66 C 2926.15 3983.16 2928.66 3990.67 2930.87 3998.28 C 2931.39 4000.02 2931.95 4001.74 2932.52 4003.45 C 2931.8 4003.45 2931.12 4003.45 2930.37 4003.45 C 2953.08 4038 2953.08 4038 2979.51 4069.68 C 2980.78 4071.13 2982.05 4072.56 2983.31 4074.01 C 2993.46 4085.67 3003.67 4096.98 3015.82 4106.64 C 3018.1 4108.45 3020.32 4110.28 3022.54 4112.15 C 3038.3 4125.32 3055.95 4135.87 3074.56 4144.44 C 3075.78 4145.01 3076.99 4145.57 3078.25 4146.16 C 3102.92 4157.25 3130.38 4163.63 3157.33 4165.6 C 3160.29 4165.82 3163.24 4166.11 3166.2 4166.39 C 3226.75 4171.97 3288.52 4165.88 3348.89 4160.54 C 3351.22 4160.33 3353.57 4160.13 3355.9 4159.91 C 3357.4 4159.79 3358.9 4159.66 3360.39 4159.53 C 3369.96 4158.68 3379.51 4158.01 3389.09 4157.61 C 3397.03 4157.26 3404.83 4156.38 3412.68 4155.33 C 3414.15 4155.14 3415.64 4154.94 3417.12 4154.75 C 3421.49 4154.18 3425.86 4153.59 3430.24 4152.98 C 3431.48 4152.83 3432.7 4152.66 3434 4152.5 C 3475.55 4146.95 3516.11 4137.1 3556.28 4125.21 C 3557.18 4124.96 3558.08 4124.68 3559 4124.4 C 3567.53 4121.87 3575.85 4118.99 3584.12 4115.72 C 3586.8 4114.71 3589.44 4113.84 3592.18 4113.06 C 3600.15 4110.78 3607.88 4107.74 3615.62 4104.84 C 3618.09 4103.9 3620.55 4103.01 3623.03 4102.1 C 3629.41 4099.75 3635.68 4097.43 3641.7 4094.23 C 3645.68 4092.28 3649.87 4090.83 3654.01 4089.26 C 3663.51 4085.61 3672.77 4081.44 3681.99 4077.1 C 3686.23 4075.11 3690.46 4073.16 3694.72 4071.24 C 3707.36 4065.52 3719.76 4059.54 3731.97 4052.94 C 3735.95 4050.82 3739.95 4048.76 3743.95 4046.7 C 3754.14 4041.41 3764.22 4035.98 3774.18 4030.29 C 3777.25 4028.56 3780.33 4026.87 3783.4 4025.17 C 3793.61 4019.52 3803.68 4013.7 3813.69 4007.73 C 3814.57 4007.22 3815.46 4006.66 3816.37 4006.13 C 3825.54 4000.66 3834.71 3995.2 3843.7 3989.4 C 3847.08 3987.26 3850.49 3985.18 3853.91 3983.11 C 3860.79 3978.95 3867.55 3974.74 3874.09 3970.04 C 3877.14 3967.89 3880.26 3965.88 3883.43 3963.88 C 3893.77 3957.29 3903.93 3950.46 3914.08 3943.64 C 3914.98 3943.04 3915.9 3942.41 3916.84 3941.78 C 3927.61 3934.54 3938.07 3927.11 3948.25 3919.08 C 3949.48 3918.14 3950.7 3917.22 3951.94 3916.27 C 3959.4 3910.57 3959.4 3910.57 3966.63 3904.53 C 3969.62 3901.99 3969.62 3901.99 3971.75 3901.99 C 3971.75 3901.28 3971.75 3900.58 3971.75 3899.85 C 3973.32 3898.48 3974.93 3897.19 3976.55 3895.91 C 3982.73 3890.98 3988.47 3885.7 3994.18 3880.27 C 3997.79 3876.83 4001.46 3873.44 4005.22 3870.15 C 4013.31 3862.91 4020.88 3855.14 4028.57 3847.47 C 4031.24 3844.78 4033.92 3842.1 4036.62 3839.42 C 4038.33 3837.69 4040.07 3835.97 4041.78 3834.23 C 4042.58 3833.44 4043.39 3832.65 4044.18 3831.84 C 4048.49 3827.51 4052.62 3823.11 4056.58 3818.45 C 4058.33 3816.48 4060.16 3814.62 4062.07 3812.8 C 4065.88 3809.03 4069.14 3804.94 4072.36 3800.65 C 4072.96 3799.87 4073.56 3799.1 4074.16 3798.29 C 4079.95 3790.55 4085.53 3782.65 4091.07 3774.72 C 4092.92 3772.07 4094.83 3769.47 4096.72 3766.88 C 4102.02 3759.64 4107.15 3752.32 4112.29 3744.99 C 4113.61 3743.13 4114.92 3741.3 4116.25 3739.46 C 4126.85 3724.52 4135.98 3708.57 4145.21 3692.79 C 4154.97 3676.12 4165.3 3659.76 4175.75 3643.51 C 4176.18 3642.88 4176.58 3642.23 4177 3641.56 C 4184.44 3630.03 4191.94 3618.59 4199.54 3607.18 C 4201.33 3604.53 4203.09 3601.88 4204.84 3599.22 C 4214.45 3584.78 4224.23 3570.43 4234.7 3556.6 C 4235.49 3555.56 4235.49 3555.56 4236.29 3554.49 C 4240.88 3548.43 4245.56 3542.46 4250.53 3536.71 C 4251.17 3535.97 4251.8 3535.23 4252.44 3534.47 C 4264.78 3521.17 4282.01 3512.1 4300.2 3510.81 C 4314.26 3511.09 4326.49 3516.58 4336.7 3526.09 C 4354.53 3545.26 4360.28 3569.15 4363.04 3594.43 C 4363.19 3597.9 4363.19 3597.9 4364.81 3600.8 C 4364.9 3603.65 4364.94 3606.46 4364.91 3609.3 C 4364.91 3610.15 4364.9 3611.01 4364.9 3611.89 C 4364.9 3614.62 4364.9 3617.35 4364.87 3620.08 C 4364.87 3621.92 4364.86 3623.78 4364.86 3625.62 C 4364.84 3630.16 4364.84 3634.71 4364.81 3639.25 C 4364.1 3639.25 4363.39 3639.25 4362.67 3639.25 C 4362.69 3640.4 4362.69 3640.4 4362.71 3641.58 C 4363.03 3678.05 4353.53 3714.45 4343.44 3749.26 C 4343.14 3750.29 4342.85 3751.31 4342.53 3752.36 C 4336.47 3773.29 4329.58 3794.05 4321.42 3814.26 C 4319.78 3818.38 4318.31 3822.52 4316.94 3826.75 C 4314.34 3834.61 4311.35 3842.28 4308.32 3849.98 C 4307.79 3851.38 4307.26 3852.79 4306.7 3854.2 C 4303.74 3861.82 4300.73 3869.43 4297.68 3877.02 C 4296.02 3881.14 4294.4 3885.26 4292.81 3889.39 C 4292.42 3890.41 4292.02 3891.44 4291.61 3892.49 C 4290.82 3894.54 4290.02 3896.59 4289.25 3898.62 C 4287.19 3903.92 4285.01 3909.04 4282.41 3914.09 C 4281.32 3916.22 4280.41 3918.38 4279.57 3920.61 C 4279.03 3921.96 4279.03 3921.96 4278.48 3923.35 C 4278.06 3924.39 4277.65 3925.47 4277.23 3926.55 C 4272.46 3938.63 4267.19 3950.27 4261.19 3961.8 C 4260.72 3962.74 4260.24 3963.66 4259.75 3964.64 C 4254.32 3975.17 4248.83 3985.66 4242.98 3995.98 C 4238.98 4003.03 4235.45 4010.25 4232.03 4017.61 C 4223.42 4035.95 4213.23 4052.97 4200.69 4068.89 C 4198.49 4071.72 4196.37 4074.6 4194.25 4077.49 C 4190.52 4082.45 4186.68 4087.28 4182.72 4092.05 C 4180.69 4094.51 4178.67 4096.98 4176.68 4099.47 C 4170.89 4106.65 4165.05 4113.75 4158.79 4120.55 C 4155.45 4124.3 4152.35 4128.19 4149.22 4132.12 C 4146.82 4134.98 4144.24 4137.57 4141.58 4140.17 C 4139.32 4142.41 4137.04 4144.67 4134.77 4146.92 C 4134.19 4147.47 4133.63 4148.04 4133.03 4148.63 C 4129.92 4151.72 4126.95 4154.88 4124.07 4158.2 C 4119.99 4162.93 4115.64 4167.34 4111.2 4171.73 C 4110.08 4172.89 4110.08 4172.89 4108.89 4174.06 C 4104.52 4178.42 4100.07 4182.56 4095.41 4186.58 C 4092.34 4189.28 4089.55 4192.23 4086.75 4195.18 C 4084.97 4196.77 4084.97 4196.77 4082.84 4196.77 C 4082.48 4197.84 4082.12 4198.89 4081.77 4199.97 C 4080.16 4201.6 4080.16 4201.6 4078.09 4203.32 C 4074.7 4206.2 4071.38 4209.13 4068.08 4212.14 C 4062.48 4217.19 4056.66 4221.93 4050.79 4226.69 C 4048.82 4228.3 4046.84 4229.94 4044.85 4231.56 C 4042.92 4233.14 4040.97 4234.72 4039.04 4236.3 C 4038.27 4236.95 4037.46 4237.6 4036.64 4238.28 C 4028.2 4245.16 4019.38 4251.52 4010.61 4257.94 C 4008.26 4259.65 4005.92 4261.39 4003.57 4263.11 C 4002.21 4264.13 4000.84 4265.12 3999.46 4266.15 C 3998.86 4266.57 3998.26 4267.01 3997.66 4267.47 C 3988.78 4273.98 3979.71 4280.2 3970.57 4286.3 C 3969.59 4286.94 3968.62 4287.59 3967.62 4288.26 C 3959.11 4293.89 3950.54 4299.32 3941.85 4304.65 C 3940.62 4305.41 3939.43 4306.17 3938.19 4306.9 C 3935.91 4308.32 3933.62 4309.74 3931.32 4311.13 C 3929.06 4312.53 3926.81 4313.92 3924.55 4315.32 C 3917.53 4319.67 3910.45 4323.86 3903.26 4327.94 C 3898.43 4330.67 3893.66 4333.44 3888.85 4336.23 C 3887.97 4336.72 3887.11 4337.23 3886.22 4337.74 C 3882.49 4339.91 3878.77 4342.06 3875.07 4344.25 C 3869.6 4347.49 3864.12 4350.53 3858.43 4353.32 C 3854.35 4355.34 3850.32 4357.45 3846.32 4359.59 C 3845.59 4359.98 3844.88 4360.37 3844.12 4360.76 C 3839.88 4363 3835.66 4365.29 3831.48 4367.62 C 3825.61 4370.82 3819.63 4373.75 3813.62 4376.62 C 3812.5 4377.14 3811.38 4377.68 3810.23 4378.23 C 3807.09 4379.72 3803.96 4381.21 3800.83 4382.69 C 3798.59 4383.76 3796.39 4384.81 3794.16 4385.86 C 3790.14 4387.78 3786.11 4389.67 3782.1 4391.57 C 3780.52 4392.33 3778.94 4393.05 3777.39 4393.81 C 3769.09 4397.73 3760.79 4401.56 3752.26 4405.03 C 3747.19 4407.11 3742.2 4409.36 3737.22 4411.66 C 3726.97 4416.36 3716.57 4420.64 3706.09 4424.8 C 3700.97 4426.83 3695.86 4428.94 3690.77 4431.03 C 3680.89 4435.1 3671 4439.04 3660.99 4442.72 C 3658.64 4443.56 3656.33 4444.43 3654 4445.3 C 3619.73 4458.03 3585.03 4469.82 3549.86 4479.83 C 3548.94 4480.08 3547.99 4480.36 3547.03 4480.63 C 3534.08 4484.33 3521.1 4487.89 3508.08 4491.28 C 3506 4491.81 3503.95 4492.35 3501.86 4492.91 C 3493.82 4494.98 3485.74 4496.76 3477.57 4498.34 C 3473.52 4499.16 3469.51 4500.1 3465.49 4501.11 C 3455.13 4503.63 3444.65 4505.35 3434.16 4507.1 C 3431.66 4507.53 3429.17 4507.98 3426.69 4508.45 C 3414.31 4510.81 3401.87 4512.21 3389.36 4513.54 C 3385.35 4513.99 3381.37 4514.5 3377.37 4514.99 C 3354.6 4517.8 3331.73 4519.28 3308.81 4520.61 C 3307.65 4520.68 3307.65 4520.68 3306.44 4520.75 C 3286.12 4521.92 3265.81 4522.93 3245.46 4523.61 C 3244.59 4523.65 3243.7 4523.67 3242.81 4523.71 C 3182.09 4525.83 3121.26 4524.92 3060.53 4524.03 C 3040.15 4523.72 3019.78 4523.49 2999.41 4523.49 C 2997.85 4523.47 2997.85 4523.47 2996.24 4523.47 C 2977.55 4523.43 2958.57 4523.49 2940 4525.74 C 2939.23 4525.81 2938.45 4525.89 2937.67 4525.95 C 2935.39 4526.21 2935.39 4526.21 2932.52 4527.88 C 2930.96 4531.26 2930.13 4533.91 2929.32 4537.49 C 2928.96 4538.88 2928.57 4540.25 2928.22 4541.63 C 2927.46 4544.53 2926.68 4547.43 2925.98 4550.35 C 2925.82 4550.95 2925.66 4551.57 2925.51 4552.2 C 2924.15 4559.23 2923.73 4566.3 2923.4 4573.45 C 2923.35 4574.46 2923.3 4575.46 2923.26 4576.51 C 2923.17 4578.68 2923.09 4580.83 2922.96 4582.97 C 2922.85 4586.08 2922.7 4589.18 2922.54 4592.27 C 2920.74 4631.85 2921.84 4671.57 2922.7 4711.18 C 2922.78 4714.53 2922.85 4717.87 2922.92 4721.22 C 2923.45 4746.68 2924.05 4772.13 2925.18 4797.58 C 2927.57 4853.9 2922.53 4905.46 2905.8 4959.39 C 2905.5 4960.39 2905.22 4961.38 2904.88 4962.41 C 2901.94 4971.96 2898.84 4981.47 2895.65 4990.94 C 2895.43 4991.64 2895.18 4992.34 2894.93 4993.07 C 2893.78 4996.51 2892.62 4999.96 2891.45 5003.41 C 2888.86 5011.07 2886.5 5018.78 2884.32 5026.56 C 2883.2 5030.5 2882.03 5034.39 2880.77 5038.3 C 2880.45 5039.35 2880.45 5039.35 2880.11 5040.44 C 2879 5043.94 2877.89 5047.43 2876.77 5050.91 C 2846.02 5147.61 2834.01 5249.46 2840.46 5423 C 2840.66 5425.92 2840.84 5428.83 2840.99 5431.74 C 2845.2 5500.97 2856.2 5571.28 2883.38 5635.48 C 2883.69 5636.19 2883.97 5636.89 2884.28 5637.62 C 2900.42 5675.85 2922.78 5710.94 2948.54 5743.36 C 2949.21 5744.19 2949.87 5745.03 2950.56 5745.9 C 2952.73 5748.63 2954.91 5751.33 2957.09 5754.03 C 2957.82 5754.94 2958.56 5755.86 2959.3 5756.81 C 2964.83 5763.6 2970.5 5770.27 2976.21 5776.88 C 2978.38 5779.4 2980.53 5781.92 2982.65 5784.46 C 2989.48 5792.52 2996.56 5800.31 3003.81 5808 C 3008.99 5813.52 3014.05 5819.19 3019.09 5824.84 C 3024.68 5831.11 3030.38 5837.22 3036.11 5843.34 C 3039.77 5847.24 3043.34 5851.21 3046.85 5855.27 C 3049.96 5858.8 3053.19 5862.2 3056.42 5865.65 C 3060.88 5870.41 3065.3 5875.18 3069.56 5880.15 C 3071.81 5882.7 3074.12 5885.18 3076.45 5887.67 C 3081.06 5892.73 3085.33 5897.99 3089.5 5903.43 C 3092.03 5906.72 3094.64 5909.88 3097.4 5912.99 C 3101.59 5917.71 3105.34 5922.68 3109.08 5927.73 C 3109.78 5928.67 3110.48 5929.62 3111.21 5930.59 C 3113.25 5933.32 3115.26 5936.06 3117.3 5938.81 C 3117.8 5939.51 3118.32 5940.2 3118.85 5940.91 C 3129.58 5955.47 3140.26 5970.64 3148.26 5986.89 C 3148.67 5987.68 3149.07 5988.49 3149.48 5989.3 C 3154.92 6000.41 3160.29 6011.49 3164.29 6023.19 C 3164.55 6023.93 3164.8 6024.65 3165.07 6025.41 C 3174.32 6051.91 3176.71 6078.72 3172.83 6106.5 C 3172.74 6107.22 3172.65 6107.95 3172.56 6108.68 C 3167.43 6146.9 3146.24 6183.33 3126.51 6215.78 C 3117.86 6229.95 3117.86 6229.95 3110.15 6244.64 C 3108.68 6247.62 3107.12 6250.52 3105.57 6253.44 C 3089 6284.23 3075.02 6316.63 3061.76 6348.95 C 3061.1 6350.53 3060.46 6352.1 3059.83 6353.67 C 3058.85 6355.98 3057.91 6358.31 3056.98 6360.63 C 3055.02 6365.39 3052.98 6370.13 3050.95 6374.86 C 3047.39 6383.09 3044.19 6391.46 3041.09 6399.87 C 3040.55 6401.26 3040.05 6402.64 3039.52 6404.02 C 3039.26 6404.73 3039.01 6405.44 3038.75 6406.16 C 3036.49 6412.14 3034.12 6418.06 3031.72 6423.99 C 3029.02 6430.66 3026.48 6437.33 3024.29 6444.18 C 3021.45 6452.95 3018.25 6461.58 3014.76 6470.11 C 3012.13 6476.61 3009.82 6483.19 3007.65 6489.86 C 3005.74 6495.73 3003.65 6501.56 3001.59 6507.39 C 2998.76 6515.42 2996.09 6523.51 2993.39 6531.6 C 2991.54 6537.21 2989.67 6542.81 2987.81 6548.4 C 2987.27 6550.07 2986.72 6551.72 2986.16 6553.37 C 2983.03 6562.89 2979.8 6572.35 2976.37 6581.76 C 2974.39 6587.41 2972.68 6593.14 2970.97 6598.89 C 2970.47 6600.56 2969.95 6602.23 2969.45 6603.9 C 2969.17 6604.79 2968.92 6605.7 2968.65 6606.6 C 2960.06 6635.34 2960.06 6635.34 2955.11 6648.97 C 2953.69 6652.87 2952.42 6656.76 2951.28 6660.74 C 2949.67 6666.1 2947.76 6671.26 2945.66 6676.45 C 2945.31 6677.38 2944.93 6678.3 2944.55 6679.24 C 2940.99 6687.96 2936.95 6696.33 2932.52 6704.62 C 2932.01 6705.61 2931.49 6706.6 2930.97 6707.61 C 2926.61 6715.46 2920.6 6721.75 2914.35 6728.12 C 2913.76 6728.79 2913.16 6729.45 2912.55 6730.12 C 2903.05 6739.66 2886.81 6742.13 2874.05 6742.26 C 2859.76 6742.3 2846.16 6741.55 2832.12 6738.8 C 2831.84 6739.43 2831.59 6740.07 2831.29 6740.7 C 2822.55 6760.69 2822.55 6760.69 2812.89 6765.5 C 2790.75 6768.43 2774.26 6754.51 2757.35 6742 C 2756.64 6742.4 2755.93 6742.81 2755.19 6743.2 C 2752.64 6744.59 2750.09 6745.98 2747.55 6747.36 C 2746.2 6748.09 2744.84 6748.84 2743.48 6749.58 C 2733.75 6754.92 2724.11 6759.74 2713.56 6763.37 C 2712.76 6763.65 2711.95 6763.92 2711.13 6764.2 C 2709.62 6764.73 2708.09 6765.23 2706.55 6765.71 C 2704.62 6766.35 2702.67 6767.06 2700.79 6767.8 C 2688.37 6772.4 2675.64 6774.03 2662.58 6775.76 C 2660.2 6775.94 2660.2 6775.94 2659.09 6777.25 C 2656.97 6777.37 2654.83 6777.4 2652.72 6777.4 C 2651.41 6777.4 2650.12 6777.4 2648.78 6777.4 C 2647.41 6777.4 2646.07 6777.4 2644.67 6777.38 C 2643.3 6777.4 2641.95 6777.4 2640.56 6777.4 C 2639.26 6777.4 2637.97 6777.4 2636.63 6777.4 C 2635.43 6777.4 2634.23 6777.4 2633 6777.4 C 2630.25 6777.25 2630.25 6777.25 2629.18 6776.18 C 2627.56 6775.9 2625.93 6775.66 2624.31 6775.45 C 2601.32 6772.22 2581.22 6765.59 2561.89 6752.69 C 2561.29 6753.29 2560.66 6753.87 2560.05 6754.5 C 2548.46 6765.41 2534.76 6774.93 2518.37 6775.66 C 2510.43 6775.31 2504.62 6772.03 2499.21 6766.28 C 2496.76 6763.06 2495.2 6759.58 2493.53 6755.89 C 2492.26 6756.49 2491.03 6757.08 2489.73 6757.7 C 2485.21 6759.68 2480.63 6761.42 2475.97 6763.04 C 2474.72 6763.48 2473.43 6763.92 2472.11 6764.38 C 2445.26 6772.35 2410.53 6766.26 2385.96 6754.02 C 2385.16 6753.58 2384.37 6753.14 2383.53 6752.69 C 2383.01 6753.28 2382.49 6753.85 2381.95 6754.44 C 2375.03 6761.8 2367.54 6766.8 2358.97 6771.91 C 2358.09 6772.51 2357.2 6773.1 2356.3 6773.71 C 2347.93 6778.85 2338.53 6777.72 2329.06 6777.25 C 2329.06 6776.55 2329.06 6775.83 2329.06 6775.11 C 2327.87 6774.88 2327.87 6774.88 2326.64 6774.65 C 2322.17 6772.1 2321.01 6768.12 2319.43 6763.37 C 2316.75 6751.89 2318.68 6740.1 2320.64 6728.66 C 2320.84 6727.37 2321.04 6726.1 2321.26 6724.78 C 2322.27 6718.77 2323.37 6712.99 2325.33 6707.2 C 2330.92 6690.54 2330.79 6674.89 2330.39 6657.42 C 2330.3 6651.85 2330.2 6646.27 2330.14 6640.68 C 2330.11 6639.34 2330.1 6637.96 2330.1 6636.56 C 2329.98 6623.23 2330.92 6610.03 2332.25 6596.74 C 2332.35 6595.82 2332.44 6594.91 2332.54 6593.96 C 2333.13 6588.24 2333.8 6582.55 2334.53 6576.86 C 2334.64 6576.02 2334.75 6575.18 2334.86 6574.3 C 2338.12 6549.89 2343.28 6525.22 2353.62 6502.76 C 2353.93 6502.07 2354.21 6501.4 2354.55 6500.7 C 2358.43 6492.24 2362.98 6484.56 2368.57 6477.13 C 2369.15 6476.34 2369.71 6475.55 2370.28 6474.72 C 2373.29 6470.54 2376.16 6467.39 2380.31 6464.31 C 2381.15 6463.48 2381.97 6462.64 2382.79 6461.78 C 2395.43 6449.37 2413.1 6442.42 2430.51 6440.81 C 2431.57 6440.67 2431.57 6440.67 2432.64 6440.54 C 2439.13 6439.73 2445.5 6439.59 2452.02 6439.61 C 2453.5 6439.61 2453.5 6439.61 2455.04 6439.6 C 2460.87 6439.61 2466.63 6439.84 2472.46 6440.27 C 2480.79 6440.86 2489.06 6441.08 2497.41 6441.14 C 2499.49 6441.19 2499.49 6441.19 2501.61 6441.24 C 2519.81 6441.36 2531.85 6435.47 2544.74 6423.04 C 2551.31 6416.53 2557.22 6409.62 2562.96 6402.36 C 2564.66 6400.29 2566.35 6398.22 2568.04 6396.15 C 2579.04 6382.67 2589.45 6368.8 2599.63 6354.64 C 2601.37 6352.22 2603.12 6349.79 2604.91 6347.36 C 2615.59 6332.69 2625.84 6317.73 2635.85 6302.6 C 2637.61 6299.97 2639.43 6297.4 2641.26 6294.81 C 2645.14 6289.32 2648.76 6283.67 2652.41 6278.02 C 2655.63 6273.02 2658.9 6268.05 2662.22 6263.1 C 2668.08 6254.41 2673.64 6245.53 2679.21 6236.65 C 2680.29 6234.91 2681.44 6233.19 2682.59 6231.47 C 2683.08 6228.57 2683.45 6225.73 2683.76 6222.82 C 2683.99 6221.03 2684.18 6219.24 2684.42 6217.45 C 2684.52 6216.52 2684.61 6215.59 2684.72 6214.61 C 2686.7 6197.2 2689.27 6180.05 2692.68 6162.86 C 2693.56 6158.49 2694.31 6154.08 2695.07 6149.7 C 2696.16 6143.46 2697.32 6137.25 2698.61 6131.07 C 2697.76 6130.45 2696.9 6129.84 2696 6129.21 C 2690.55 6124.61 2686.6 6118.73 2682.59 6112.91 C 2681.5 6111.3 2681.5 6111.3 2680.36 6109.66 C 2666.92 6088.69 2657.43 6064.13 2649.56 6040.6 C 2648.82 6038.36 2648.05 6036.14 2647.31 6033.9 C 2646.29 6030.88 2645.26 6027.86 2644.27 6024.83 C 2640.36 6013.05 2635.63 6002.46 2627.25 5993.15 C 2626.69 5992.51 2626.14 5991.89 2625.55 5991.24 C 2618.38 5983.14 2610.82 5975.85 2602.36 5969.05 C 2598.13 5965.66 2593.95 5962.13 2589.81 5958.62 C 2582.52 5952.62 2574.97 5946.97 2567.38 5941.41 C 2565.59 5940.11 2563.79 5938.8 2562.04 5937.49 C 2560.66 5936.49 2560.66 5936.49 2559.29 5935.48 C 2554.05 5931.63 2548.81 5927.75 2543.54 5923.9 C 2539.78 5921.12 2536.01 5918.32 2532.2 5915.56 C 2514.3 5902.52 2496.53 5889.18 2479.46 5875.06 C 2478.77 5874.49 2478.07 5873.92 2477.34 5873.33 C 2474.92 5871.31 2472.46 5869.28 2470.04 5867.25 C 2469.51 5866.81 2468.99 5866.38 2468.43 5865.91 C 2458.7 5857.84 2449.58 5849.24 2440.69 5840.24 C 2438.59 5838.13 2436.47 5836.02 2434.36 5833.9 C 2428.42 5827.95 2422.52 5822.03 2417.08 5815.63 C 2414.57 5812.7 2411.9 5809.91 2409.29 5807.11 C 2404.49 5801.95 2399.96 5796.63 2395.56 5791.13 C 2392.93 5787.99 2390.19 5784.99 2387.41 5782 C 2382.6 5776.85 2378.21 5771.45 2373.91 5765.87 C 2370.24 5761.17 2366.39 5756.73 2362.35 5752.33 C 2359.07 5748.7 2356.02 5744.91 2352.96 5741.11 C 2345.5 5731.96 2337.75 5723.05 2330.04 5714.15 C 2327.19 5710.89 2324.35 5707.63 2321.57 5704.33 C 2311.14 5691.99 2300.15 5680.23 2288.79 5668.71 C 2288.21 5668.1 2287.58 5667.48 2286.95 5666.84 C 2283.32 5663.19 2279.55 5659.91 2275.52 5656.7 C 2268.88 5651.34 2262.9 5645.43 2256.92 5639.38 C 2255.1 5637.55 2253.27 5635.72 2251.41 5633.89 C 2245.99 5628.42 2240.62 5622.94 2235.62 5617.06 C 2232.86 5613.86 2229.94 5610.8 2227.05 5607.7 C 2221.14 5601.36 2215.37 5594.91 2209.75 5588.3 C 2208.67 5587.02 2207.58 5585.75 2206.49 5584.47 C 2205.95 5583.83 2205.4 5583.19 2204.82 5582.53 C 2201.21 5578.32 2197.52 5574.19 2193.73 5570.12 C 2189.24 5565.3 2185.06 5560.28 2180.93 5555.13 C 2177.76 5551.35 2174.43 5547.74 2171.06 5544.14 C 2167.91 5540.73 2164.92 5537.24 2162.04 5533.62 C 2157.72 5528.23 2153.09 5523.23 2148.35 5518.21 C 2143.9 5513.47 2139.77 5508.53 2135.7 5503.45 C 2133.86 5501.21 2131.94 5499.18 2129.85 5497.16 C 2126.97 5494.36 2124.42 5491.39 2121.91 5488.21 C 2115.54 5480.3 2108.48 5473.06 2101.49 5465.69 C 2098.58 5462.64 2095.72 5459.55 2092.88 5456.45 C 2091.84 5455.32 2090.82 5454.22 2089.8 5453.1 C 2089.29 5452.53 2088.78 5451.99 2088.24 5451.4 C 2080.01 5442.5 2071.78 5433.66 2063.17 5425.14 C 2059.65 5421.66 2056.39 5418.06 2053.17 5414.31 C 2047.7 5408.12 2041.7 5402.53 2035.44 5397.18 C 2032.82 5394.81 2030.31 5392.32 2027.86 5389.82 C 2023.38 5385.31 2018.81 5381.09 2013.97 5377 C 2012.88 5376.05 2011.76 5375.11 2010.68 5374.18 C 2009.49 5373.18 2008.34 5372.18 2007.16 5371.2 C 2006.61 5370.71 2006.05 5370.24 2005.47 5369.75 C 2002.63 5367.11 2002.63 5367.11 1999.02 5366.32 C 1997.41 5368.63 1995.97 5370.91 1994.54 5373.33 C 1994.12 5374.06 1993.69 5374.79 1993.25 5375.53 C 1988.95 5382.91 1985.22 5390.49 1981.92 5398.37 C 1981.63 5399.05 1981.36 5399.76 1981.04 5400.47 C 1967.04 5434.49 1970.6 5472.06 1983.99 5505.67 C 1986.83 5512.49 1990.14 5518.99 1993.68 5525.47 C 1994.52 5527.05 1995.37 5528.63 1996.22 5530.22 C 2001.91 5540.8 2008.17 5550.84 2015.04 5560.7 C 2015.62 5561.55 2016.18 5562.4 2016.79 5563.26 C 2023.58 5573.1 2030.43 5582.84 2037.8 5592.23 C 2040.8 5596.1 2043.71 5600.02 2046.63 5603.94 C 2053.02 5612.48 2059.42 5620.91 2066.31 5629.07 C 2067.29 5630.25 2068.27 5631.41 2069.23 5632.6 C 2073.84 5638.15 2078.51 5643.6 2083.73 5648.62 C 2085.47 5650.35 2087.05 5652.16 2088.63 5654.04 C 2093.8 5659.99 2099.39 5665.51 2104.98 5671.07 C 2106.83 5672.93 2108.68 5674.78 2110.52 5676.64 C 2116.01 5682.12 2121.51 5687.51 2127.41 5692.54 C 2130.9 5695.6 2134.11 5698.94 2137.33 5702.23 C 2141.98 5706.94 2146.66 5711.52 2151.73 5715.8 C 2155.31 5718.97 2158.63 5722.42 2161.98 5725.83 C 2164.86 5728.74 2167.72 5731.51 2170.85 5734.14 C 2175.7 5738.27 2180.12 5742.82 2184.57 5747.37 C 2187.61 5750.48 2190.72 5753.44 2194.03 5756.27 C 2200.84 5762.13 2207.05 5768.63 2213.37 5774.99 C 2214.68 5776.31 2215.97 5777.61 2217.27 5778.93 C 2219.69 5781.33 2222.06 5783.73 2224.47 5786.14 C 2227.3 5788.98 2230.09 5791.81 2232.93 5794.63 C 2241.46 5803.16 2241.46 5803.16 2243.79 5805.49 C 2246.34 5808.05 2248.92 5810.61 2251.51 5813.16 C 2253.28 5814.92 2255.07 5816.69 2256.83 5818.45 C 2257.71 5819.33 2258.61 5820.2 2259.5 5821.1 C 2264.2 5825.76 2268.7 5830.52 2273.02 5835.54 C 2274.86 5837.66 2276.82 5839.65 2278.86 5841.61 C 2282.28 5845 2285.5 5848.52 2288.65 5852.17 C 2290.83 5854.68 2293.05 5857.12 2295.28 5859.58 C 2300.32 5865.17 2305.08 5870.99 2309.83 5876.87 C 2311.41 5878.77 2312.99 5880.69 2314.57 5882.61 C 2331.27 5903.07 2347.97 5924.85 2360.02 5948.43 C 2360.7 5949.69 2361.38 5950.94 2362.06 5952.19 C 2378.29 5982.95 2384.8 6016.98 2374.99 6050.96 C 2371.3 6061.83 2366.55 6072.47 2360.02 6081.94 C 2359.43 6082.83 2358.79 6083.73 2358.18 6084.66 C 2346.12 6101.83 2331.68 6117.06 2315.17 6130 C 2314.24 6130.76 2313.31 6131.52 2312.37 6132.29 C 2294.71 6146.38 2275.27 6158.92 2255.35 6169.52 C 2253.84 6170.37 2252.33 6171.21 2250.84 6172.05 C 2236.56 6179.99 2221.99 6187.44 2207.16 6194.29 C 2203.04 6196.19 2199 6198.22 2194.93 6200.29 C 2191.14 6202.2 2187.41 6204.05 2183.4 6205.5 C 2179.83 6206.8 2176.61 6208.28 2173.22 6210.02 C 2171.7 6210.81 2170.15 6211.58 2168.59 6212.33 C 2155.66 6218.64 2143.81 6225.85 2132.28 6234.36 C 2130.39 6235.74 2128.46 6237.1 2126.54 6238.45 C 2119.73 6243.25 2113.11 6248.18 2106.7 6253.52 C 2103.25 6256.39 2099.74 6259.15 2096.21 6261.9 C 2087.19 6268.96 2078.36 6276.2 2069.72 6283.67 C 2064.17 6288.46 2058.51 6293.05 2052.68 6297.53 C 2048.19 6301.04 2043.85 6304.69 2039.53 6308.44 C 2033.2 6313.93 2026.66 6319.11 2019.94 6324.15 C 2017.64 6325.9 2015.35 6327.67 2013.03 6329.47 C 2011.87 6330.35 2010.72 6331.25 2009.58 6332.13 C 2006.7 6334.34 2003.84 6336.54 2000.99 6338.76 C 1994.11 6344.16 1987.06 6349.25 1979.83 6354.16 C 1975.61 6357.02 1971.47 6359.93 1967.35 6362.93 C 1962.07 6366.75 1956.83 6370.35 1951.05 6373.39 C 1948.7 6374.65 1946.47 6376 1944.21 6377.38 C 1919.79 6392.12 1894.98 6403.53 1867.46 6411.09 C 1863.79 6412.15 1860.46 6413.66 1856.97 6415.17 C 1854.84 6415.84 1852.7 6416.48 1850.57 6417.1 C 1842.5 6419.53 1834.81 6422.63 1827.07 6425.85 C 1826.26 6426.2 1825.46 6426.52 1824.61 6426.87 C 1819.44 6429.02 1814.29 6431.2 1809.13 6433.4 C 1807.01 6434.29 1804.9 6435.18 1802.75 6436.07 C 1795.58 6439.08 1788.61 6442.35 1781.69 6445.91 C 1775.65 6448.94 1769.52 6451.69 1763.37 6454.42 C 1752.9 6459.09 1742.89 6464.41 1732.88 6470.01 C 1728.99 6472.17 1725.07 6474.22 1721.08 6476.18 C 1715.74 6478.84 1710.51 6481.75 1705.3 6484.61 C 1704.4 6485.09 1703.53 6485.57 1702.62 6486.06 C 1690.61 6492.55 1678.66 6499.14 1666.85 6505.96 C 1664.48 6507.32 1662.09 6508.67 1659.7 6510.03 C 1646.95 6517.31 1634.22 6524.62 1621.66 6532.23 C 1616.4 6535.4 1611.11 6538.48 1605.77 6541.55 C 1595.92 6547.21 1586.19 6553.05 1576.45 6558.91 C 1572.86 6561.08 1569.23 6563.25 1565.63 6565.42 C 1563.79 6566.51 1561.94 6567.64 1560.11 6568.77 C 1551.98 6573.67 1543.57 6577.68 1534.99 6581.66 C 1531.14 6583.44 1527.4 6585.32 1523.66 6587.26 C 1501.27 6598.53 1476.42 6605.45 1452.31 6611.87 C 1450.14 6612.46 1447.98 6613.03 1445.81 6613.64 C 1431.23 6617.61 1416.65 6620.18 1401.7 6622.19 C 1400.85 6622.3 1400.02 6622.41 1399.14 6622.52 C 1373.74 6625.88 1346.49 6628.73 1321.45 6621.64 C 1314.96 6619.85 1309.26 6620.4 1302.64 6621.31 C 1296.28 6622.13 1290.03 6622.56 1283.65 6622.6 C 1282.75 6622.61 1281.88 6622.61 1280.98 6622.61 C 1239.67 6622.9 1199.19 6619.33 1158.3 6613.88 C 1152.25 6613.07 1146.2 6612.33 1140.12 6611.64 C 1133.01 6610.83 1125.97 6609.75 1118.93 6608.49 C 1116.72 6608.13 1114.52 6607.77 1112.35 6607.41 C 1108.48 6606.78 1104.63 6606.07 1100.82 6605.32 C 1092.76 6603.69 1092.76 6603.69 1084.99 6605.7 C 1082.37 6607.8 1082.37 6607.8 1079.98 6610.25 C 1070.34 6619.28 1057.1 6625.22 1043.92 6624.91 C 1039.92 6624.38 1037.59 6622.83 1034.55 6620.25 C 1032.8 6618.72 1032.8 6618.72 1030.28 6618.12 C 1027.16 6618.79 1024.31 6619.58 1021.32 6620.58 C 997.9 6628.13 970.963 6626.1 948.58 6615.85 C 946.585 6614.82 944.636 6613.8 942.688 6612.77 C 941.502 6612.28 940.344 6611.78 939.112 6611.29 C 923.09 6604.53 908.622 6593.58 895.964 6581.84 C 893.455 6579.57 890.89 6577.47 888.225 6575.38 C 887.747 6576.43 887.747 6576.43 887.269 6577.5 C 885.835 6580.72 884.355 6583.93 882.884 6587.13 C 882.139 6588.77 882.139 6588.77 881.358 6590.44 C 876.128 6601.34 868.213 6614.73 856.172 6619.17 C 853.304 6619.44 850.629 6619.58 847.752 6619.58 C 847.016 6619.6 846.272 6619.63 845.5 6619.66 C 839.985 6619.7 836.868 6618.45 832.677 6614.91 C 831.142 6612.77 831.142 6612.77 830.204 6610.63 C 829.873 6609.94 829.552 6609.22 829.211 6608.49 C 821.591 6588.5 832.337 6559.52 840.509 6540.88 C 841.336 6539.06 841.336 6539.06 841.216 6536.93 C 838.082 6534.92 834.92 6533.03 831.666 6531.2 C 826.527 6528.12 826.527 6528.12 825.194 6524.17 C 825.222 6496.88 852.844 6469.38 870.135 6450.55 C 872.047 6448.42 873.931 6446.27 875.797 6444.08 C 881.606 6437.42 888.032 6431.32 894.319 6425.13 C 896.782 6422.74 896.782 6422.74 898.694 6420.11 C 900.634 6417.77 902.463 6416 904.78 6414.04 C 908.631 6410.75 912.225 6407.19 915.782 6403.55 C 920.654 6398.62 925.719 6394.16 931.179 6389.83 C 934.36 6387.22 937.365 6384.47 940.344 6381.66 C 946.558 6375.88 953.13 6370.64 959.858 6365.48 C 962.037 6363.82 964.17 6362.14 966.321 6360.46 C 989.218 6342.65 1011.82 6326.94 1041.08 6322.52 C 1042.45 6322.3 1043.83 6322.08 1045.22 6321.85 C 1058.58 6319.73 1071.53 6318.89 1085.06 6318.91 C 1086.64 6318.91 1088.19 6318.91 1089.76 6318.9 C 1093.06 6318.9 1096.34 6318.9 1099.62 6318.91 C 1103.76 6318.92 1107.88 6318.91 1112.02 6318.91 C 1127.89 6318.89 1143.76 6318.99 1159.61 6319.73 C 1170.83 6320.22 1182.02 6320.35 1193.24 6320.38 C 1196.71 6320.39 1200.18 6320.41 1203.65 6320.45 C 1224.39 6320.56 1243.1 6318.25 1262.64 6311.3 C 1264.19 6310.77 1265.72 6310.26 1267.24 6309.72 C 1271.55 6308.23 1275.89 6306.7 1280.2 6305.17 C 1281.84 6304.58 1281.84 6304.58 1283.48 6303.99 C 1288.47 6302.2 1293.4 6300.37 1298.34 6298.51 C 1301.24 6297.4 1304.16 6296.31 1307.06 6295.23 C 1309.19 6294.44 1311.32 6293.63 1313.44 6292.83 C 1316.15 6291.81 1318.89 6290.8 1321.62 6289.79 C 1331.06 6286.31 1340.4 6282.56 1349.7 6278.73 C 1354.82 6276.62 1359.93 6274.54 1365.12 6272.59 C 1372.44 6269.82 1379.65 6266.8 1386.89 6263.84 C 1393.37 6261.18 1399.87 6258.61 1406.4 6256.14 C 1411.72 6254.07 1416.99 6251.85 1422.27 6249.63 C 1425.36 6248.31 1428.48 6246.99 1431.61 6245.69 C 1432.47 6245.31 1433.32 6244.96 1434.2 6244.6 C 1441.12 6241.67 1448.08 6238.78 1455.03 6235.86 C 1456.63 6235.2 1456.63 6235.2 1458.27 6234.53 C 1463.84 6232.2 1469.4 6229.89 1474.98 6227.56 C 1486.27 6222.88 1497.55 6218.15 1508.77 6213.31 C 1512.56 6211.69 1516.34 6210.06 1520.11 6208.44 C 1521.11 6208.03 1522.07 6207.6 1523.07 6207.18 C 1529.04 6204.6 1535.03 6202.09 1541.05 6199.6 C 1546.29 6197.41 1551.51 6195.15 1556.72 6192.91 C 1559.26 6191.83 1561.77 6190.75 1564.31 6189.65 C 1572.99 6185.95 1581.7 6182.22 1590.33 6178.39 C 1597.04 6175.43 1603.85 6172.68 1610.65 6170 C 1614.37 6168.49 1618.01 6166.92 1621.64 6165.27 C 1624.86 6163.84 1628.12 6162.49 1631.37 6161.15 C 1641.18 6157.07 1650.89 6152.84 1660.44 6148.16 C 1661.1 6147.83 1661.77 6147.51 1662.43 6147.17 C 1680.85 6138.02 1697.24 6126.35 1709.58 6109.71 C 1710.13 6108.98 1710.69 6108.24 1711.27 6107.49 C 1724.94 6088.46 1728.63 6065.18 1731.32 6042.47 C 1731.48 6041.28 1731.48 6041.28 1731.61 6040.06 C 1734.52 6015.95 1729.52 5997.32 1718.12 5976.2 C 1717.41 5974.88 1717.41 5974.88 1716.67 5973.51 C 1712.72 5966.13 1708.42 5958.99 1703.97 5951.89 C 1703.26 5950.78 1702.55 5949.66 1701.84 5948.51 C 1697.1 5940.98 1692.25 5933.54 1687.27 5926.17 C 1684.61 5922.23 1682.1 5918.24 1679.54 5914.23 C 1677.99 5911.77 1676.41 5909.31 1674.78 5906.9 C 1673.8 5905.35 1672.78 5903.82 1671.78 5902.29 C 1671.26 5901.53 1670.76 5900.75 1670.25 5899.96 C 1667.35 5895.47 1664.67 5890.95 1662.17 5886.22 C 1654.58 5871.9 1644.1 5861.23 1630.54 5852.3 C 1629.84 5851.84 1629.13 5851.38 1628.43 5850.92 C 1616.46 5843.1 1604.04 5836.73 1591.02 5830.93 C 1590.33 5830.62 1589.64 5830.33 1588.94 5830.01 C 1573.78 5823.22 1558.29 5817.63 1542.32 5813.06 C 1529.39 5809.35 1517.29 5805.64 1505.57 5798.9 C 1504.63 5798.37 1504.63 5798.37 1503.72 5797.83 C 1483.86 5786.52 1465.05 5773.28 1447.13 5759.15 C 1444.75 5757.29 1442.35 5755.46 1439.93 5753.62 C 1433.1 5748.42 1426.41 5743.05 1419.79 5737.62 C 1415.13 5733.82 1410.43 5730.12 1405.59 5726.56 C 1405.1 5726.11 1404.61 5725.66 1404.1 5725.2 C 1404.1 5724.49 1404.1 5723.78 1404.1 5723.06 C 1403.25 5722.72 1403.25 5722.72 1402.37 5722.38 C 1398.84 5720.36 1396.1 5717.64 1393.16 5714.86 C 1389.41 5711.33 1385.67 5707.84 1381.78 5704.47 C 1371.29 5695.34 1360.91 5685.86 1351.79 5675.35 C 1349.42 5672.63 1346.97 5670.03 1344.49 5667.39 C 1340.94 5663.53 1337.8 5659.6 1334.77 5655.34 C 1324.15 5640.47 1310.84 5627.61 1297.03 5615.73 C 1294.45 5613.52 1291.98 5611.22 1289.49 5608.91 C 1284.72 5604.57 1279.82 5600.46 1274.81 5596.41 C 1271.19 5593.45 1267.65 5590.4 1264.12 5587.35 C 1259.95 5583.76 1255.75 5580.2 1251.42 5576.8 C 1246.12 5572.62 1241.06 5568.19 1235.98 5563.76 C 1231.13 5559.53 1226.17 5555.41 1221.16 5551.35 C 1216.12 5547.21 1211.14 5542.98 1206.18 5538.76 C 1204.38 5537.22 1202.55 5535.68 1200.72 5534.14 C 1193.3 5527.88 1186.11 5521.44 1179.07 5514.76 C 1175.97 5511.83 1172.88 5508.98 1169.6 5506.2 C 1163.31 5500.73 1157.42 5494.73 1151.5 5488.82 C 1149.44 5486.75 1147.36 5484.72 1145.31 5482.67 C 1137.78 5475.19 1130.81 5467.59 1124.27 5459.25 C 1123.16 5457.97 1122.05 5456.71 1120.91 5455.44 C 1117.03 5450.92 1113.72 5446.02 1110.39 5441.09 C 1109.86 5440.37 1109.32 5439.65 1108.78 5438.91 C 1085.43 5406.22 1078.57 5361.95 1070.87 5323.6 C 1070.68 5322.72 1070.48 5321.84 1070.33 5320.93 C 1068.41 5311.48 1066.98 5301.99 1065.72 5292.43 C 1064.85 5285.92 1063.9 5279.42 1062.88 5272.93 C 1061 5261.21 1059.44 5249.47 1058.19 5237.67 C 1057.27 5228.83 1056.19 5220.01 1055.05 5211.19 C 1053.78 5201.19 1052.52 5191.2 1051.7 5181.14 C 1050.67 5168.63 1049.1 5156.2 1047.6 5143.73 C 1046.13 5131.69 1044.75 5119.65 1043.48 5107.58 C 1042.5 5098.1 1041.35 5088.68 1040.01 5079.24 C 1038.79 5070.56 1037.81 5061.85 1036.8 5053.13 C 1035.8 5044.24 1034.67 5035.36 1033.48 5026.49 C 1032.07 5015.97 1031.17 5005.57 1031.13 4994.96 C 1031.13 4993.38 1031.13 4993.38 1031.11 4991.78 C 1031.1 4988.41 1031.08 4985.05 1031.08 4981.69 C 1031.08 4979.96 1031.08 4979.96 1031.08 4978.19 C 1031.1 4961.34 1031.64 4945.05 1034.55 4928.41 C 1034.93 4926.06 1035.3 4923.7 1035.68 4921.35 C 1043.93 4872.29 1063.58 4826.67 1086.05 4782.6 C 1087.34 4780.05 1088.6 4777.52 1089.87 4774.97 C 1096.85 4760.72 1104.52 4746.84 1112.13 4732.92 C 1112.7 4731.9 1113.27 4730.86 1113.87 4729.8 C 1114.37 4728.88 1114.86 4727.96 1115.39 4727.01 C 1116.71 4724.55 1117.95 4722.06 1119.2 4719.53 C 1121.7 4714.43 1124.48 4709.47 1127.27 4704.52 C 1131.14 4697.62 1134.81 4690.66 1138.29 4683.54 C 1142.21 4675.52 1146.58 4667.75 1150.92 4659.96 C 1157.42 4648.28 1163.49 4636.46 1169.13 4624.34 C 1169.69 4623.13 1170.26 4621.93 1170.83 4620.68 C 1174.52 4612.64 1177.78 4604.5 1180.88 4596.24 C 1181.69 4594.13 1182.51 4592.02 1183.31 4589.92 C 1188.02 4577.55 1192.41 4565.23 1195.83 4552.45 C 1196.16 4551.22 1196.16 4551.22 1196.48 4549.97 C 1197.63 4545.66 1198.78 4541.35 1199.89 4537.04 C 1200.69 4533.98 1201.5 4530.94 1202.34 4527.92 C 1204.56 4519.87 1206.36 4511.84 1207.82 4503.63 C 1208.37 4500.49 1208.97 4497.35 1209.63 4494.21 C 1213.07 4477.5 1215.06 4460.61 1216.94 4443.68 C 1217.08 4442.1 1217.27 4440.53 1217.47 4438.95 C 1218.9 4426.26 1219.93 4413.62 1220.52 4400.85 C 1220.59 4399.4 1220.59 4399.4 1220.66 4397.93 C 1223.74 4327.87 1221.15 4257.65 1214.93 4187.87 C 1214.14 4178.8 1213.51 4169.73 1212.92 4160.66 C 1212.09 4148.16 1210.91 4135.74 1209.53 4123.3 C 1208.93 4117.93 1208.33 4112.56 1207.75 4107.19 C 1207.63 4106.15 1207.53 4105.12 1207.41 4104.05 C 1206.53 4095.75 1205.81 4087.47 1205.23 4079.16 C 1205.07 4077.05 1204.92 4074.93 1204.75 4072.82 C 1204.5 4069.68 1204.34 4066.56 1204.22 4063.4 C 1203.44 4053.05 1197.57 4046.62 1191.26 4038.87 C 1188.11 4034.91 1185.17 4030.8 1182.21 4026.68 C 1181.61 4025.88 1181.01 4025.07 1180.43 4024.22 C 1175.79 4017.77 1171.34 4011.19 1166.98 4004.52 C 1165.62 4002.49 1164.28 4000.48 1162.92 3998.45 C 1150.02 3979.11 1137.53 3959.5 1125.66 3939.53 C 1122.49 3934.22 1119.24 3928.98 1115.84 3923.82 C 1112.54 3918.71 1109.52 3913.54 1106.67 3908.16 C 1104.83 3904.78 1102.79 3901.52 1100.78 3898.24 C 1097.63 3893.22 1094.7 3888.15 1091.89 3882.92 C 1089.52 3878.53 1087.1 3874.17 1084.68 3869.81 C 1084.25 3869.02 1083.8 3868.23 1083.35 3867.41 C 1082.46 3865.85 1081.61 3864.28 1080.73 3862.71 C 1079.37 3860.27 1078.02 3857.86 1076.68 3855.44 C 1074.36 3851.24 1072.01 3847.03 1069.65 3842.83 C 1069.26 3842.14 1068.85 3841.43 1068.45 3840.68 C 1065.62 3835.66 1062.74 3830.69 1059.85 3825.74 C 1055.93 3819 1052.05 3812.31 1048.67 3805.27 C 1046.95 3801.88 1045.06 3798.6 1043.15 3795.31 C 1039.95 3789.79 1037.01 3784.2 1034.18 3778.48 C 1028.17 3766.37 1021.69 3754.5 1015.18 3742.65 C 1010.39 3733.93 1005.83 3725.16 1001.47 3716.24 C 999.36 3711.95 997.22 3707.67 995.09 3703.39 C 994.623 3702.49 994.182 3701.59 993.731 3700.64 C 990.836 3694.89 987.876 3689.17 984.815 3683.51 C 981 3676.4 977.526 3669.2 974.115 3661.88 C 971.385 3656.07 968.481 3650.38 965.447 3644.72 C 958.48 3631.66 952.156 3618.27 945.767 3604.93 C 943.616 3600.39 941.419 3595.84 939.259 3591.32 C 938.119 3588.97 936.989 3586.62 935.858 3584.26 C 933.266 3578.86 930.637 3573.47 927.925 3568.11 C 922.64 3557.62 917.694 3546.98 912.795 3536.3 C 910.984 3532.42 909.192 3528.55 907.399 3524.67 C 906.976 3523.69 906.498 3522.74 906.057 3521.74 C 902.123 3513.22 898.115 3504.73 894.098 3496.25 C 887.324 3481.95 880.797 3467.58 874.501 3453.06 C 872.589 3448.69 870.659 3444.34 868.719 3439.98 C 866.062 3434 863.406 3428.02 860.768 3422.01 C 860.226 3420.76 859.665 3419.5 859.095 3418.2 C 856.622 3412.52 854.278 3406.78 851.907 3401.06 C 851.033 3398.99 850.169 3396.92 849.315 3394.84 C 846.603 3388.38 843.9 3381.91 841.216 3375.43 C 840.849 3374.53 840.472 3373.63 840.076 3372.71 C 836.565 3364.25 833.127 3355.77 829.873 3347.2 C 828.007 3342.35 826.068 3337.53 824.119 3332.7 C 821.775 3326.84 819.44 3320.97 817.188 3315.07 C 814.311 3307.53 811.287 3300.03 808.281 3292.51 C 807.913 3291.62 807.564 3290.73 807.187 3289.8 C 806.296 3287.59 805.404 3285.36 804.503 3283.13 C 801.718 3276.2 798.969 3269.23 796.23 3262.27 C 790.724 3248.18 785.191 3234.13 779.161 3220.25 C 776.605 3214.38 774.224 3208.48 771.963 3202.48 C 767.882 3191.68 763.433 3181.02 758.938 3170.41 C 756.796 3165.36 754.71 3160.29 752.697 3155.2 C 742.401 3129.3 731.362 3103.66 720.092 3078.16 C 718.667 3074.9 717.298 3071.62 715.937 3068.34 C 712.794 3060.78 709.558 3053.29 706.313 3045.79 C 706.001 3045.09 705.707 3044.39 705.385 3043.66 C 701.129 3033.86 696.836 3024.08 692.479 3014.32 C 690.696 3010.32 688.949 3006.33 687.203 3002.34 C 674.371 2972.89 660.96 2943.66 647.466 2914.51 C 645.995 2911.33 644.524 2908.15 643.063 2904.97 C 634.974 2887.4 634.974 2887.4 626.416 2870.03 C 623.419 2864.11 620.698 2858.1 617.987 2852.07 C 613.905 2843 609.64 2834.09 605.127 2825.26 C 604.079 2823.18 603.04 2821.11 602.02 2819.02 C 598.435 2811.78 594.767 2804.63 590.962 2797.53 C 587.138 2790.4 583.59 2783.15 580.134 2775.83 C 575.335 2765.67 570.243 2755.7 564.939 2745.8 C 562.292 2740.83 559.7 2735.83 557.107 2730.84 C 548.89 2715.09 540.626 2699.36 532.215 2683.71 C 531.581 2682.55 530.947 2681.38 530.313 2680.18 C 524.135 2668.73 517.747 2657.46 511.074 2646.3 C 507.599 2640.43 504.225 2634.5 500.99 2628.49 C 498.545 2624 496.017 2619.58 493.489 2615.16 C 492.947 2614.21 492.404 2613.26 491.835 2612.28 C 480.675 2592.7 480.675 2592.7 468.781 2573.56 C 460.967 2561.48 454.634 2548.56 448.117 2535.75 C 445.093 2529.82 442.023 2523.87 438.952 2517.95 C 437.62 2515.39 436.278 2512.8 434.945 2510.22 C 433.309 2507.05 431.654 2503.86 430.009 2500.67 C 429.678 2500.05 429.356 2499.41 429.025 2498.77 C 422.306 2485.79 415.577 2472.81 408.775 2459.89 C 405.558 2453.75 402.377 2447.59 399.289 2441.4 C 395.272 2433.26 391.117 2425.2 386.953 2417.15 C 386.604 2416.48 386.254 2415.81 385.887 2415.13 C 381.419 2406.49 376.915 2397.87 372.393 2389.25 C 369.203 2383.18 366.041 2377.05 362.98 2370.9 C 356.987 2358.82 350.727 2346.86 344.522 2334.87 C 342.5 2330.99 340.487 2327.11 338.483 2323.22 C 332.747 2312.16 327.002 2301.08 321.184 2290.05 C 317.985 2283.92 314.795 2277.77 311.716 2271.57 C 307.69 2263.44 303.544 2255.39 299.362 2247.34 C 299.012 2246.67 298.681 2245.99 298.314 2245.3 C 293.846 2236.66 289.342 2228.04 284.801 2219.44 C 281.612 2213.34 278.45 2207.23 275.407 2201.08 C 271.436 2193.09 267.346 2185.16 263.264 2177.25 C 262.906 2176.59 262.556 2175.93 262.207 2175.24 C 258.411 2167.89 254.596 2160.55 250.791 2153.21 C 247.665 2147.23 244.568 2141.23 241.47 2135.23 C 240.495 2133.36 239.521 2131.49 238.547 2129.62 C 228.969 2111.28 222.111 2092.04 215.438 2072.48 C 213.195 2065.92 210.777 2059.44 208.268 2053 C 206.512 2048.32 205.124 2043.55 203.672 2038.77 C 201.677 2032.33 199.517 2025.96 197.366 2019.57 C 191.685 2002.63 186.097 1985.67 181.133 1968.51 C 179.423 1962.64 177.622 1956.78 175.82 1950.97 C 172.603 1940.62 169.477 1930.31 166.803 1919.83 C 165.745 1915.81 164.652 1911.79 163.567 1907.75 C 151.231 1862.2 139.217 1816.42 130.301 1770.08 C 129.676 1766.93 128.959 1763.82 128.279 1760.7 C 126.633 1753.15 125.319 1745.54 124.032 1737.93 C 123.159 1732.75 122.23 1727.57 121.247 1722.41 C 119.39 1712.71 117.864 1702.94 116.467 1693.14 C 116.228 1691.6 116.007 1690.07 115.786 1688.52 C 115.235 1684.75 114.693 1680.97 114.159 1677.18 C 113.875 1675.18 113.59 1673.19 113.305 1671.19 C 111.604 1659.16 110.538 1647.1 109.517 1635 C 109.426 1633.88 109.324 1632.75 109.214 1631.59 C 108.102 1618.6 107.311 1605.68 107.348 1592.63 C 107.348 1591.5 107.339 1590.36 107.339 1589.19 C 107.339 1583.8 107.403 1578.39 107.569 1573.01 C 107.753 1560.85 106.144 1553.56 97.678 1544.61 C 97.163 1544.08 96.63 1543.55 96.097 1543 C 94.158 1541.05 92.365 1538.99 90.582 1536.88 C 89.709 1535.91 89.709 1535.91 88.817 1534.91 C 85.848 1531.5 83.136 1527.87 80.415 1524.24 C 79.193 1522.65 77.97 1521.02 76.748 1519.43 C 76.159 1518.64 75.562 1517.86 74.955 1517.06 C 73.475 1515.11 71.986 1513.18 70.479 1511.25 C 59.687 1497.36 49.521 1483.04 39.648 1468.5 C 36.707 1464.16 33.729 1459.9 30.613 1455.69 C 17.587 1437.96 6.033 1419.1 -5.77 1400.55 C -7.112 1398.44 -8.463 1396.34 -9.796 1394.22 C -10.384 1393.3 -10.963 1392.4 -11.561 1391.45 C -13.261 1388.78 -14.952 1386.12 -16.653 1383.46 C -18.013 1381.32 -19.365 1379.2 -20.725 1377.06 C -21.185 1376.33 -21.644 1375.62 -22.113 1374.87 C -29.467 1363.29 -36.71 1351.64 -43.843 1339.92 C -45.286 1337.54 -46.729 1335.18 -48.182 1332.81 C -54.984 1321.71 -61.694 1310.58 -68.377 1299.42 C -69.728 1297.16 -71.07 1294.92 -72.431 1292.67 C -77.054 1284.99 -81.632 1277.27 -86.173 1269.52 C -88.985 1264.72 -91.826 1259.97 -94.685 1255.22 C -100.82 1245.04 -106.77 1234.76 -112.74 1224.51 C -115.97 1218.95 -119.22 1213.38 -122.45 1207.82 C -123.09 1206.75 -123.7 1205.68 -124.35 1204.57 C -128.37 1197.67 -132.42 1190.78 -136.48 1183.89 C -139.76 1178.33 -143 1172.76 -146.22 1167.17 C -153.02 1155.41 -159.9 1143.7 -166.83 1132.03 C -168.31 1129.56 -169.78 1127.07 -171.25 1124.58 C -171.81 1123.65 -171.81 1123.65 -172.38 1122.69 C -176.94 1115 -181.48 1107.3 -185.94 1099.56 C -194.57 1084.59 -203.26 1069.66 -212.5 1055.08 C -215.22 1050.75 -217.8 1046.34 -220.32 1041.88 C -224.19 1035.01 -228.36 1028.37 -232.58 1021.71 C -236.29 1015.9 -239.91 1010.05 -243.48 1004.17 C -248.71 995.54 -254.16 987.08 -259.67 978.63 C -260.95 976.64 -262.24 974.65 -263.5 972.66 C -269.17 963.75 -275.07 955.02 -281.09 946.348 C -282.19 944.767 -283.3 943.168 -284.4 941.587 C -297.33 922.936 -311.07 904.837 -326.19 887.868 C -328.14 889.008 -330.11 890.13 -332.06 891.279 C -333.7 892.235 -333.7 892.235 -335.36 893.191 C -337.93 894.726 -340.45 896.27 -342.97 897.869 C -378.18 919.967 -418.38 932.174 -458.98 939.657 C -460.75 939.997 -462.51 940.355 -464.28 940.76 C -472.7 942.616 -481.21 943.407 -489.79 944.262 C -492.45 944.547 -495.13 944.813 -497.79 945.117 C -502.9 945.65 -507.99 946.137 -513.12 946.615 C -514.99 946.799 -514.99 946.799 -516.93 946.964 C -530.67 948.07 -544.47 947.94 -558.24 947.96 C -559.57 947.96 -560.91 947.96 -562.31 947.97 C -585.68 947.97 -608.62 946.891 -631.8 943.912 C -646.09 942.148 -660.32 941.982 -674.71 941.844 C -698.16 941.624 -721.52 941.228 -744.89 939.142 C -746.42 939.013 -747.97 938.884 -749.55 938.765 C -805.65 934.196 -862.95 924.995 -915.77 904.966 C -916.71 904.598 -917.64 904.249 -918.61 903.89 C -941.57 895.084 -962.85 884.191 -982.32 869.116 C -982.93 868.638 -983.53 868.188 -984.15 867.701 C -986.65 865.725 -989 863.868 -991.06 861.414 C -996.74 854.731 -1003.4 853.609 -1011.8 851.891 C -1013.2 851.578 -1014.6 851.265 -1016 850.944 C -1020 850.052 -1023.9 849.206 -1027.9 848.352 C -1048.2 843.866 -1068 838.084 -1087.5 831.135 C -1088.7 830.694 -1090 830.262 -1091.3 829.811 C -1098.8 827.072 -1106.1 824.002 -1113.4 820.582 C -1114.3 820.141 -1115.3 819.7 -1116.3 819.249 C -1141.9 807.382 -1166 793.456 -1188.1 775.725 C -1189.2 774.898 -1190.2 774.052 -1191.3 773.197 C -1198.9 766.947 -1206 760.181 -1213 753.232 C -1213.9 752.34 -1214.8 751.458 -1215.8 750.548 C -1226.2 739.959 -1234.9 728.11 -1243.3 715.839 C -1244.4 714.147 -1245.5 712.456 -1246.8 710.783 C -1267.3 680.32 -1281.4 637.393 -1278.9 600.561 C -1280.2 601.103 -1280.2 601.103 -1281.6 601.691 C -1283.2 602.417 -1283.2 602.417 -1285.1 603.171 C -1286.2 603.649 -1287.4 604.127 -1288.5 604.624 C -1294.2 606.931 -1300.6 608.484 -1306.7 606.168 C -1310.3 604.164 -1313.2 602.077 -1315.2 598.428 C -1315.2 597.711 -1315.2 597.013 -1315.2 596.286 C -1316 596.286 -1316.6 596.286 -1317.3 596.286 C -1318 585.476 -1318 585.476 -1315.7 582.195 C -1314.4 581.248 -1314.4 581.248 -1313.1 580.265 C -1311.9 578.95 -1310.7 577.617 -1309.7 576.257 C -1308.3 574.74 -1307 573.223 -1305.7 571.716 C -1304.7 570.742 -1304.7 570.742 -1303.9 569.758 C -1292.6 557.937 -1278.5 548.717 -1265 539.672 C -1263.3 538.532 -1263.3 538.532 -1261.6 537.347 C -1243 524.606 -1223.5 513.208 -1203.9 502.012 C -1200.1 499.871 -1196.5 497.692 -1192.7 495.504 C -1168.4 481.229 -1144.3 467.809 -1118 457.762 C -1116.1 457.026 -1116.1 457.026 -1114.1 456.273 C -1106.9 453.561 -1099.7 451.097 -1092.3 448.891 C -1087.3 447.375 -1082.5 445.692 -1077.5 444.029 C -1061.9 438.707 -1046.1 433.899 -1030.1 429.671 C -1028.9 429.367 -1028.9 429.367 -1027.8 429.055 C -1022.9 427.759 -1017.9 426.573 -1013 425.387 C -1011.8 425.13 -1010.7 424.854 -1009.5 424.578 C -991.85 420.387 -974.15 416.223 -956.36 412.583 C -955.18 412.334 -954.01 412.086 -952.81 411.856 C -924.22 406.071 -895.33 401.778 -866.42 398.111 C -859.16 397.173 -852 396.033 -844.82 394.636 C -798.02 385.72 -750.82 382.319 -703.25 384.69 C -701.11 384.791 -698.97 384.902 -696.83 384.993 C -674.87 385.959 -653.23 388.422 -631.47 391.318 C -625.44 392.117 -619.39 392.862 -613.32 393.588 C -603.16 394.792 -593.09 396.346 -583 398.175 C -576.19 399.388 -569.39 400.427 -562.58 401.355 C -554.19 402.504 -545.96 404.012 -537.68 405.722 C -532.81 406.742 -527.93 407.597 -522.99 408.235 C -514.06 409.421 -505.29 411.388 -496.46 413.254 C -489.76 414.697 -483.04 416.039 -476.33 417.381 C -474.69 417.712 -474.69 417.712 -472.99 418.043 C -467.25 419.183 -461.49 420.332 -455.74 421.462 C -454.55 421.692 -453.37 421.931 -452.17 422.161 C -449.92 422.62 -447.7 423.052 -445.46 423.484 C -439.06 424.753 -432.7 426.242 -426.4 427.851 C -422.26 428.88 -418.09 429.68 -413.89 430.461 C -401.3 432.925 -388.78 435.903 -376.27 438.863 C -371.47 439.984 -366.66 441.115 -361.85 442.227 C -339.94 447.283 -339.94 447.283 -329.62 449.921 C -327.58 450.426 -327.58 450.426 -325.52 450.96 C -322.98 451.603 -320.43 452.265 -317.88 452.927 C -306.79 455.767 -298.39 456.778 -287.14 454.498 C -278.5 452.871 -269.9 451.511 -261.16 450.491 C -252.25 449.452 -243.39 448.165 -234.54 446.694 C -226.24 445.316 -218.01 444.176 -209.63 443.394 C -200.76 442.53 -191.96 441.142 -183.13 439.81 C -172.83 438.247 -162.54 436.776 -152.15 435.866 C -143.46 435.076 -134.83 433.871 -126.18 432.704 C -113.61 431.004 -101.08 429.34 -88.443 428.402 C -78.24 427.593 -68.083 426.389 -57.916 425.222 C -42.722 423.494 -27.582 421.802 -12.333 420.837 C -4.097 420.322 4.121 419.697 12.348 419.008 C 13.497 418.916 14.646 418.815 15.832 418.723 C 20.483 418.337 25.143 417.96 29.804 417.556 C 66.903 414.449 103.956 413.447 141.175 413.502 C 145.247 413.511 149.328 413.502 153.4 413.502 C 177.824 413.474 202.21 413.474 226.468 416.636 C 227.985 416.829 229.483 417.032 231 417.225 C 235.385 417.795 239.769 418.392 244.163 418.989 C 245.367 419.137 246.571 419.311 247.822 419.477 C 296.659 426.26 345.892 440.536 390.492 461.705 C 392.238 462.523 393.976 463.341 395.731 464.141 C 405.024 468.48 414.161 472.855 422.94 478.177 C 425.78 479.887 428.667 481.459 431.617 483.003 C 439.357 487.176 446.527 492.195 453.743 497.214 C 456.417 499.282 456.417 499.282 458.835 499.089 C 460.287 497.471 461.648 495.789 462.99 494.07 C 466.768 489.346 470.711 484.832 474.866 480.393 C 478.736 476.265 482.468 472.074 486.016 467.643 C 490.915 461.549 496.21 455.896 501.56 450.187 C 504.611 446.952 507.571 443.615 510.485 440.232 C 516.819 432.961 523.363 425.856 529.945 418.787 C 532.785 415.735 535.561 412.638 538.282 409.494 C 542.207 404.977 546.307 400.62 550.434 396.281 C 555.37 391.06 560.288 385.83 565.123 380.526 C 566.557 378.945 568.009 377.364 569.452 375.801 C 570.5 374.652 571.548 373.513 572.596 372.364 C 582.542 361.526 592.846 351.066 603.224 340.651 C 604.722 339.125 606.239 337.608 607.747 336.092 C 616.148 327.598 624.55 319.482 634.008 312.165 C 635.213 311.209 636.426 310.253 637.621 309.278 C 638.586 308.543 639.551 307.798 640.544 307.035 C 641.528 306.282 642.502 305.519 643.485 304.737 C 662.237 292.466 687.368 288.394 708.777 283.338 C 710.018 283.035 711.277 282.741 712.546 282.447 C 749.406 273.714 749.406 273.714 755.776 273.714 C 755.951 272.924 756.134 272.133 756.327 271.333 C 763.405 241.68 779.289 218.359 805.202 202.163 C 806.893 201.179 808.658 200.315 810.414 199.461 C 813.622 197.797 815.837 195.968 818.457 193.495 C 822.134 190.057 825.884 186.84 829.8 183.715 C 834.313 180.038 838.587 176.269 842.816 172.224 C 847.963 167.445 853.24 162.94 858.718 158.528 C 861.512 156.23 864.178 153.84 866.853 151.45 C 870.465 148.141 874.179 144.924 878.003 141.891 C 882.066 138.581 885.963 135.18 889.824 131.687 C 894.659 127.183 899.595 123.047 904.734 118.91 C 907.096 116.98 909.311 114.958 911.517 112.844 C 919.211 106.041 929.662 101.997 939.176 98.504 C 942.228 97.217 945.114 95.746 948.037 94.276 C 974.308 81.59 1000.72 75.156 1029.21 84.716 C 1033.18 86.095 1037.14 87.565 1041.06 89.128 C 1044.88 90.231 1044.88 90.231 1048.44 88.944 C 1050.41 87.106 1052.2 85.267 1053.97 83.245 C 1054.47 82.602 1054.99 82.05 1055.52 81.499 C 1059.6 76.903 1063.48 72.123 1067.31 67.343 C 1070.46 63.574 1073.82 59.989 1077.16 56.312 C 1080.35 52.911 1083.41 49.326 1086.35 45.649 C 1089.76 41.421 1093.33 37.377 1097.03 33.424 C 1101.52 28.552 1105.75 23.588 1109.89 18.441 C 1114.17 13.201 1118.63 8.146 1123.06 3.09 C 1123.61 2.447 1124.15 1.803 1124.74 1.16 C 1125.87 -0.127 1126.99 -1.414 1128.12 -2.701 C 1131.75 -6.653 1133.98 -10.146 1135.8 -15.294 C 1136.24 -16.489 1136.66 -17.684 1137.1 -18.787 C 1141.58 -32.943 1140.44 -49.029 1140.53 -63.644 C 1140.57 -66.77 1140.58 -69.803 1140.6 -72.928 C 1140.67 -81.753 1140.73 -90.485 1140.8 -99.31 C 1140.84 -104.64 1140.88 -110.06 1140.93 -115.49 C 1140.93 -117.51 1140.94 -119.53 1140.94 -121.55 C 1141.03 -137.27 1141.7 -152.44 1145.96 -167.7 C 1153.79 -199.14 1142.37 -227.81 1127.53 -255.02 C 1126.19 -257.5 1124.9 -260.08 1123.66 -262.75 C 1121.1 -267.89 1118.06 -272.86 1115.03 -277.82 C 1112.14 -282.6 1109.42 -287.38 1106.78 -292.34 C 1103.19 -298.96 1099.44 -305.67 1095.74 -312.29 C 1094.41 -314.68 1093.09 -317.07 1091.79 -319.46 C 1074.46 -350.9 1051.58 -369.19 1017.3 -379.48 C 992.288 -386.56 966.219 -389.69 940.528 -393.36 C 897.628 -399.43 858.341 -411.47 826.261 -441.85 C 824.91 -442.96 823.549 -444.15 822.189 -445.35 C 811.884 -454.35 802.701 -464.19 794.226 -474.94 C 792.618 -476.87 791.009 -478.81 789.419 -480.74 C 775.401 -497.83 762.394 -517.6 752.301 -537.36 C 740.333 -560.52 708.198 -575.69 686.118 -587.91 C 681.669 -590.4 677.312 -592.97 672.992 -595.64 C 668.212 -598.58 663.377 -601.43 658.45 -604.18 C 582.937 -646.19 582.937 -646.19 562.448 -672.57 C 561.299 -674.04 561.299 -674.04 560.113 -675.51 C 550.563 -687.92 542.382 -701.25 534.274 -714.67 C 533.76 -715.5 533.236 -716.42 532.693 -717.25 C 529.614 -722.39 526.838 -727.63 524.191 -733.06 C 522.04 -737.29 519.631 -741.42 517.232 -745.56 C 513.169 -752.64 509.594 -759.99 505.981 -767.34 C 503.885 -771.48 501.771 -775.71 499.675 -779.94 C 490.989 -797.22 482.357 -814.5 474.057 -832.06 C 470.858 -838.77 467.512 -845.38 464.13 -852.1 C 462.714 -854.85 461.326 -857.7 459.929 -860.55 C 459.203 -862.02 458.486 -863.4 457.759 -864.87 C 455.995 -868.27 454.266 -871.86 452.548 -875.35 C 446.352 -888.13 439.495 -900.54 431.902 -912.39 C 426.313 -921.13 422.03 -929.95 418.261 -939.6 C 417.949 -940.34 417.654 -941.07 417.323 -941.9 C 405.19 -973.34 398.765 -1007.4 397.956 -1041.1 C 397.947 -1041.8 397.919 -1042.6 397.891 -1043.4 C 397.073 -1077.1 400.134 -1113.5 410.779 -1145.7 C 410.144 -1145.9 409.501 -1146 408.848 -1146.1 C 403.646 -1147.6 400.382 -1153.4 397.891 -1158 C 392.56 -1169.6 389.674 -1181.2 388.35 -1193.8 C 388.258 -1194.4 388.185 -1195.1 388.083 -1196 C 387.394 -1201.6 387.109 -1207.3 387.063 -1213.2 C 387.054 -1214 387.045 -1214.8 387.045 -1215.8 C 386.778 -1256 390.409 -1295 405.438 -1332.7 C 405.714 -1333.3 405.971 -1334 406.256 -1334.7 C 417.323 -1363.1 436.958 -1390.8 465.389 -1403.5 C 476.989 -1408.3 487.965 -1409.9 500.438 -1409.9 C 502.203 -1409.9 502.203 -1409.9 504.014 -1409.9 C 507.829 -1409.9 511.643 -1409.9 515.458 -1409.9 C 516.754 -1409.9 518.05 -1409.9 519.392 -1409.9 C 537.868 -1409.8 555.94 -1409.4 574.196 -1406.4 C 575.335 -1406.1 576.475 -1405.9 577.633 -1405.8 C 596.826 -1402.7 615.394 -1397.9 634.008 -1392.5 C 635.176 -1392 636.362 -1391.7 637.566 -1391.4 C 655.821 -1386 655.821 -1386 664.646 -1382.8 C 669.196 -1381 673.691 -1379.6 678.406 -1378.4 C 682.864 -1377.3 687.295 -1376.1 691.689 -1374.8 C 697.36 -1373 703.151 -1371.9 708.97 -1370.8 C 712.619 -1370.1 716.232 -1369.2 719.862 -1368.4 C 728.135 -1366.6 736.473 -1365.5 744.819 -1364.1 C 752.209 -1363 759.508 -1361.6 766.834 -1360.1 C 771.384 -1359.1 775.943 -1358.5 780.53 -1357.8 C 787.626 -1356.6 794.668 -1355.4 801.69 -1354 C 808.612 -1352.5 815.534 -1351.3 822.529 -1350.3 C 829.515 -1349.2 836.436 -1347.9 843.349 -1346.5 C 851.089 -1345 858.828 -1343.5 866.632 -1342.4 C 872.947 -1341.4 879.207 -1340.2 885.476 -1339.1 C 893.657 -1337.4 901.856 -1336.1 910.083 -1334.9 C 916.545 -1333.9 922.897 -1332.7 929.276 -1331.6 C 937.623 -1329.9 945.96 -1328.6 954.371 -1327.4 C 961.246 -1326.4 968.104 -1325.4 974.933 -1324.2 C 1109.38 -1298 1109.38 -1298 1233.82 -1340.4 C 1244.59 -1348.1 1255.27 -1356.4 1264.5 -1365.9 C 1266.39 -1367.9 1268.39 -1369.7 1270.44 -1371.4 C 1277.96 -1377.9 1284.82 -1385.1 1291.26 -1392.6 C 1292.97 -1394.5 1294.76 -1396.3 1296.62 -1398.1 C 1300.61 -1402 1304.05 -1406.4 1307.56 -1410.7 C 1310.98 -1414.9 1314.63 -1418.9 1318.27 -1422.8 C 1320.47 -1425.1 1322.6 -1427.6 1324.72 -1430.1 C 1325.91 -1431.5 1327.07 -1432.8 1328.28 -1434.1 C 1328.78 -1434.7 1329.29 -1435.3 1329.82 -1435.8 C 1346.04 -1453.3 1369.72 -1465.3 1391.3 -1474.7 C 1392.38 -1475.1 1392.38 -1475.1 1393.49 -1475.7 C 1419.55 -1486.9 1446.78 -1495.2 1474.61 -1500.9 C 1476.12 -1501.1 1477.65 -1501.6 1479.18 -1502 C 1489.65 -1504.4 1499.3 -1503.7 1509.85 -1502 C 1540.5 -1496.7 1569.95 -1501 1599.72 -1509.1 C 1609.75 -1511.7 1620.12 -1514.4 1630.54 -1514.2 C 1630.54 -1514.8 1630.54 -1515.6 1630.54 -1516.3 Z" fill="#000000" style=""/>
  <path d="M -1344.4 -1187 L -1249.9 -1045.4 C -1249.9 -1045.4 -1203.9 -969.98 -1379.1 -781.98 C -1608.2 -536.18 -1974 -362.18 -2327.1 -299.18 C -2390.3 -287.88 -2386.9 -285.08 -2442.8 -254.18 L -3167.2 207.72 C -3167.2 207.72 -3204.9 232.52 -3201.3 257.22 C -3197.5 282.82 -3226.1 303.12 -3250.8 310.52 C -3276 318.02 -3306 299.22 -3334.3 256.92 C -3361.6 216.12 -3379.4 173.12 -3350.1 153.22 C -3318.8 131.92 -3297.1 127.42 -3281.5 137.52 C -3261.4 150.32 -3222.9 124.62 -3222.9 124.62 C -3218.4 121.12 -2520.3 -370.78 -2520.3 -370.78 C -2506.3 -380.58 -2460.8 -433.48 -2438.7 -470.28 C -2251.4 -780.58 -1944.7 -1037 -1633.7 -1157.8 C -1393.1 -1251.3 -1344.4 -1187 -1344.4 -1187 Z" fill="#010101" style="stroke-width: 1; transform-box: fill-box; transform-origin: 50% 50%;" transform="matrix(-0.43151, -0.902108, 0.902108, -0.43151, 0.000208, -0.000114)"/>
  <path d="M -355.79 -6935.2 L -261.32 -6793.6 C -261.32 -6793.6 -215.29 -6718.2 -390.49 -6530.2 C -619.53 -6284.4 -985.36 -6110.4 -1338.4 -6047.4 C -1401.7 -6036.1 -1398.3 -6033.3 -1454.1 -6002.4 L -2178.4 -5540.6 C -2178.4 -5540.6 -2216.2 -5515.8 -2212.6 -5491 C -2208.8 -5465.5 -2237.3 -5445.1 -2262.1 -5437.8 C -2287.3 -5430.3 -2317.3 -5449.1 -2345.7 -5491.3 C -2372.9 -5532.2 -2390.7 -5575.2 -2361.4 -5595.1 C -2330.2 -5616.4 -2308.3 -5620.8 -2292.8 -5610.8 C -2272.7 -5598 -2234.2 -5623.6 -2234.2 -5623.6 C -2229.7 -5627.2 -1531.7 -6119 -1531.7 -6119 C -1517.7 -6128.8 -1472.2 -6181.7 -1450 -6218.5 C -1262.6 -6528.9 -956.09 -6785.2 -645.03 -6906.1 C -404.44 -6999.6 -355.79 -6935.2 -355.79 -6935.2 Z" fill="#010101" style="stroke-width: 1; transform-origin: -1316.2px -6196.39px;" transform="matrix(0.959462, 0.281838, -0.281838, 0.959462, 0.000025, -0.000199)"/>
  <path d="M 733.797 -4278.6 L 828.267 -4137 C 828.267 -4137 874.297 -4061.6 699.087 -3873.6 C 470.056 -3627.8 104.226 -3453.8 -248.89 -3390.8 C -312.11 -3379.5 -308.72 -3376.7 -364.57 -3345.8 L -1089 -2883.9 C -1089 -2883.9 -1126.7 -2859.1 -1123.1 -2834.3 C -1119.3 -2808.8 -1147.9 -2788.4 -1172.6 -2781.1 C -1197.8 -2773.6 -1227.8 -2792.4 -1256.1 -2834.6 C -1283.4 -2875.5 -1301.2 -2918.5 -1271.9 -2938.4 C -1240.6 -2959.7 -1218.9 -2964.1 -1203.3 -2954.1 C -1183.2 -2941.3 -1144.7 -2966.9 -1144.7 -2966.9 C -1140.2 -2970.5 -442.11 -3462.4 -442.11 -3462.4 C -428.12 -3472.2 -382.6 -3525.1 -360.45 -3561.9 C -173.17 -3872.3 133.506 -4128.6 444.546 -4249.5 C 685.137 -4343 733.797 -4278.6 733.797 -4278.6 Z" fill="#010101" style="stroke-width: 1; transform-origin: -226.624px -3539.73px;" transform="matrix(-0.745936, 0.666018, -0.666018, -0.745936, 0.000335, -0.000631)"/>
  <path style="stroke-width: 1500; stroke: rgb(255, 0, 0); fill: rgb(255, 255, 255); transform-box: fill-box; transform-origin: 50% 50%;" d="M -6000 6000 L 6000 -6000" transform="matrix(0.139173, 0.990268, -0.990268, 0.139173, 0, 0)"/>
</svg>