<?xml version="1.0" encoding="utf-8"?>
<svg version="1.1" xmlns="http://www.w3.org/2000/svg" height="1000" viewBox="-9000 -9000 18000 18000" xmlns:bx="https://boxy-svg.com">
  <defs>
    <bx:export>
      <bx:file format="png" path="no-dog-trumpet.png" width="125" height="125">
        <bx:variant scale="2" suffix="@2x"/>
        <bx:variant scale="4" suffix="@4x"/>
        <bx:variant scale="8" suffix="@8x"/>
        <bx:variant scale="16" suffix="@16x"/>
      </bx:file>
      <bx:file format="png" href="#object-0" path="no-dog-trumpet.png" width="125" height="125">
        <bx:variant scale="2" suffix="@2x"/>
        <bx:variant scale="4" suffix="@4x"/>
        <bx:variant scale="8" suffix="@8x"/>
        <bx:variant scale="16" suffix="@16x"/>
      </bx:file>
    </bx:export>
  </defs>
  <ellipse style="stroke: rgb(255, 0, 0); stroke-width: 1500; fill: rgb(255, 255, 255);" rx="8136.24" ry="8136.24" transform="matrix(0.990268, -0.139173, 0.139173, 0.990268, 0, 0)" id="object-0"/>
  <path d="M -1681.3 5705.66 C -1656.64 5707.57 -1471.882 5286.005 -1420.3 5135.31 C -1406.649 5095.428 -1049.394 3970.193 -982.05 3741.95 C -974.495 3716.345 -834.226 2999.831 -816.82 2927.09 C -776.221 2757.42 -679.34 2422.09 -679.34 2422.09 C -640.169 2281.817 -186.746 1679.185 -79.216 1632.94 C 720.011 1289.221 1097.637 332.57 1232.06 60.581 C 1424.566 -328.93 1684.579 -1795.669 1688.11 -1821 C 1824.961 -2802.827 1488.85 -3750.081 1485.2 -3766.9 C 1453.329 -3913.766 1525.773 -4131.141 1397.29 -4209.1 C 1144.652 -4362.393 -1080.454 -4385.351 -1200.2 -4367.6 C -1204.519 -4366.96 -1322.001 -4287.577 -1294 -4250.1 C -1168.214 -4081.747 -985.209 -3963.536 -815.49 -3839.6 C -792.718 -3822.971 -726.992 -3827.722 -730.9 -3825.7 C -947.68 -3713.498 -1162.509 -3380.775 -1258.626 -3149.509 C -1409.266 -2787.058 -1473.059 -2393.788 -1555.8 -2010.1 C -1570.2 -1943.325 -1544.877 -1873.514 -1548.5 -1805.3 C -1554.367 -1694.847 -1561.423 -1583.638 -1584.2 -1475.4 C -1599.175 -1404.238 -1707.147 -1226.569 -1742.1 -1168.8 C -1746.363 -1341.39 -1887.93 -1793.744 -1961.6 -1992.9 C -2045.864 -2220.696 -2278.871 -2973.414 -2303.9 -3052.5 C -2306.219 -3059.828 -2682.436 -3784.219 -2701.2 -3832.4 C -2709.979 -3854.944 -2712.885 -3880.002 -2724.9 -3901 C -2754.778 -3953.215 -2854.76 -4075.996 -2859.1 -4076.9 C -3069.758 -4120.791 -3286.175 -4253.055 -3493.6 -4195.8 C -3608.919 -4163.969 -3642.713 -3982.996 -3630.4 -3864 C -3622.405 -3786.731 -3236.236 -3646.027 -3229.2 -3640.6 C -3225.716 -3637.913 -3058.862 -3449.558 -3034.9 -3378.2 C -3010.669 -3306.044 -2878.184 -2970.188 -2856.4 -2746.4 C -2849.713 -2677.707 -2580.781 -1398.83 -2580.9 -1375 C -2581.849 -1185.017 -2588.261 -995.087 -2594.7 -805.21 C -2595.066 -794.403 -2927.008 -16.87 -2944.4 22.306 C -2949.518 33.834 -3047.774 726.436 -3045.5 1004.43 C -3044.029 1184.286 -3006.108 1362.006 -2989.3 1541.08 C -2967.107 1777.527 -2952.626 2014.682 -2928.5 2250.94 C -2914.484 2388.188 -2716.491 3078.822 -2819.4 3244.94 C -2926.591 3417.97 -3197.691 3395.805 -3382.6 3480.88 C -3504.303 3536.874 -3869.882 3665.209 -3916.6 3894.05 C -3946.182 4026.23 -4006.062 4153.903 -4011.1 4289.26 C -4012.675 4331.577 -3965.9 4361.997 -3935.1 4391.06 C -3921.832 4403.579 -2967.044 4608.408 -2958.2 4614.42 C -2954.545 4616.905 -2767.788 4836.03 -2763.3 4838.47 C -2686.502 4880.218 -2383.98 5038.057 -2310.5 5077.15 C -2304.355 5080.419 -2258.566 5133.935 -2253.1 5147.87 C -2201.411 5279.65 -2019.463 5687.135 -1999.9 5685.21 C -1973.788 5682.64 -1892.749 5511.178 -1861.1 5453.84 C -1857.911 5448.062 -1844.869 5448.288 -1841.3 5453.84 C -1816.845 5491.879 -1706.911 5703.676 -1681.3 5705.66 Z" fill="#000000" style="stroke-width: 1; transform-box: fill-box; transform-origin: 50% 50%;" transform="matrix(-1, 0, 0, -1, -47.669922, 0.045166)"/>
  <path style="stroke: rgb(0, 0, 0);" d="M 454.473 -264.989 C 1634.015 -305.141 1591.439 -516.689 1669.25 -653.091 C 1773.26 -888.627 2066.659 -1336.582 2151.268 -1460.329 C 2378.718 -1792.991 2465.133 -2062.072 2577.444 -2248.773 C 2893.604 -2774.345 3031.787 -2724.457 3306.352 -2646.561 C 3406.418 -2618.172 3158.116 -2333.636 2994.565 -2079.791 C 2855.29 -1863.622 2630.089 -1487.806 2491.891 -1162.085 C 2061.625 -147.986 2081.662 -147.326 1901.981 57.059 C 1776.679 199.589 1495.115 290.347 409.61 200.08"/>
  <path style="stroke-width: 1500; stroke: rgb(255, 0, 0); fill: rgb(255, 255, 255); transform-box: fill-box; transform-origin: 50% 50%;" d="M -6000 6000 L 6000 -6000" transform="matrix(0.139173, 0.990268, -0.990268, 0.139173, 0, 0)"/>
  <path d="M 3878.49 -2647.6 C 4066.36 -2647.9 5122.8 -2631.9 5122.8 -2631.9 C 5252.607 -2595.115 5307.512 -2508.093 5323.997 -2424.799 C 5354.157 -2272.412 5232.428 -2107.121 5040.81 -2105.3 C 5040.81 -2105.3 4016.47 -2105.8 3878.49 -2106 C 3878.49 -2284.7 3878.49 -2463.5 3878.49 -2647.6 Z M 2351.05 -2105.3 C 1916.552 -2132.167 2002.036 -2668.492 2333.8 -2647.9 C 2339.279 -2647.56 3161.82 -2647.6 3271.53 -2647.6 C 3271.53 -2469 3271.53 -2290.2 3271.53 -2106 C 3029.88 -2105.8 2361.77 -2104.637 2351.05 -2105.3 Z M 3657.94 -2383 C 3672.5 -2383 3687.05 -2383 3702.05 -2383 C 3702.05 -2291.6 3702.05 -2200.2 3702.05 -2106 C 3687.5 -2106 3672.94 -2106 3657.94 -2106 C 3657.94 -2197.4 3657.94 -2288.8 3657.94 -2383 Z M 3447.97 -2383 C 3459.62 -2383 3471.27 -2383 3483.26 -2383 C 3483.26 -2291.6 3483.26 -2200.2 3483.26 -2106 C 3471.62 -2106 3459.97 -2106 3447.97 -2106 C 3447.97 -2197.4 3447.97 -2288.8 3447.97 -2383 Z M 3657.94 -2647.6 C 3672.5 -2647.6 3687.05 -2647.6 3702.05 -2647.6 C 3702.05 -2575.5 3702.05 -2503.2 3702.05 -2428.9 C 3687.5 -2428.9 3672.94 -2428.9 3657.94 -2428.9 C 3657.94 -2501 3657.94 -2573.2 3657.94 -2647.6 Z M 3447.97 -2647.6 C 3459.62 -2647.6 3471.27 -2647.6 3483.26 -2647.6 C 3483.26 -2575.5 3483.26 -2503.2 3483.26 -2428.9 C 3471.62 -2428.9 3459.97 -2428.9 3447.97 -2428.9 C 3447.97 -2501 3447.97 -2573.2 3447.97 -2647.6 Z M 6310.75 -3286.4 C 6312.1 -3286.3 6327.37 -3285.666 6327.54 -3275.8 L 6328.38 -2280.5 C 6328.262 -2272.295 6323.247 -2267.085 6317.38 -2264.1 C 6312.016 -2261.371 6304.641 -2261.952 6299.34 -2264.8 C 6288.957 -2270.377 6284.672 -2283.661 6278.69 -2293.5 C 6238.718 -2359.245 5981.497 -2580.981 5469.335 -2618.187 C 5399.544 -2623.257 5332.4 -2624.7 5332.4 -2624.7 C 5563.951 -2404.054 5399.521 -1996.24 5033.62 -2006.3 C 5033.62 -2006.3 3991.16 -2007 3878.49 -2007.2 C 3878.48 -1982.8 3878.85 -1834 3878.83 -1832.2 C 3879.02 -1821.2 3881.23 -1815.4 3888.42 -1807.3 C 3895.01 -1799.1 3893.46 -1787.5 3892.61 -1777.8 C 3889.54 -1766.1 3881.31 -1757.8 3871.44 -1751.4 C 3863.14 -1748 3855.59 -1747.3 3846.75 -1747.3 C 3844.69 -1747.3 3729.95 -1746.9 3728.64 -1746.9 C 3717.37 -1746.9 3708.34 -1750.8 3699.86 -1758.2 C 3698.91 -1759.4 3695.03 -1764 3694.03 -1765.3 C 3686.75 -1775.9 3686.59 -1786.6 3687.93 -1799 C 3690 -1805.3 3692.56 -1811 3697.73 -1815.4 C 3701.01 -1819.3 3700.96 -1821.2 3700.99 -1826.1 C 3701.03 -1828.7 3701.94 -1984.9 3702.05 -2007.2 C 3687.5 -2007.2 3672.94 -2007.2 3657.94 -2007.2 C 3657.94 -1982.8 3658.29 -1833.7 3658.28 -1831.8 C 3658.47 -1821.4 3660.21 -1815.9 3667.78 -1808.5 C 3673.35 -1802.9 3673.74 -1796.4 3674.49 -1788.7 C 3674.2 -1778.1 3669.16 -1769.5 3663.91 -1760.5 C 3648.35 -1745.9 3630.21 -1746.6 3610.09 -1746.7 C 3606.99 -1746.7 3531.42 -1746.7 3528.38 -1746.7 C 3492.62 -1746.7 3492.62 -1746.7 3479.93 -1757.7 C 3471.39 -1766.6 3467.26 -1777.1 3466.61 -1789.3 C 3466.93 -1797.8 3469.66 -1804.4 3474.44 -1811.3 C 3475.62 -1812.2 3476.82 -1813.1 3478.04 -1814 C 3483.46 -1820.9 3482.5 -1827.9 3482.47 -1836.6 C 3482.49 -1838.3 3483.19 -1984.9 3483.26 -2007.2 C 3471.62 -2007.2 3459.97 -2007.2 3447.97 -2007.2 C 3448.01 -1982.7 3448.54 -1833.4 3448.52 -1831.6 C 3448.71 -1820.5 3450.53 -1815.6 3458.56 -1807.8 C 3464.37 -1798.8 3463.22 -1788 3462.09 -1777.8 C 3458.81 -1766.9 3453.74 -1759.1 3444.16 -1753 C 3435.36 -1748.5 3428.02 -1747.3 3418.17 -1747.3 C 3416.8 -1747.3 3301 -1747.1 3299.69 -1747.1 C 3286.63 -1747.3 3276.79 -1751.9 3267.26 -1760.7 C 3258.19 -1770.6 3256.18 -1780.5 3256.6 -1793.7 C 3258.12 -1803.6 3262.8 -1811.3 3269.77 -1818.4 C 3270.32 -1821.9 3270.32 -1821.9 3270.26 -1826 C 3270.3 -1828.2 3270.99 -1928.9 3271.07 -1940.1 C 3271.25 -1962.5 3271.39 -1984.8 3271.53 -2007.2 C 3268.48 -2007.2 2344.44 -2006.558 2340.58 -2006.5 C 2196.262 -2004.324 2029.232 -2098.634 1975.919 -2244.864 C 1904.197 -2441.589 2008.613 -2692.398 2202.28 -2720 C 2202.28 -2721.1 2202.28 -2722.3 2202.28 -2723.5 C 2199.37 -2723.5 1809.19 -2732.9 1809.19 -2732.9 C 1791.27 -2732.9 1778.555 -2728.749 1763.71 -2719.1 C 1724.63 -2693.699 1639.949 -2664.542 1593.55 -2663.6 C 1586.49 -2669.9 1584.17 -2674 1583.61 -2683.5 C 1583.58 -2687.3 1583.75 -2872.7 1583.75 -2874.7 C 1583.91 -2888 1583.91 -2888 1588.09 -2894.9 C 1592.86 -2899.1 1596.13 -2901.6 1602.6 -2901.9 C 1660.76 -2895.1 1719.37 -2871.4 1769.11 -2841.3 C 1776.428 -2834.81 1801.526 -2830.099 1811.86 -2830.7 C 1811.86 -2830.7 3290.58 -2875.3 3324.47 -2875.3 C 3324.47 -2920.7 3324.47 -2966.1 3324.47 -3012.9 C 3318.06 -3012.9 3311.65 -3012.9 3305.05 -3012.9 C 3293.87 -3018.4 3285.62 -3024.9 3280.16 -3036.4 C 3277.05 -3045.7 3276.84 -3056.7 3279.73 -3066 C 3285.43 -3076.9 3295.28 -3084.9 3306.82 -3088.8 C 3312.32 -3089.4 3312.32 -3089.4 3318.55 -3089.4 C 3319.7 -3089.4 3400.39 -3089.9 3402.98 -3089.9 C 3419.69 -3090 3434.37 -3088.9 3447.34 -3077.4 C 3455.79 -3068 3457.71 -3058.5 3457.47 -3046 C 3456.06 -3035.5 3450.6 -3027 3442.68 -3019.9 C 3431.44 -3012.4 3427.68 -3012.9 3412.68 -3012.9 C 3412.68 -2968.7 3412.68 -2924.4 3412.68 -2878.8 C 3433.78 -2879.9 3505.28 -2882.4 3530.91 -2882.4 C 3530.91 -2925.4 3530.91 -2968.4 3530.91 -3012.9 C 3526.83 -3012.9 3522.75 -3012.9 3518.55 -3012.9 C 3507.75 -3015.9 3499.9 -3023 3493.85 -3032.3 C 3488.97 -3042.5 3488.34 -3053.7 3491.47 -3064.6 C 3496.03 -3074.7 3503.57 -3082.2 3513.59 -3087 C 3519.47 -3089.1 3524.32 -3089.4 3530.49 -3089.4 C 3532.26 -3089.4 3613.89 -3089.7 3616.53 -3089.7 C 3632.57 -3089.9 3645.36 -3089.7 3657.98 -3078.5 C 3659.16 -3077.1 3659.16 -3077.1 3660.37 -3075.6 C 3661.19 -3074.5 3662 -3073.6 3662.83 -3072.6 C 3669.78 -3062.3 3669.75 -3053.2 3668.53 -3041.2 C 3665.49 -3030.2 3658.51 -3022.6 3649.12 -3016.4 C 3640.3 -3012.9 3640.3 -3012.9 3619.12 -3012.9 C 3619.12 -2970.9 3619.12 -2929.1 3619.12 -2885.9 C 3646.83 -2886.9 3731.04 -2889.4 3751.46 -2889.4 C 3751.46 -2930.1 3751.46 -2970.9 3751.46 -3012.9 C 3743.89 -3012.9 3736.32 -3012.9 3728.52 -3012.9 C 3717.1 -3017.3 3707.57 -3026.5 3702.05 -3037.7 C 3701.73 -3041.8 3701.57 -3046 3701.51 -3050.3 C 3701.44 -3052.6 3701.36 -3054.9 3701.3 -3057.4 C 3702.44 -3067.4 3707.52 -3074 3715.18 -3080.3 C 3716.15 -3081.2 3717.14 -3082.1 3718.14 -3083 C 3725.89 -3088.3 3732.79 -3089.1 3742.07 -3089.4 C 3743.8 -3089.4 3824.23 -3089.7 3826.82 -3089.7 C 3843.86 -3089.9 3855.62 -3088.8 3869.23 -3077.7 C 3877.33 -3067.8 3881.73 -3058.8 3881.18 -3045.7 C 3879.04 -3035.1 3872.8 -3026.7 3865.27 -3019.1 C 3856.3 -3013.7 3850.29 -3012.9 3839.68 -3012.9 C 3839.68 -2973.2 3839.68 -2933.7 3839.68 -2893 C 3858.74 -2893.5 3877.77 -2894.1 3897.41 -2894.7 C 3909.64 -2895.2 5057.81 -2931.1 5091.9 -2932.1 C 5117.73 -2932.8 5476.34 -2946 5476.34 -2946 C 5988.931 -2974.624 6277.876 -3233.294 6291.03 -3276.8 C 6291.03 -3276.8 6301.94 -3287.4 6310.75 -3286.4 Z" style="paint-order: fill; fill-rule: evenodd; stroke-width: 1; transform-box: fill-box; transform-origin: 1.4312% 34.6908%;" transform="matrix(0.988202, 0.153155, -0.153155, 0.988202, -0.002502, -0.005285)"/>
</svg>